<?xml version="1.0" encoding="UTF-8" standalone="no"?>
<svg
   xmlns:dc="http://purl.org/dc/elements/1.1/"
   xmlns:cc="http://creativecommons.org/ns#"
   xmlns:rdf="http://www.w3.org/1999/02/22-rdf-syntax-ns#"
   xmlns:svg="http://www.w3.org/2000/svg"
   xmlns="http://www.w3.org/2000/svg"
   xmlns:sodipodi="http://sodipodi.sourceforge.net/DTD/sodipodi-0.dtd"
   xmlns:inkscape="http://www.inkscape.org/namespaces/inkscape"
   width="478"
   height="299"
   viewBox="0 0 478 299"
   id="svg3004"
   version="1.1"
   inkscape:version="0.48.5 r10040"
   sodipodi:docname="close.svg">
  <metadata
     id="metadata3038">
    <rdf:RDF>
      <cc:Work
         rdf:about="">
        <dc:format>image/svg+xml</dc:format>
        <dc:type
           rdf:resource="http://purl.org/dc/dcmitype/StillImage" />
        <dc:title></dc:title>
      </cc:Work>
    </rdf:RDF>
  </metadata>
  <defs
     id="defs3036" />
  <sodipodi:namedview
     pagecolor="#ffffff"
     bordercolor="#666666"
     borderopacity="1"
     objecttolerance="10"
     gridtolerance="10"
     guidetolerance="10"
     inkscape:pageopacity="0"
     inkscape:pageshadow="2"
     inkscape:window-width="1918"
     inkscape:window-height="1042"
     id="namedview3034"
     showgrid="false"
     fit-margin-top="0"
     fit-margin-left="0"
     fit-margin-right="0"
     fit-margin-bottom="0"
     inkscape:zoom="1.5881874"
     inkscape:cx="514.37796"
     inkscape:cy="159.66713"
     inkscape:window-x="0"
     inkscape:window-y="18"
     inkscape:window-maximized="0"
     inkscape:current-layer="svg3004" />
  <style
     type="text/css"
     id="style3006">
.style0 {
  font-size: 28px;
  font-family: &quot;Exo2-Light&quot;;
  fill: rgb(255,255,255);
}
.style1 {
  font-size: 14px;
  font-family: &quot;Arial&quot;;
  font-weight: 400;
  fill: rgb(255,254,254);
}
</style>
  <path
     style="fill:#ffffff"
     inkscape:connector-curvature="0"
     id="path3012"
     d="m 472.73,132.6 c 0,0 -12.38,46.1 -12.38,46.1 0,0 -1.2,0.93 -1.2,0.93 0,0 -74.28,0 -74.28,0 0,0 -1.21,-0.92 -1.21,-0.92 0,0 -12.77,-46.11 -12.77,-46.11 0,0 -3.92,0 -3.92,0 0,0 0,-2.49 0,-2.49 0,0 111.03,0 111.03,0 0,0 0,2.49 0,2.49 0,0 -5.27,0 -5.27,0 z m -17.25,0 c 0,0 0.79,0.21 0.79,0.21 0,0 -8.58,32.51 -8.58,32.51 0,0 -2.42,-0.64 -2.42,-0.64 0,0 8.47,-32.08 8.47,-32.08 0,0 -19.1,0 -19.1,0 0,0 -2.86,32.55 -2.86,32.55 0,0 -2.49,-0.22 -2.49,-0.22 0,0 2.84,-32.33 2.84,-32.33 0,0 -19.13,0 -19.13,0 0,0 2.84,32.33 2.84,32.33 0,0 -2.49,0.22 -2.49,0.22 0,0 -2.86,-32.55 -2.86,-32.55 0,0 -19.11,0 -19.11,0 0,0 8.48,32.08 8.48,32.08 0,0 -2.42,0.64 -2.42,0.64 0,0 -8.58,-32.51 -8.58,-32.51 0,0 0.79,-0.21 0.79,-0.21 0,0 -16.16,0 -16.16,0 0,0 12.33,44.53 12.33,44.53 0,0 72.37,0 72.37,0 0,0 11.95,-44.53 11.95,-44.53 0,0 -14.66,0 -14.66,0 z m -88.51,-14.15 c 0,0 111.03,0 111.03,0 0,0 0,2.5 0,2.5 0,0 -111.03,0 -111.03,0 0,0 0,-2.5 0,-2.5 z m 83.17,-5.18 c 0,0 -22.07,-22.07 -22.07,-22.07 -1.5,1.66 -3.66,2.71 -6.06,2.71 -2.4,0 -4.56,-1.05 -6.06,-2.71 0,0 -22.08,22.07 -22.08,22.07 0,0 -1.76,-1.77 -1.76,-1.77 0,0 22.44,-22.43 22.44,-22.43 -0.45,-1.02 -0.71,-2.14 -0.71,-3.33 0,-4.51 3.66,-8.17 8.17,-8.17 4.5,0 8.17,3.66 8.17,8.17 0,1.18 -0.26,2.31 -0.72,3.33 0,0 22.45,22.43 22.45,22.43 0,0 -1.77,1.77 -1.77,1.77 z m -28.13,-33.2 c -3.13,0 -5.67,2.54 -5.67,5.67 0,3.13 2.54,5.67 5.67,5.67 3.13,0 5.67,-2.54 5.67,-5.67 0,-3.13 -2.54,-5.67 -5.67,-5.67 z M 377.65,40.02 c 0,-10.51 -8.55,-19.06 -19.07,-19.06 0,0 -1.25,0 -1.25,0 0,0 0,-2.5 0,-2.5 0,0 1.25,0 1.25,0 11.89,0 21.57,9.67 21.57,21.56 0,0 0,1.25 0,1.25 0,0 -2.5,0 -2.5,0 0,0 0,-1.25 0,-1.25 z m -18.08,-0.15 c 0,0 0,32.61 0,32.61 0,0 -1.25,1.25 -1.25,1.25 0,0 -52.38,0 -52.38,0 0,0 -1.25,-1.25 -1.25,-1.25 0,0 0,-32.61 0,-32.61 0,0 1.25,-1.25 1.25,-1.25 0,0 52.38,0 52.38,0 0,0 1.25,1.25 1.25,1.25 z m -2.5,1.25 c 0,0 -49.88,0 -49.88,0 0,0 0,5.37 0,5.37 0,0 49.88,0 49.88,0 0,0 0,-5.37 0,-5.37 z m 0,7.86 c 0,0 -49.88,0 -49.88,0 0,0 0,5.8 0,5.8 0,0 49.88,0 49.88,0 0,0 0,-5.8 0,-5.8 z m 0,8.3 c 0,0 -49.88,0 -49.88,0 0,0 0,13.95 0,13.95 0,0 49.88,0 49.88,0 0,0 0,-13.95 0,-13.95 z m -4.08,8.32 c 0,0 -16.67,0 -16.67,0 0,0 0,-2.5 0,-2.5 0,0 16.67,0 16.67,0 0,0 0,2.5 0,2.5 z m -42.55,81.28 c 0,0 -1.72,1.81 -1.72,1.81 0,0 -0.91,-0.86 -0.91,-0.86 -1.88,-1.8 -3.82,-3.59 -5.76,-5.31 0,0 -0.93,-0.83 -0.93,-0.83 0,0 1.66,-1.87 1.66,-1.87 0,0 0.93,0.83 0.93,0.83 1.96,1.74 3.93,3.55 5.83,5.37 0,0 0.9,0.86 0.9,0.86 z m -19.69,-13.75 c -2.05,-1.6 -4.17,-3.17 -6.28,-4.69 0,0 -1.01,-0.73 -1.01,-0.73 0,0 1.46,-2.03 1.46,-2.03 0,0 1.01,0.73 1.01,0.73 2.14,1.54 4.28,3.13 6.35,4.74 0,0 0.99,0.77 0.99,0.77 0,0 -1.53,1.97 -1.53,1.97 0,0 -0.99,-0.76 -0.99,-0.76 z m 27.34,25.19 c 0,0 -0.84,-0.92 -0.84,-0.92 0,0 1.84,-1.68 1.84,-1.68 0,0 0.85,0.92 0.85,0.92 1.77,1.94 3.54,3.93 5.24,5.93 0,0 0.81,0.95 0.81,0.95 0,0 -1.9,1.62 -1.9,1.62 0,0 -0.81,-0.95 -0.81,-0.95 -1.68,-1.97 -3.43,-3.95 -5.19,-5.87 z m 17.79,5.43 c 0,0 1.9,16.77 1.9,16.77 0,0 -2,1.13 -2,1.13 0,0 -13.25,-10.2 -13.25,-10.2 0,0 1.52,-1.98 1.52,-1.98 0,0 8.79,6.77 8.79,6.77 -0.13,-0.18 -0.26,-0.37 -0.4,-0.55 0,0 -0.74,-1 -0.74,-1 0,0 2,-1.49 2,-1.49 0,0 0.75,1 0.75,1 0.04,0.05 0.08,0.11 0.12,0.16 0,0 -1.18,-10.33 -1.18,-10.33 0,0 2.49,-0.28 2.49,-0.28 z M 358.6,32.69 c 0,0 -1.25,0 -1.25,0 0,0 0,-2.5 0,-2.5 0,0 1.25,0 1.25,0 5.43,0 9.84,4.41 9.84,9.83 0,0 0,1.25 0,1.25 0,0 -2.5,0 -2.5,0 0,0 0,-1.25 0,-1.25 0,-4.04 -3.29,-7.33 -7.34,-7.33 z M 50.08,251.41 c 0,2.04 -1.66,3.69 -3.69,3.69 -2.04,0 -3.69,-1.65 -3.69,-3.69 0,-2.04 1.65,-3.69 3.69,-3.69 2.03,0 3.69,1.65 3.69,3.69 z M 411.3,228.58 c 0,0 0.76,0.77 0.76,0.77 0,0 4.3,12.62 4.3,12.62 0,0 5.74,0 5.74,0 0,0 1.25,1.25 1.25,1.25 0,0 0,28.51 0,28.51 0,0 -1.12,1.25 -1.12,1.25 0,0 -37.86,4.07 -37.86,4.07 0,0 -0.2,-1.85 -0.2,-1.85 -3.2,13.42 -15.29,23.43 -29.69,23.43 -13.97,0 -25.77,-9.44 -29.38,-22.27 0,0 -89.4,-0.29 -89.4,-0.29 0,0 6.28,22.93 6.28,22.93 0,0 -2.59,0 -2.59,0 0,0 -13.41,-48.96 -13.41,-48.96 0,0 -25.11,-9.87 -25.11,-9.87 0,0 0.02,5.37 0.02,5.37 0,0 0.83,0.83 0.83,0.83 0,0 0,4 0,4 0,0 -0.27,0.77 -0.27,0.77 0,0 -2.34,2.99 -2.34,2.99 0,0 0,5.39 0,5.39 0,0 2.25,2.3 2.25,2.3 0,0 0.36,0.88 0.36,0.88 0,0 0,4.66 0,4.66 0,0 -0.76,0.76 -0.76,0.76 0,0 0.09,30.88 0.09,30.88 0,0 -2.49,0 -2.49,0 0,0 -0.1,-30.39 -0.1,-30.39 0,0 -0.14,0 -0.14,0 0,0 -12.1,0 -12.1,0 0,0 -0.03,0 -0.03,0 0,0 0,5.86 0,5.86 0,0 -1.25,1.25 -1.25,1.25 0,0 -37.73,0 -37.73,0 0,0 -5.81,0 -5.81,0 0,0 -37.72,0 -37.72,0 0,0 -1.25,-1.21 -1.25,-1.21 0,0 -0.17,-5.9 -0.17,-5.9 0,0 -11.83,0 -11.83,0 0,0 -0.27,0 -0.27,0 0,0 -0.1,30.39 -0.1,30.39 0,0 -2.5,0 -2.5,0 0,0 0.1,-31.01 0.1,-31.01 0,0 -0.63,-0.63 -0.63,-0.63 0,0 0,-4.66 0,-4.66 0,0 0.36,-0.88 0.36,-0.88 0,0 2.26,-2.3 2.26,-2.3 0,0 0,-5.39 0,-5.39 0,0 -2.35,-2.99 -2.35,-2.99 0,0 -0.27,-0.77 -0.27,-0.77 0,0 0,-4 0,-4 0,0 1.25,-1.25 1.25,-1.25 0,0 2.15,0 2.15,0 0,0 12,0 12,0 0,0 0,-10.72 0,-10.72 0,0 -12.18,4.79 -12.18,4.79 0,0 -0.02,5.89 -0.02,5.89 0,0 -2.5,-0.01 -2.5,-0.01 0,0 0.01,-4.9 0.01,-4.9 0,0 -25.1,9.87 -25.1,9.87 0,0 -13.41,48.96 -13.41,48.96 0,0 -2.59,0 -2.59,0 0,0 5.38,-19.66 5.38,-19.66 -5.51,8.83 -14.53,15.25 -25.09,17.33 0,0 -0.22,0.96 -0.22,0.96 -0.1,0.46 -0.22,0.92 -0.33,1.37 0,0 -2.57,0 -2.57,0 0.16,-0.63 0.31,-1.27 0.46,-1.91 -1.55,0.19 -3.12,0.3 -4.72,0.3 -7.15,0 -13.82,-1.99 -19.55,-5.41 0,0 0,-2.92 0,-2.92 5.62,3.68 12.34,5.83 19.55,5.83 19.72,0 35.76,-16.04 35.76,-35.75 0,-19.72 -16.04,-35.75 -35.76,-35.75 -7.21,0 -13.93,2.15 -19.55,5.83 0,0 0,-2.93 0,-2.93 3.7,-2.21 7.79,-3.82 12.16,-4.68 0,0 0.22,-0.96 0.22,-0.96 0.3,-1.31 0.63,-2.64 1,-3.94 0,0 0.34,-1.2 0.34,-1.2 0,0 2.4,0.67 2.4,0.67 0,0 -0.33,1.21 -0.33,1.21 -0.36,1.25 -0.68,2.53 -0.97,3.8 1.55,-0.19 3.12,-0.3 4.73,-0.3 7.66,0 14.81,2.27 20.8,6.17 0,0 0.85,-0.55 0.85,-0.55 1.13,-0.73 2.29,-1.45 3.46,-2.13 0,0 1.08,-0.63 1.08,-0.63 0,0 1.26,2.16 1.26,2.16 0,0 -1.08,0.63 -1.08,0.63 -1.13,0.66 -2.26,1.35 -3.35,2.06 9.03,6.83 14.95,17.56 15.22,29.67 0,0 2.6,-9.49 2.6,-9.49 0,0 0.75,-0.84 0.75,-0.84 0,0 36.44,-14.32 36.44,-14.32 0,0 -0.59,-0.13 -0.59,-0.13 0,0 5.65,-25.66 5.65,-25.66 0,0 -16.89,-23.65 -16.89,-23.65 0,0 0.93,-1.98 0.93,-1.98 3.28,-0.21 6.69,-0.47 10.41,-0.75 3.86,-0.29 8.07,-0.6 12.81,-0.92 0,0 0,-11.3 0,-11.3 -0.53,0.48 -1.05,0.97 -1.56,1.48 0,0 -0.89,0.89 -0.89,0.89 0,0 -1.76,-1.77 -1.76,-1.77 0,0 0.88,-0.88 0.88,-0.88 1.41,-1.41 2.87,-2.71 4.39,-3.92 0,0 5.6,-38.94 5.6,-38.94 0,0 0.94,-1.04 0.94,-1.04 0,0 25.48,-6.06 25.48,-6.06 0,0 2.43,0.04 2.43,0.04 0,0 23.95,6.03 23.95,6.03 0,0 0.92,0.99 0.92,0.99 0,0 6.81,38.54 6.81,38.54 1.72,1.34 3.38,2.78 4.96,4.36 0,0 0.88,0.88 0.88,0.88 0,0 -1.77,1.77 -1.77,1.77 0,0 -0.88,-0.89 -0.88,-0.89 -0.51,-0.51 -1.03,-1 -1.56,-1.48 0,0 0,6.61 0,6.61 7.4,-0.51 14.77,-1.01 21.98,-1.51 0,0 0,-111.81 0,-111.81 0,0 2.5,0 2.5,0 0,0 0,27.1 0,27.1 2.58,0.57 5.17,1.18 7.71,1.83 0,0 1.21,0.31 1.21,0.31 0,0 -0.62,2.42 -0.62,2.42 0,0 -1.21,-0.31 -1.21,-0.31 -2.34,-0.6 -4.72,-1.16 -7.09,-1.68 0,0 0,81.97 0,81.97 42.55,-2.92 78.66,-5.41 78.66,-5.41 0,0 0.75,0.19 0.75,0.19 0.3,0.19 30.21,18.91 45.88,29.68 20.48,7.87 82.19,29.74 82.81,29.96 z m -0.95,3.51 c 0,0 0,1.13 0,1.13 0,0 -19.9,0 -19.9,0 0,0 5.41,4.78 5.41,4.78 0,0 17.68,3.46 17.68,3.46 0,0 -3.19,-9.37 -3.19,-9.37 z m -55.87,64.05 c 15.45,0 28.02,-12.57 28.02,-28.01 0,-15.45 -12.57,-28.01 -28.02,-28.01 -15.45,0 -28.02,12.56 -28.02,28.01 0,15.44 12.57,28.01 28.02,28.01 z m -127,-48.2 c 0,0 0.75,0.84 0.75,0.84 0,0 2.44,8.93 2.44,8.93 -3.01,-18.9 -7.63,-41.43 -7.69,-41.72 0,0 -0.02,-0.11 -0.02,-0.11 0,0 -0.46,-4.1 -0.46,-4.1 -28.63,-0.01 -51.43,0.18 -52.93,0.19 0,0 0.71,13.5 0.71,13.5 0,0 57.2,22.47 57.2,22.47 z M 186.19,234.4 c 0,0 0,10.72 0,10.72 0,0 0.03,0 0.03,0 0,0 12.1,0 12.1,0 0,0 0.07,0 0.07,0 0,0 -0.02,-5.93 -0.02,-5.93 0,0 -12.18,-4.79 -12.18,-4.79 z m -0.87,31.71 c 0,0 0.87,0 0.87,0 0,0 0.03,0 0.03,0 0,0 12.1,0 12.1,0 0,0 0.9,0 0.9,0 0,0 0,-2.9 0,-2.9 0,0 -2.26,-2.31 -2.26,-2.31 0,0 -0.35,-0.87 -0.35,-0.87 0,0 0,-6.33 0,-6.33 0,0 0.26,-0.77 0.26,-0.77 0,0 2.35,-2.99 2.35,-2.99 0,0 0,-2.32 0,-2.32 0,0 -0.9,0 -0.9,0 0,0 -12.1,0 -12.1,0 0,0 -0.03,0 -0.03,0 0,0 -0.87,0 -0.87,0 0,0 0,2.32 0,2.32 0,0 2.35,2.99 2.35,2.99 0,0 0.27,0.77 0.27,0.77 0,0 0,6.33 0,6.33 0,0 -0.36,0.88 -0.36,0.88 0,0 -2.26,2.3 -2.26,2.3 0,0 0,2.9 0,2.9 z m -80.57,2.42 c 0,0 0.14,4.7 0.14,4.7 0,0 36.51,0 36.51,0 0,0 5.81,0 5.81,0 0,0 36.48,0 36.48,0 0,0 0,-5 0,-5 0,0 -0.87,-0.87 -0.87,-0.87 0,0 0,-4.66 0,-4.66 0,0 0.36,-0.88 0.36,-0.88 0,0 2.26,-2.3 2.26,-2.3 0,0 0,-5.39 0,-5.39 0,0 -2.35,-2.99 -2.35,-2.99 0,0 -0.27,-0.77 -0.27,-0.77 0,0 0,-4 0,-4 0,0 0.87,-0.86 0.87,-0.86 0,0 0,-12.09 0,-12.09 0,0 -15.07,-5.92 -15.07,-5.92 0,0 -0.79,-1.1 -0.79,-1.1 0,0 -0.89,-16.69 -0.89,-16.69 -6.43,8.03 -16.82,13.49 -21.78,13.49 0,0 -0.45,0 -0.45,0 0,0 -0.8,0 -0.8,0 0,0 -0.45,0 -0.45,0 -4.96,0 -15.36,-5.46 -21.79,-13.49 0,0 -0.88,16.69 -0.88,16.69 0,0 -0.79,1.1 -0.79,1.1 0,0 -15.07,5.92 -15.07,5.92 0,0 0,11.95 0,11.95 0,0 1,1 1,1 0,0 0,4 0,4 0,0 -0.27,0.77 -0.27,0.77 0,0 -2.35,2.99 -2.35,2.99 0,0 0,5.39 0,5.39 0,0 2.26,2.3 2.26,2.3 0,0 0.36,0.88 0.36,0.88 0,0 0,4.66 0,4.66 0,0 -1.18,1.17 -1.18,1.17 z M 90.43,247.62 c 0,0 -0.9,0 -0.9,0 0,0 0,2.32 0,2.32 0,0 2.35,2.99 2.35,2.99 0,0 0.27,0.77 0.27,0.77 0,0 0,6.33 0,6.33 0,0 -0.36,0.88 -0.36,0.88 0,0 -2.26,2.3 -2.26,2.3 0,0 0,2.9 0,2.9 0,0 0.9,0 0.9,0 0,0 12.1,0 12.1,0 0,0 0.9,0 0.9,0 0,0 0,-2.9 0,-2.9 0,0 -2.26,-2.3 -2.26,-2.3 0,0 -0.36,-0.88 -0.36,-0.88 0,0 0,-6.33 0,-6.33 0,0 0.27,-0.77 0.27,-0.77 0,0 2.35,-2.99 2.35,-2.99 0,0 0,-2.32 0,-2.32 0,0 -0.9,0 -0.9,0 0,0 -12.1,0 -12.1,0 z m 20.52,-64.66 c -5.1,0.34 -9.57,0.68 -13.67,0.98 -2.9,0.22 -5.6,0.42 -8.2,0.6 0,0 15.92,22.29 15.92,22.29 0,0 0.2,1 0.2,1 0,0 -5.49,24.96 -5.49,24.96 0,0 18.62,-7.32 18.62,-7.32 0,0 1.01,-19.07 1.01,-19.07 -1.94,-3.24 -3.17,-6.78 -3.17,-10.47 0,0 0.01,-7.29 0.01,-7.29 0,0 -4.96,-5.7 -4.96,-5.7 0,0 -0.27,0.02 -0.27,0.02 z m 57.01,-55.68 c 0,0 -23.01,-5.79 -23.01,-5.79 0,0 -1.82,0 -1.82,0 0,0 -24.22,5.79 -24.22,5.79 0,0 -5.12,35.64 -5.12,35.64 18.05,-12.59 42.19,-12.75 60.39,-0.45 0,0 -6.22,-35.19 -6.22,-35.19 z m 4.99,37.37 c 0,0 0,12.81 0,12.81 0,0 -2.5,0 -2.5,0 0,0 0,-13.34 0,-13.34 0,0 1.72,0 1.72,0 -16.85,-11.03 -38.87,-11.03 -55.72,0 0,0 1.72,0 1.72,0 0,0 0,13.34 0,13.34 0,0 -2.5,0 -2.5,0 0,0 0,-12.81 0,-12.81 -1.35,0.92 -2.67,1.91 -3.94,2.98 0,0 0.67,0 0.67,0 0,0 0,12.85 0,12.85 0,0 5.97,6.87 5.97,6.87 0,0 0.31,0.82 0.31,0.82 0,0 -0.01,7.76 -0.01,7.76 0,13.35 18.9,24.78 24.79,24.78 0,0 0.45,0 0.45,0 0,0 0.8,0 0.8,0 0,0 0.45,0 0.45,0 5.89,0 24.78,-11.43 24.78,-24.78 0,0 0,-7.76 0,-7.76 0,0 0.3,-0.82 0.3,-0.82 0,0 5.98,-6.87 5.98,-6.87 0,0 0,-13.13 0,-13.13 0,0 0.34,0 0.34,0 -1.17,-0.96 -2.38,-1.86 -3.61,-2.7 z m 5.77,13.69 c 0,0 0,2.61 0,2.61 0,0 -0.31,0.82 -0.31,0.82 0,0 -5.97,6.87 -5.97,6.87 0,0 0,7.29 0,7.29 0,3.69 -1.22,7.23 -3.17,10.47 0,0 0.17,3.08 0.17,3.08 0,0 0.02,0 0.02,0 0.51,-0.01 23.57,-0.21 52.76,-0.2 0,0 -3.79,-33.66 -3.79,-33.66 -12.57,0.86 -26.1,1.79 -39.71,2.72 z m 148.48,22.43 c -14.69,-10.12 -42.18,-27.37 -45.57,-29.5 -3.46,0.24 -28.71,1.98 -60.71,4.18 0,0 3.81,33.83 3.81,33.83 24.19,0.02 52.17,0.18 74.91,0.72 0,0 -0.01,-0.38 -0.01,-0.38 -0.17,-5.66 0.04,-13.65 0.05,-13.73 0,0 1.22,-1.22 1.22,-1.22 3.88,-0.06 6.84,0.95 8.8,3.08 2.06,2.24 2.4,5.08 2.43,6.53 0,0 15.45,6.86 15.45,6.86 0,0 -0.59,2.38 -0.59,2.38 -23.15,-1.37 -66.57,-1.72 -101.98,-1.74 0,0 0.43,3.76 0.43,3.76 0.34,1.68 7.91,38.72 9.83,57.23 0,0 0.08,0.8 0.08,0.8 0,0 89.16,0.29 89.16,0.29 -0.35,-1.86 -0.55,-3.77 -0.55,-5.73 0,-16.82 13.7,-30.51 30.52,-30.51 16.83,0 30.52,13.69 30.52,30.51 0,2.2 -0.24,4.34 -0.68,6.41 0,0 36.53,-3.93 36.53,-3.93 0,0 0,-26.14 0,-26.14 0,0 -5.39,0 -5.39,0 0,0 -0.16,-0.12 -0.16,-0.12 0,0 -20.25,-3.97 -20.25,-3.97 0,0 -0.59,-0.29 -0.59,-0.29 0,0 -8.14,-7.18 -8.14,-7.18 0,0 0.83,-2.19 0.83,-2.19 0,0 22.71,0 22.71,0 -6.45,-2.29 -63.11,-22.4 -82.4,-29.82 0,0 -0.26,-0.13 -0.26,-0.13 z m -19.36,-1.35 c -1.26,-1.36 -3.17,-2.11 -5.69,-2.24 -0.05,2.46 -0.15,8.1 -0.02,12.37 0,0 0.01,0.52 0.01,0.52 6.67,0.17 12.83,0.37 18.26,0.61 0,0 -10.05,-4.46 -10.05,-4.46 0,0 -0.74,-1.28 -0.74,-1.28 0,-0.02 0.3,-3.28 -1.77,-5.52 z m 85.78,57.65 c 0,0 0.02,-2.5 0.02,-2.5 0,0 19.96,0.14 19.96,0.14 0,0 1.24,1.25 1.24,1.25 0,0 0,8.9 0,8.9 0,0 -1.11,1.24 -1.11,1.24 0,0 -17.37,1.87 -17.37,1.87 0,0 -0.27,-2.49 -0.27,-2.49 0,0 16.25,-1.74 16.25,-1.74 0,0 0,-6.54 0,-6.54 0,0 -18.72,-0.13 -18.72,-0.13 z M 156.5,177.67 c -1.54,0 -2.78,-1.24 -2.78,-2.77 0,-1.54 1.24,-2.78 2.78,-2.78 1.53,0 2.77,1.24 2.77,2.78 0,1.53 -1.24,2.77 -2.77,2.77 z m 0.32,18.16 c 0,0 1.68,1.85 1.68,1.85 0,0 -0.92,0.84 -0.92,0.84 -3.78,3.44 -8.53,5.16 -13.27,5.16 -4.75,0 -9.49,-1.72 -13.27,-5.16 0,0 -0.93,-0.84 -0.93,-0.84 0,0 1.68,-1.85 1.68,-1.85 0,0 0.93,0.84 0.93,0.84 6.61,6.01 16.57,6.01 23.18,0 0,0 0.92,-0.84 0.92,-0.84 z m -24.7,-18.16 c -1.53,0 -2.78,-1.24 -2.78,-2.77 0,-1.54 1.25,-2.78 2.78,-2.78 1.53,0 2.78,1.24 2.78,2.78 0,1.53 -1.25,2.77 -2.78,2.77 z m 20.97,-32.52 c 0,0 -1.77,-3.06 -1.77,-3.06 0,0 -15.69,0 -15.69,0 0,0 -1.77,3.06 -1.77,3.06 0,0 -1.08,0.63 -1.08,0.63 0,0 -5.52,0 -5.52,0 0,0 0,-2.5 0,-2.5 0,0 4.79,0 4.79,0 0,0 1.41,-2.44 1.41,-2.44 0,0 -1.41,-2.44 -1.41,-2.44 0,0 -4.79,0 -4.79,0 0,0 0,-2.5 0,-2.5 0,0 5.52,0 5.52,0 0,0 1.08,0.63 1.08,0.63 0,0 1.77,3.06 1.77,3.06 0,0 15.69,0 15.69,0 0,0 1.77,-3.06 1.77,-3.06 0,0 1.08,-0.63 1.08,-0.63 0,0 5.51,0 5.51,0 0,0 0,2.5 0,2.5 0,0 -4.79,0 -4.79,0 0,0 -1.41,2.44 -1.41,2.44 0,0 1.41,2.44 1.41,2.44 0,0 4.79,0 4.79,0 0,0 0,2.5 0,2.5 0,0 -5.51,0 -5.51,0 0,0 -1.08,-0.63 -1.08,-0.63 z m 201.39,104.69 c 10.09,0 18.3,8.2 18.3,18.29 0,10.08 -8.21,18.29 -18.3,18.29 -10.09,0 -18.3,-8.21 -18.3,-18.29 0,-10.09 8.21,-18.29 18.3,-18.29 z m 0,34.08 c 8.72,0 15.8,-7.08 15.8,-15.79 0,-8.71 -7.08,-15.79 -15.8,-15.79 -8.71,0 -15.8,7.08 -15.8,15.79 0,8.71 7.09,15.79 15.8,15.79 z M 273.59,118.14 c 0,0 1.06,0.66 1.06,0.66 0,0 -1.32,2.12 -1.32,2.12 0,0 -1.07,-0.66 -1.07,-0.66 -2.2,-1.37 -4.46,-2.73 -6.72,-4.02 0,0 -1.09,-0.62 -1.09,-0.62 0,0 1.25,-2.17 1.25,-2.17 0,0 1.08,0.62 1.08,0.62 2.29,1.31 4.58,2.68 6.81,4.07 z m -27.13,-14.37 c 2.39,1.06 4.81,2.19 7.19,3.34 0,0 1.12,0.55 1.12,0.55 0,0 -1.1,2.25 -1.1,2.25 0,0 -1.12,-0.55 -1.12,-0.55 -2.35,-1.14 -4.74,-2.26 -7.11,-3.31 0,0 -1.14,-0.51 -1.14,-0.51 0,0 1.02,-2.28 1.02,-2.28 0,0 1.14,0.51 1.14,0.51 z m -13.78,-5.58 c 0,0 1.17,0.43 1.17,0.43 0,0 -0.86,2.35 -0.86,2.35 0,0 -1.17,-0.43 -1.17,-0.43 -2.45,-0.9 -4.94,-1.76 -7.41,-2.57 0,0 -1.19,-0.38 -1.19,-0.38 0,0 0.78,-2.38 0.78,-2.38 0,0 1.18,0.39 1.18,0.39 2.5,0.81 5.02,1.69 7.5,2.59 z m -44.1,-11.26 c 0,0 1.24,0.19 1.24,0.19 0,0 -0.37,2.47 -0.37,2.47 0,0 -1.24,-0.19 -1.24,-0.19 -2.57,-0.38 -5.19,-0.73 -7.77,-1.02 0,0 -1.24,-0.14 -1.24,-0.14 0,0 0.28,-2.48 0.28,-2.48 0,0 1.25,0.14 1.25,0.14 2.6,0.29 5.25,0.64 7.85,1.03 z M 172.42,59.38 c 0,0 58.11,0 58.11,0 0,0 0,2.5 0,2.5 0,0 -58.11,0 -58.11,0 0,0 0,-2.5 0,-2.5 z m -6.51,25.33 c 0,0 1.25,0.06 1.25,0.06 0,0 -0.11,2.49 -0.11,2.49 0,0 -1.25,-0.05 -1.25,-0.05 -2.6,-0.12 -5.23,-0.2 -7.83,-0.23 0,0 -1.25,-0.01 -1.25,-0.01 0,0 0.02,-2.5 0.02,-2.5 0,0 1.25,0.02 1.25,0.02 2.63,0.02 5.3,0.1 7.92,0.22 z m -17.68,30.71 c 0,0 -8.37,0 -8.37,0 0,0 0,-2.5 0,-2.5 0,0 8.37,0 8.37,0 0,0 0,2.5 0,2.5 z m -14.01,-27.4 c 0,0 -0.23,-2.48 -0.23,-2.48 0,0 1.24,-0.12 1.24,-0.12 2.62,-0.24 5.28,-0.44 7.9,-0.59 0,0 1.25,-0.07 1.25,-0.07 0,0 0.15,2.49 0.15,2.49 0,0 -1.25,0.07 -1.25,0.07 -2.59,0.15 -5.22,0.35 -7.82,0.59 0,0 -1.24,0.11 -1.24,0.11 z M 263.77,52.65 c -0.62,6.07 -5.77,10.83 -12.01,10.83 -6.35,0 -11.57,-4.95 -12.02,-11.19 0,0 -72.29,0 -72.29,0 -0.54,6.16 -5.72,11 -12.02,11 -6.29,0 -11.47,-4.84 -12.01,-11 0,0 -16.12,0 -16.12,0 0,0 -1.25,-1.25 -1.25,-1.25 0,0 0,-21.76 0,-21.76 0,0 0.94,-1.21 0.94,-1.21 0,0 33.42,-8.45 33.42,-8.45 0,0 29.66,-19.42 29.66,-19.42 0,0 0.68,-0.2 0.68,-0.2 0,0 59.79,0 59.79,0 0,0 0.78,0.27 0.78,0.27 0,0 24.44,19.54 24.44,19.54 0,0 0.47,0.96 0.47,0.96 0,0 0.12,21.22 0.12,21.22 0,0 -0.47,0.98 -0.47,0.98 0,0 -12.11,9.68 -12.11,9.68 z m -12.01,8.33 c 5.28,0 9.57,-4.29 9.57,-9.56 0,-5.28 -4.29,-9.57 -9.57,-9.57 -5.27,0 -9.56,4.29 -9.56,9.57 0,5.27 4.29,9.56 9.56,9.56 z m -96.33,-0.19 c 5.28,0 9.57,-4.29 9.57,-9.56 0,-5.27 -4.29,-9.56 -9.57,-9.56 -5.27,0 -9.56,4.29 -9.56,9.56 0,5.27 4.29,9.56 9.56,9.56 z M 191.13,2.5 c 0,0 -27.32,17.88 -27.32,17.88 0,0 47.28,0 47.28,0 0,0 0.21,-17.88 0.21,-17.88 0,0 -20.17,0 -20.17,0 z m 22.67,0 c 0,0 -0.21,17.88 -0.21,17.88 0,0 29.42,0 29.42,0 0,0 5.17,-17.88 5.17,-17.88 0,0 -34.38,0 -34.38,0 z m 59.94,18.88 c 0,0 -23.08,-18.44 -23.08,-18.44 0,0 -5.51,19.04 -5.51,19.04 0,0 -1.2,0.9 -1.2,0.9 0,0 -84.28,0 -84.28,0 0,0 0,-0.49 0,-0.49 0,0 -31.12,7.86 -31.12,7.86 0,0 0,19.54 0,19.54 0,0 14.91,0 14.91,0 0.71,-5.97 5.81,-10.62 11.97,-10.62 6.17,0 11.26,4.65 11.98,10.62 0,0 72.41,0 72.41,0 0.8,-5.88 5.84,-10.44 11.94,-10.44 6.02,0 11,4.42 11.91,10.18 0,0 10.18,-8.13 10.18,-8.13 0,0 -0.11,-20.02 -0.11,-20.02 z m -3.9,13.86 c 0,0 -2.5,0 -2.5,0 0,0 0,-10.99 0,-10.99 0,0 2.5,0 2.5,0 0,0 0,10.99 0,10.99 z M 132.72,33.31 c 0,0 2.5,0 2.5,0 0,0 0,7.88 0,7.88 0,0 -2.5,0 -2.5,0 0,0 0,-7.88 0,-7.88 z m -19.54,57.83 c 0,0 -1.23,0.24 -1.23,0.24 0,0 -0.48,-2.45 -0.48,-2.45 0,0 1.22,-0.24 1.22,-0.24 2.59,-0.51 5.21,-0.98 7.8,-1.4 0,0 1.24,-0.2 1.24,-0.2 0,0 0.39,2.47 0.39,2.47 0,0 -1.23,0.2 -1.23,0.2 -2.56,0.41 -5.16,0.87 -7.71,1.38 z m -21.84,5.5 c 0,0 -1.2,0.37 -1.2,0.37 0,0 -0.73,-2.39 -0.73,-2.39 0,0 1.19,-0.37 1.19,-0.37 2.53,-0.77 5.09,-1.51 7.62,-2.19 0,0 1.21,-0.32 1.21,-0.32 0,0 0.65,2.41 0.65,2.41 0,0 -1.21,0.33 -1.21,0.33 -2.5,0.67 -5.03,1.39 -7.53,2.16 z M 8.85,71.95 c 0,0 1.25,-1.25 1.25,-1.25 0,0 3.58,0 3.58,0 0.22,-0.63 0.47,-1.24 0.76,-1.83 0,0 -2.53,-2.53 -2.53,-2.53 0,0 0,-1.77 0,-1.77 0,0 5.26,-5.25 5.26,-5.25 0,0 1.77,0 1.77,0 0,0 2.53,2.52 2.53,2.52 0.59,-0.29 1.2,-0.54 1.83,-0.75 0,0 0,-3.58 0,-3.58 0,0 1.25,-1.25 1.25,-1.25 0,0 7.44,0 7.44,0 0,0 1.25,1.25 1.25,1.25 0,0 0,3.58 0,3.58 0.63,0.21 1.24,0.46 1.83,0.75 0,0 2.53,-2.52 2.53,-2.52 0,0 1.76,0 1.76,0 0,0 5.27,5.25 5.27,5.25 0,0 0,1.77 0,1.77 0,0 -2.53,2.53 -2.53,2.53 0.29,0.59 0.54,1.2 0.75,1.83 0,0 3.58,0 3.58,0 0,0 1.25,1.25 1.25,1.25 0,0 0,7.43 0,7.43 0,0 -1.25,1.25 -1.25,1.25 0,0 -3.58,0 -3.58,0 -0.21,0.63 -0.46,1.24 -0.75,1.83 0,0 2.53,2.53 2.53,2.53 0,0 0,1.77 0,1.77 0,0 -5.27,5.26 -5.27,5.26 0,0 -1.76,0 -1.76,0 0,0 -2.53,-2.53 -2.53,-2.53 -0.59,0.29 -1.2,0.54 -1.83,0.75 0,0 0,3.58 0,3.58 0,0 -1.25,1.25 -1.25,1.25 0,0 -7.44,0 -7.44,0 0,0 -1.25,-1.25 -1.25,-1.25 0,0 0,-3.58 0,-3.58 -0.63,-0.21 -1.24,-0.46 -1.83,-0.75 0,0 -2.53,2.53 -2.53,2.53 0,0 -1.77,0 -1.77,0 0,0 -5.26,-5.26 -5.26,-5.26 0,0 0,-1.77 0,-1.77 0,0 2.53,-2.53 2.53,-2.53 -0.29,-0.59 -0.54,-1.2 -0.76,-1.83 0,0 -3.58,0 -3.58,0 0,0 -1.25,-1.25 -1.25,-1.25 0,0 0,-7.43 0,-7.43 z m 2.5,6.19 c 0,0 3.26,0 3.26,0 0,0 1.2,0.92 1.2,0.92 0.29,1.06 0.71,2.07 1.25,3.01 0,0 -0.2,1.51 -0.2,1.51 0,0 -2.3,2.29 -2.3,2.29 0,0 3.5,3.5 3.5,3.5 0,0 2.29,-2.3 2.29,-2.3 0,0 1.51,-0.2 1.51,-0.2 0.94,0.54 1.95,0.96 3.02,1.24 0,0 0.92,1.21 0.92,1.21 0,0 0,3.25 0,3.25 0,0 4.94,0 4.94,0 0,0 0,-3.25 0,-3.25 0,0 0.92,-1.21 0.92,-1.21 1.06,-0.28 2.08,-0.7 3.02,-1.24 0,0 1.5,0.2 1.5,0.2 0,0 2.3,2.3 2.3,2.3 0,0 3.49,-3.5 3.49,-3.5 0,0 -2.29,-2.29 -2.29,-2.29 0,0 -0.2,-1.51 -0.2,-1.51 0.53,-0.94 0.95,-1.95 1.24,-3.01 0,0 1.21,-0.92 1.21,-0.92 0,0 3.25,0 3.25,0 0,0 0,-4.94 0,-4.94 0,0 -3.25,0 -3.25,0 0,0 -1.21,-0.92 -1.21,-0.92 -0.29,-1.07 -0.71,-2.08 -1.24,-3.02 0,0 0.2,-1.5 0.2,-1.5 0,0 2.29,-2.3 2.29,-2.3 0,0 -3.49,-3.49 -3.49,-3.49 0,0 -2.3,2.29 -2.3,2.29 0,0 -1.5,0.2 -1.5,0.2 -0.94,-0.53 -1.96,-0.95 -3.02,-1.24 0,0 -0.92,-1.21 -0.92,-1.21 0,0 0,-3.25 0,-3.25 0,0 -4.94,0 -4.94,0 0,0 0,3.25 0,3.25 0,0 -0.92,1.21 -0.92,1.21 -1.07,0.29 -2.08,0.71 -3.02,1.24 0,0 -1.51,-0.2 -1.51,-0.2 0,0 -2.29,-2.29 -2.29,-2.29 0,0 -3.5,3.49 -3.5,3.49 0,0 2.3,2.3 2.3,2.3 0,0 0.2,1.5 0.2,1.5 -0.54,0.94 -0.96,1.95 -1.25,3.02 0,0 -1.2,0.92 -1.2,0.92 0,0 -3.26,0 -3.26,0 0,0 0,4.94 0,4.94 z m 16.92,-9.19 c 3.7,0 6.72,3.01 6.72,6.72 0,3.7 -3.02,6.71 -6.72,6.71 -3.71,0 -6.72,-3.01 -6.72,-6.71 0,-3.71 3.01,-6.72 6.72,-6.72 z m 0,10.94 c 2.33,0 4.22,-1.9 4.22,-4.22 0,-2.33 -1.89,-4.22 -4.22,-4.22 -2.33,0 -4.22,1.89 -4.22,4.22 0,2.32 1.89,4.22 4.22,4.22 z m 25.03,32.44 c 0,0 -1.1,0.58 -1.1,0.58 0,0 -1.17,-2.21 -1.17,-2.21 0,0 1.11,-0.58 1.11,-0.58 1.19,-0.62 2.38,-1.24 3.57,-1.84 0,0 1.12,-0.56 1.12,-0.56 0,0 1.12,2.23 1.12,2.23 0,0 -1.11,0.56 -1.11,0.56 -1.19,0.6 -2.36,1.21 -3.54,1.82 z m -20.72,9.54 c 0,0 0,2.5 0,2.5 0,0 -21.41,0 -21.41,0 0,0 -1.25,-1.25 -1.25,-1.25 0,0 0,-15.66 0,-15.66 0,0 1.25,-1.25 1.25,-1.25 0,0 32,0 32,0 0,0 1.25,1.25 1.25,1.25 0,0 0,11.58 0,11.58 0,0 -0.54,0 -0.54,0 0,0 13.23,11.87 13.23,11.87 0,0 -0.59,2.16 -0.59,2.16 0,0 -3.92,0.77 -3.92,0.77 0,0 4.67,6.15 4.67,6.15 0,0 -0.3,1.79 -0.3,1.79 0,0 -4.65,3.13 -4.65,3.13 0,0 -1.78,-0.42 -1.78,-0.42 0,0 -4.28,-7.5 -4.28,-7.5 0,0 -3.26,3.26 -3.26,3.26 0,0 -2.11,-0.66 -2.11,-0.66 0,0 -4.19,-24.01 -4.19,-24.01 0,0 2.06,-1.14 2.06,-1.14 0,0 3.16,2.83 3.16,2.83 0,0 0,-8.56 0,-8.56 0,0 -29.5,0 -29.5,0 0,0 0,13.16 0,13.16 0,0 20.16,0 20.16,0 z m 7.2,-3.16 c 0,0 3.16,18.08 3.16,18.08 0,0 2.71,-2.73 2.71,-2.73 0,0 1.97,0.27 1.97,0.27 0,0 4.42,7.76 4.42,7.76 0,0 2.44,-1.64 2.44,-1.64 0,0 -5.08,-6.7 -5.08,-6.7 0,0 0.76,-1.98 0.76,-1.98 0,0 3.42,-0.67 3.42,-0.67 0,0 -13.8,-12.39 -13.8,-12.39 z m 56.95,33.48 c 0,0 0,12.49 0,12.49 0,0 -1.25,1.25 -1.25,1.25 0,0 -94.9,0 -94.9,0 0,0 0,-2.5 0,-2.5 0,0 93.65,0 93.65,0 0,0 0,-9.99 0,-9.99 0,0 -10.17,0 -10.17,0 0,0 -2.5,0 -2.5,0 0,0 -8.33,0 -8.33,0 0,0 -2.5,0 -2.5,0 0,0 -70.15,0 -70.15,0 0,0 0,-2.5 0,-2.5 0,0 70.15,0 70.15,0 0,0 0,-46.82 0,-46.82 -0.18,0.07 -0.37,0.15 -0.56,0.22 0,0 -1.15,0.49 -1.15,0.49 0,0 -0.97,-2.3 -0.97,-2.3 0,0 1.15,-0.49 1.15,-0.49 0.51,-0.21 1.02,-0.42 1.53,-0.63 0,0 0,-54.32 0,-54.32 0,0 -70.15,0 -70.15,0 0,0 0,-2.5 0,-2.5 0,0 71.4,0 71.4,0 0,0 1.25,1.25 1.25,1.25 0,0 0,54.55 0,54.55 1.11,-0.44 2.22,-0.88 3.32,-1.3 0,0 1.17,-0.45 1.17,-0.45 0,0 0.89,2.34 0.89,2.34 0,0 -1.17,0.44 -1.17,0.44 -1.4,0.54 -2.81,1.1 -4.21,1.66 0,0 0,47.86 0,47.86 0,0 8.33,0 8.33,0 0,0 0,-113.7 0,-113.7 0,0 -80.98,0 -80.98,0 0,0 0,-2.5 0,-2.5 0,0 82.23,0 82.23,0 0,0 1.25,1.25 1.25,1.25 0,0 0,114.95 0,114.95 0,0 11.42,0 11.42,0 0,0 1.25,1.25 1.25,1.25 z M 56.42,25.67 c 0,0 -2.44,0 -2.44,0 0,0 -1.61,-6.87 -1.61,-6.87 0,0 -6.87,-1.61 -6.87,-1.61 0,0 0,-2.43 0,-2.43 0,0 6.87,-1.62 6.87,-1.62 0,0 1.61,-6.87 1.61,-6.87 0,0 2.44,0 2.44,0 0,0 1.61,6.87 1.61,6.87 0,0 6.87,1.62 6.87,1.62 0,0 0,2.43 0,2.43 0,0 -6.87,1.61 -6.87,1.61 0,0 -1.61,6.87 -1.61,6.87 z M 56.7,15.4 c 0,0 -0.93,-0.93 -0.93,-0.93 0,0 -0.57,-2.44 -0.57,-2.44 0,0 -0.57,2.44 -0.57,2.44 0,0 -0.93,0.93 -0.93,0.93 0,0 -2.44,0.57 -2.44,0.57 0,0 2.44,0.58 2.44,0.58 0,0 0.93,0.93 0.93,0.93 0,0 0.57,2.44 0.57,2.44 0,0 0.57,-2.44 0.57,-2.44 0,0 0.93,-0.93 0.93,-0.93 0,0 2.45,-0.58 2.45,-0.58 0,0 -2.45,-0.57 -2.45,-0.57 z m 13.85,199.19 c 0,0 0.52,2.44 0.52,2.44 0,0 -1.22,0.26 -1.22,0.26 -1.29,0.28 -2.58,0.59 -3.83,0.92 0,0 -1.21,0.32 -1.21,0.32 0,0 -0.64,-2.42 -0.64,-2.42 0,0 1.21,-0.32 1.21,-0.32 1.29,-0.34 2.61,-0.65 3.94,-0.94 0,0 1.23,-0.26 1.23,-0.26 z m -12.46,3.48 c 0,0 0.9,2.33 0.9,2.33 0,0 -1.17,0.45 -1.17,0.45 -1.43,0.54 -2.86,1.14 -4.24,1.76 0,0 -1.15,0.51 -1.15,0.51 0,0 -1.02,-2.28 -1.02,-2.28 0,0 1.14,-0.51 1.14,-0.51 1.44,-0.64 2.91,-1.25 4.38,-1.81 0,0 1.16,-0.45 1.16,-0.45 z m -32.94,-26.4 c 0,0 2.08,1.39 2.08,1.39 0,0 -0.7,1.04 -0.7,1.04 -0.72,1.07 -1.43,2.19 -2.11,3.32 0,0 -0.65,1.07 -0.65,1.07 0,0 -2.14,-1.29 -2.14,-1.29 0,0 0.65,-1.07 0.65,-1.07 0.7,-1.16 1.43,-2.31 2.18,-3.42 0,0 0.69,-1.04 0.69,-1.04 z m -6.52,11.16 c 0,0 2.27,1.06 2.27,1.06 0,0 -0.53,1.13 -0.53,1.13 -0.64,1.38 -1.25,2.79 -1.82,4.21 0,0 -0.47,1.16 -0.47,1.16 0,0 -2.32,-0.92 -2.32,-0.92 0,0 0.47,-1.16 0.47,-1.16 0.58,-1.47 1.21,-2.93 1.88,-4.35 0,0 0.52,-1.13 0.52,-1.13 z m 71.51,31.73 c 0,0 0.41,1.18 0.41,1.18 0,0 -2.36,0.82 -2.36,0.82 0,0 -0.41,-1.18 -0.41,-1.18 -10.1,-28.98 -37.52,-48.44 -68.23,-48.44 -6.78,0 -13.33,0.95 -19.55,2.7 0,0 0,-2.59 0,-2.59 6.23,-1.69 12.78,-2.61 19.55,-2.61 31.77,0 60.14,20.14 70.59,50.12 z m -74.07,-1.91 c 0,-2.04 1.65,-3.69 3.69,-3.69 2.04,0 3.69,1.65 3.69,3.69 0,2.04 -1.65,3.69 -3.69,3.69 -2.04,0 -3.69,-1.65 -3.69,-3.69 z m 23.88,49.87 c 0,2.04 -1.66,3.69 -3.69,3.69 -2.04,0 -3.69,-1.65 -3.69,-3.69 0,-2.04 1.65,-3.69 3.69,-3.69 2.03,0 3.69,1.65 3.69,3.69 z m -20.4,-43.78 c 11.25,0 20.4,9.15 20.4,20.4 0,11.24 -9.15,20.39 -20.4,20.39 -9.23,0 -17.03,-6.15 -19.55,-14.56 0,0 0,-11.66 0,-11.66 2.52,-8.41 10.32,-14.57 19.55,-14.57 z m 0,38.3 c 9.87,0 17.9,-8.03 17.9,-17.9 0,-9.87 -8.03,-17.9 -17.9,-17.9 -9.88,0 -17.91,8.03 -17.91,17.9 0,9.87 8.03,17.9 17.91,17.9 z m -16.26,1.79 c 2.04,0 3.69,1.65 3.69,3.69 0,2.04 -1.65,3.69 -3.69,3.69 -1.45,0 -2.68,-0.84 -3.29,-2.05 0,0 0,-3.28 0,-3.28 0.61,-1.21 1.84,-2.05 3.29,-2.05 z m 138.11,7.72 c 0,0 5.81,0 5.81,0 0,0 19.94,0 19.94,0 0,0 1.25,1.25 1.25,1.25 0,0 0,11.2 0,11.2 0,0 -2.5,0 -2.5,0 0,0 0,-9.95 0,-9.95 0,0 -18.69,0 -18.69,0 0,0 -5.81,0 -5.81,0 0,0 -18.68,0 -18.68,0 0,0 0,9.95 0,9.95 0,0 -2.5,0 -2.5,0 0,0 0,-11.2 0,-11.2 0,0 1.25,-1.25 1.25,-1.25 0,0 19.93,0 19.93,0 z"
     fillRule="evenodd" />
</svg>
