<?xml version="1.0" encoding="utf-8"?>
<svg xmlns="http://www.w3.org/2000/svg"
	xmlns:xlink="http://www.w3.org/1999/xlink"
	width="55px" height="79px" viewBox="0 0 55 79">
<path fillRule="evenodd" d="M 54.37 51.36C 54.31 51.44 54.28 51.55 54.29 51.66 55.6 59.61 54.8 64.46 54.28 66.89 54.14 67.56 53.97 68.77 53.97 68.77 53.89 69.99 53 70.75 51.67 71.05 51.25 71.22 49.42 71.45 47.93 71.64 43.05 76.36 35.89 79 28.18 79 19.72 79 12.21 76.45 7.57 71.34 6.2 70.94 4.82 70.3 4.46 69.23 3.24 65.62 2.56 58.68 2.19 54.69 2.17 54.52 2.04 54.39 1.86 54.37 1.19 54.27 0.56 54.01 0.01 53.6 0.01 53.6 0.12 53.45 0.12 53.45 0.12 53.43 0.11 53.41 0.11 53.4 0.06 41.33 1.89 35.92 3.27 34.84 8.05 32.34 12.64 31.35 16.98 28.37 17.52 28 17.85 27.39 17.87 26.73 17.92 23.88 17.9 21.5 17.93 20.8 17.95 20.32 17.52 20.66 17.13 20.46 17.08 20.44 17.03 20.39 17 20.34 16.83 20.07 16.81 19.78 16.78 19.33 16.78 19.27 16.76 19.21 16.72 19.16 16.45 18.74 15.18 16.7 15.27 14.73 15.48 13.78 16.21 13.55 16.39 13.6 16.39 13.6 16.93 13.73 16.93 13.73 16.93 13.73 16.26 10.31 16.68 5.96 16.75 4.77 18.11 0.78 25.93-0.01 25.96-0.01 25.99-0.01 26.02-0.01 32.17 0.74 34.42 4.38 34.98 5.1 35.32 5.68 35.52 9.3 35.06 14.21 35.05 14.33 35.1 14.45 35.2 14.53 35.79 15.04 36.03 15.67 35.99 16.32 35.98 16.38 35.97 16.44 35.96 16.5 35.96 16.5 35.48 18.24 35.48 18.24 35.47 18.27 35.46 18.31 35.45 18.35 35.45 18.35 35.22 19.69 35.22 19.69 35.16 19.84 35.32 19.94 35.15 20 35.03 20.05 34.62 20.16 34.59 20.29 34.14 22.47 32.85 24.06 32.43 26.17 32.42 26.23 32.42 26.29 32.44 26.34 32.44 26.34 33.24 29.65 33.24 29.65 33.57 31.08 47.91 33.07 48.69 34.35 52.14 37.21 53.21 41.91 54.11 46.52 54.18 46.87 54.67 49.45 54.87 50.37 54.89 50.41 54.91 50.46 54.92 50.5 54.92 50.5 54.99 50.59 54.37 51.36ZM 7.89 38.39C 7.65 38.31 7.58 38.55 7.67 38.78 8.24 40.2 9.23 41.53 8.23 43.74 8.55 45 10.25 43.83 10.25 44.89 10.25 45.95 7.44 46.18 7.79 48.56 12.28 47.82 13.91 48.74 14.55 49.54 14.11 47.69 14.76 48.01 14.44 47.1 14.15 46.25 13.22 45.36 12.9 44.19 11.99 40.82 10.26 39.2 7.89 38.39ZM 17.91 40.1C 17.02 37.46 15.77 34.94 14.19 32.65 14.09 32.51 13.91 32.46 13.75 32.52 13.36 32.67 12.67 32.94 11.99 33.2 11.77 33.28 11.69 33.55 11.82 33.75 13.23 35.94 14.33 38.28 15.13 40.74 15.19 40.92 15.37 41.02 15.55 40.99 16.11 40.88 16.96 40.71 17.62 40.58 17.84 40.54 17.98 40.31 17.91 40.1ZM 19.37 43.5C 19.37 43.5 15.58 44.21 15.58 44.21 15.58 44.21 16.33 45.98 16.33 45.98 16.33 45.98 17.43 45.99 17.43 45.99 17.43 45.99 17.9 46.77 17.9 46.77 17.9 46.77 19.14 46.47 19.14 46.47 19.14 46.47 19.03 45.63 19.03 45.63 19.03 45.63 19.84 45.29 19.84 45.29 19.84 45.29 19.37 43.5 19.37 43.5ZM 33.74 16.45C 33.76 15.7 33.59 14.52 33.55 14.27 33.55 14.24 33.55 14.21 33.55 14.18 33.58 13.88 33.78 12.14 33.68 11.47 33.67 11.39 33.64 11.33 33.61 11.27 33.59 10.87 33.57 10.58 33.57 10.45 33.57 10.41 33.56 10.37 33.54 10.33 33.01 9.16 32.94 8.42 32.86 7.79 32.84 7.62 32.81 7.48 32.78 7.38 32.77 7.35 32.75 7.32 32.73 7.29 31.26 5.25 28.79 6.79 27.19 6.85 25.27 6.92 23.9 5.88 22.77 5.96 18.15 6.28 20.44 11.21 20.39 11.24 20.39 11.24 20.47 12.53 20.47 12.53 20.47 12.9 20.43 13.25 20.39 13.57 20.55 13.15 20.86 12.75 21.21 12.57 22.33 11.98 24.09 11.51 26.08 11.78 26.4 11.82 26.85 11.85 27.01 12.43 27.6 15.74 26.94 16.86 27.75 18.05 28.04 18.47 28.42 18.26 28.54 18.47 28.63 18.93 27.4 18.6 27.34 19.12 27.27 19.7 26.21 19.48 25.94 19.43 25.94 19.43 24.87 18.77 24.87 18.77 24.87 18.77 24.83 18.43 24.83 18.43 24.8 18.11 25 17.96 25.28 17.79 25.5 17.65 25.84 17.27 25.89 16.93 25.89 16.93 26.07 14.4 25.82 14.59 25.56 14.78 25.24 15.2 24.91 15.16 23.41 14.97 21.85 15.02 21.55 15.03 21.8 14.71 21.15 14.11 20.32 14.01 20.15 14.9 19.91 15.46 19.91 15.46 19.93 15.51 20.81 16.67 20.81 17.29 20.81 17.37 20.79 17.44 20.76 17.5 20.76 17.5 20.38 18.14 20.38 18.14 20.34 18.22 20.32 18.3 20.33 18.39 20.33 18.39 20.57 20.04 20.57 20.04 20.58 20.07 20.58 20.1 20.59 20.12 21.69 23.21 22.18 22 25.55 26.15 25.58 26.19 25.62 26.23 25.67 26.26 26.85 26.87 28.96 26.4 29.35 26.3 29.4 26.29 29.44 26.28 29.47 26.25 30.1 25.81 30.75 25.39 31.04 24.1 31.05 24.09 31.05 24.07 31.06 24.05 32.99 19.69 33.81 16.64 33.74 16.45ZM 26.41 30.22C 26.41 30.22 25.95 33.24 25.76 33.51 25.52 33.87 23.4 33.52 23.09 33.46 23.06 33.46 23.03 33.46 23 33.46 21.59 33.49 20.45 34.64 20.42 35.98 20.42 36.11 20.5 36.24 20.62 36.3 22.56 37.37 24.75 37.97 26.98 37.93 30.8 37.87 30.16 36.85 31.85 35.34 32.25 34.98 32.29 33.7 32.15 33.18 31.65 31.3 30.87 27.77 30.32 27.98 28.46 28.96 25.97 27.82 26.1 29.08 26.1 29.08 26.1 29.09 26.1 29.09 26.3 29.51 26.49 29.77 26.41 30.22ZM 29.18 40.08C 29.18 40.08 23.18 44.36 22.7 44.71 22.7 44.71 25.59 52.41 25.59 52.41 25.59 52.41 32 55.8 32 55.8 32 55.8 36.17 52.11 36.17 52.11 36.17 52.11 37.95 44.01 37.93 43.97 37.93 43.97 29.18 40.08 29.18 40.08ZM 40.75 33.56C 40.68 33.41 40.61 33.3 40.56 33.22 39.85 33.11 38.98 33.01 38.52 32.96 38.24 32.94 38.04 33.15 38.14 33.41 38.55 34.47 39.2 35.62 39.53 36.7 39.73 37.28 39.95 37.92 40.16 38.65 40.21 38.82 40.37 38.93 40.55 38.92 40.93 38.89 41.33 38.88 41.69 38.88 41.92 38.88 42.1 38.67 42.05 38.44 41.72 36.78 41.29 35.15 40.75 33.56ZM 43.48 42.32C 43.39 41.97 43.06 41.75 42.7 41.8 42.7 41.8 40.81 42.1 40.81 42.1 40.49 42.14 40.27 42.44 40.31 42.76 40.31 42.76 40.47 43.92 40.47 43.92 40.47 43.92 41.39 43.76 41.39 43.76 41.39 43.76 41.92 44.71 41.92 44.71 41.92 44.71 43.06 44.42 43.06 44.42 43.06 44.42 42.93 43.82 42.93 43.82 42.93 43.82 43.7 43.24 43.7 43.24 43.7 43.24 43.48 42.32 43.48 42.32ZM 41.91 57.28C 41.91 57.28 33.39 59.82 26.41 60.38 20.15 60.87 20.12 61.18 18.72 61.46 15.49 62.09 11.35 64.74 11.74 63.72 11.44 63.91 11.72 62.53 12.66 61.35 13.52 60.28 14.72 55.45 13.97 52.51 13.94 52.37 13.79 52.23 13.66 52.19 12.39 51.86 12.05 51.68 10.7 51.68 8.93 51.68 7.91 51.77 6.28 52.34 5.43 54.95 7.1 63.42 8.03 66.93 8.43 67.83 10.33 69.18 10.32 69.16 12.61 69.11 15.42 69.73 18.11 69.59 25.37 69.19 29.32 66.5 33.77 64.76 34.44 64.5 34.69 64.85 34.2 65.34 33.19 66.35 32.79 67.41 30.42 68.36 29.25 68.83 29.77 69.66 30.63 69.23 35.51 66.8 39.61 63.44 42.88 62.41 43.82 62.11 44.33 60.66 44.37 60.38 44.62 58.34 42.8 57.12 41.91 57.28ZM 51.32 44.76C 51.31 44.72 49.65 39.24 49.64 39.21 47.83 36.25 45.95 35.61 44.36 35.21 43.72 35.05 45.49 38.39 45.98 40.72 46.42 39.99 46.95 39.57 47.52 39.76 47.54 40.27 47.32 41.34 47.01 42.51 46.95 42.74 47.23 42.91 47.4 42.74 48.08 42.07 48.7 41.82 48.96 42.41 48.86 42.83 48.39 43.68 47.9 44.53 47.58 45.08 47.78 45.64 48.22 45.53 48.7 45.4 49 45.33 49.28 45.3 49.42 46.07 49.21 46.81 48.81 47.44 48.66 47.69 48.91 47.97 49.16 47.84 50.65 47.07 51.68 45.86 51.32 44.76ZM 51.98 51.35C 51.95 51.22 51.86 51.11 51.74 51.06 50.53 50.6 48.39 50.38 44.93 51.35 44.67 51.42 44.57 51.74 44.74 51.94 45.8 53.27 47.42 60.66 48.94 61.11 49.93 61.69 49.41 62.16 48.66 62.38 46.56 62.99 38.73 66.4 35.38 68.72 35.13 68.89 35.18 69.27 35.47 69.37 35.64 69.44 35.84 69.49 36.04 69.55 38.17 69.04 47.04 67 51.42 64.3 51.9 64.01 51.95 64.36 51.91 65.5 51.88 66.05 50.97 67.11 50.2 67.46 49.14 67.94 47.97 68.49 46.51 68.97 45.17 69.41 44.98 69.8 46.52 69.52 49.28 69.03 51.52 68.33 52.2 68 52.31 67.95 52.39 67.85 52.41 67.73 52.6 66.55 53.34 59.22 51.98 51.35ZM 35.75 51.7C 35.75 51.7 32.85 51.91 32.85 51.91 32.85 51.91 32.58 48.19 32.26 47.93 32.19 47.88 30.5 48.03 30.45 48.09 30.17 48.39 30.62 52 30.62 52 30.62 52 27.65 52.43 27.65 52.43 27.55 52.44 27.48 52.34 27.5 52.24 27.5 52.24 28.56 45.85 28.56 45.85 28.56 45.85 27.89 45.34 27.89 45.34 27.89 45.34 28.41 43.5 28.41 43.5 28.41 43.5 32.02 43.31 32.02 43.31 32.02 43.31 35.86 51.25 35.86 51.25 35.9 51.35 35.84 51.69 35.75 51.7ZM 28.74 14.67C 27.8 14.06 28.19 12.54 28.28 12.29 28.3 12.26 28.31 12.23 28.33 12.2 28.93 11.37 31.46 11.81 32.81 12.16 33.07 12.23 33.18 12.57 32.99 12.76 32.83 12.93 32.34 14.51 32.04 14.64 30.88 15.15 29.37 15.08 28.74 14.67ZM 30.15 20.52C 30.16 20.49 30.2 20.48 30.23 20.48 30.36 20.46 30.51 20.44 30.62 20.51 30.82 20.64 30.79 20.94 30.72 21.17 30.69 21.26 30.6 21.59 30.51 21.54 30.48 21.85 29.14 22.52 27.74 22.64 27.85 23.45 27.96 24.51 27.75 24.51 26.49 23.73 25.61 23.55 25.44 23.38 25.44 22.95 25.38 22.26 23.83 21.34 23.67 21.28 23.51 21.22 23.35 21.17 22.73 20.97 26.71 19.56 26.74 20.2 26.77 21.1 27.1 21.12 27.96 21.12 28.79 21.12 30.19 20.64 30.13 20.6 30.16 20.59 30.14 20.55 30.15 20.52Z" fill="rgb(41,53,62)"/></svg>