<svg xmlns="http://www.w3.org/2000/svg" width="52" height="52" viewBox="0 0 52 52"><path d="M 26.01 52C 11.67 52 0.01 40.34 0.01 26 0.01 11.66 11.67 0 26.01 0 40.35 0 52.01 11.66 52.01 26 52.01 40.34 40.35 52 26.01 52ZM 26.01 2.2C 12.88 2.2 2.2 12.88 2.2 26 2.2 39.13 12.88 49.8 26.01 49.8 39.14 49.8 49.81 39.13 49.81 26 49.81 12.88 39.14 2.2 26.01 2.2ZM 27.18 36.48C 27.18 36.48 17.94 27.24 17.94 27.24 17.94 27.24 17.94 25.68 17.94 25.68 17.94 25.68 27.18 16.44 27.18 16.44 27.18 16.44 28.74 18 28.74 18 28.74 18 20.27 26.46 20.27 26.46 20.27 26.46 28.74 34.92 28.74 34.92 28.74 34.92 27.18 36.48 27.18 36.48Z" fill="#83939C"/></svg>