<svg xmlns="http://www.w3.org/2000/svg" width="50" height="50" viewBox="0 0 25 25"><path d="M 21.59 24.25C 21.59 24.25 20.6 25.01 20.6 25.01 20.6 25.01 4.39 25.01 4.39 25.01 4.39 25.01 3.4 24.25 3.4 24.25 3.4 24.25-0 11.48-0 11.48-0 11.48 0.99 10.19 0.99 10.19 0.99 10.19 24.01 10.19 24.01 10.19 24.01 10.19 25 11.48 25 11.48 25 11.48 21.59 24.25 21.59 24.25ZM 2.32 12.23C 2.32 12.23 5.18 22.97 5.18 22.97 5.18 22.97 19.82 22.97 19.82 22.97 19.82 22.97 22.68 12.23 22.68 12.23 22.68 12.23 2.32 12.23 2.32 12.23ZM 15.98 19.95C 15.98 19.95 8.9 19.95 8.9 19.95 8.9 19.95 7.9 19.13 7.9 19.13 7.9 19.13 6.75 13.62 6.75 13.62 6.75 13.62 8.75 13.2 8.75 13.2 8.75 13.2 9.73 17.91 9.73 17.91 9.73 17.91 15.15 17.91 15.15 17.91 15.15 17.91 16.13 13.2 16.13 13.2 16.13 13.2 18.14 13.62 18.14 13.62 18.14 13.62 16.98 19.13 16.98 19.13 16.98 19.13 15.98 19.95 15.98 19.95ZM 11.77 8.47C 11.77 8.47 8.03 4.74 8.03 4.74 8.03 4.74 9.48 3.3 9.48 3.3 9.48 3.3 11.47 5.28 11.47 5.28 11.47 5.28 11.47 0 11.47 0 11.47 0 13.52 0 13.52 0 13.52 0 13.52 5.28 13.52 5.28 13.52 5.28 15.52 3.3 15.52 3.3 15.52 3.3 16.96 4.74 16.96 4.74 16.96 4.74 13.22 8.47 13.22 8.47 13.22 8.47 11.77 8.47 11.77 8.47Z" fill="#C63730"/></svg>