<svg xmlns="http://www.w3.org/2000/svg" width="59" height="55" viewBox="0 0 59 55"><path d="M 48.65 55C 48.65 55 9.86 55 9.86 55 9.86 55 8.69 54.1 8.69 54.1 8.69 54.1 2.26 30.62 2.26 30.62 2.26 30.62-0 30.62-0 30.62-0 30.62-0 27.25-0 27.25-0 27.25 59 27.25 59 27.25 59 27.25 59 30.62 59 30.62 59 30.62 56.06 30.62 56.06 30.62 56.06 30.62 49.82 54.09 49.82 54.09 49.82 54.09 48.65 55 48.65 55ZM 11.47 51.63C 11.47 51.63 47.03 51.63 47.03 51.63 47.03 51.63 52.6 30.62 52.6 30.62 52.6 30.62 47.65 30.62 47.65 30.62 47.65 30.62 43.16 47.81 43.16 47.81 43.16 47.81 39.93 46.95 39.93 46.95 39.93 46.95 44.2 30.62 44.2 30.62 44.2 30.62 36.68 30.62 36.68 30.62 36.68 30.62 35.2 47.58 35.2 47.58 35.2 47.58 31.88 47.28 31.88 47.28 31.88 47.28 33.33 30.62 33.33 30.62 33.33 30.62 25.75 30.62 25.75 30.62 25.75 30.62 27.2 47.28 27.2 47.28 27.2 47.28 23.88 47.58 23.88 47.58 23.88 47.58 22.41 30.62 22.41 30.62 22.41 30.62 14.88 30.62 14.88 30.62 14.88 30.62 19.15 46.95 19.15 46.95 19.15 46.95 15.92 47.81 15.92 47.81 15.92 47.81 11.43 30.62 11.43 30.62 11.43 30.62 5.72 30.62 5.72 30.62 5.72 30.62 11.47 51.63 11.47 51.63ZM 59 24.57C 59 24.57-0 24.57-0 24.57-0 24.57-0 21.2-0 21.2-0 21.2 59 21.2 59 21.2 59 21.2 59 24.57 59 24.57ZM 14.83 21.02C 14.83 21.02 12.47 18.63 12.47 18.63 12.47 18.63 24.24 6.73 24.24 6.73 24.11 6.26 24.04 5.77 24.04 5.27 24.04 2.37 26.38-0 29.26-0 32.13-0 34.47 2.37 34.47 5.27 34.47 5.77 34.4 6.26 34.27 6.73 34.27 6.73 46.04 18.63 46.04 18.63 46.04 18.63 43.69 21.02 43.69 21.02 43.69 21.02 32.32 9.53 32.32 9.53 31.44 10.19 30.36 10.55 29.26 10.55 28.15 10.55 27.08 10.19 26.19 9.53 26.19 9.53 14.83 21.02 14.83 21.02ZM 29.26 3.37C 28.22 3.37 27.37 4.22 27.37 5.27 27.37 6.32 28.22 7.18 29.26 7.18 30.29 7.18 31.14 6.32 31.14 5.27 31.14 4.22 30.29 3.37 29.26 3.37Z" fill="#C5372F"/></svg>