<svg xmlns="http://www.w3.org/2000/svg" width="11" height="22" viewBox="0 0 11 22"><path d="M 2.34 22C 2.34 20.68 2.34 15.66 2.34 11.39 2.34 11.39 0.19 11.39 0.19 11.39 0.19 11.39 0.19 7.52 0.19 7.52 0.19 7.52 2.34 7.52 2.34 7.52 2.34 7.52 2.34 5.02 2.34 5.02 2.34 3.23 3.19 0.43 6.9 0.43 6.9 0.43 10.24 0.44 10.24 0.44 10.24 0.44 10.24 4.19 10.24 4.19 10.24 4.19 8.21 4.19 7.81 4.19 7.42 4.19 6.86 4.39 6.86 5.25 6.86 5.25 6.86 7.52 6.86 7.52 6.86 7.52 10.3 7.52 10.3 7.52 10.3 7.52 9.9 11.39 9.9 11.39 9.9 11.39 6.86 11.39 6.86 11.39 6.86 15.61 6.86 20.67 6.86 22" fill="#EBEFF0"/></svg>