<svg xmlns="http://www.w3.org/2000/svg" width="104" height="104" viewBox="0 0 52 52"><path d="M 26 52C 11.67 52 0.01 40.34 0.01 26 0.01 11.66 11.67-0 26-0 40.33-0 51.99 11.66 51.99 26 51.99 40.34 40.33 52 26 52ZM 26 2.2C 12.88 2.2 2.21 12.87 2.21 26 2.21 39.12 12.88 49.8 26 49.8 39.12 49.8 49.8 39.12 49.8 26 49.8 12.87 39.12 2.2 26 2.2ZM 23.28 34C 23.28 34 31.74 25.54 31.74 25.54 31.74 25.54 23.28 17.07 23.28 17.07 23.28 17.07 24.83 15.52 24.83 15.52 24.83 15.52 34.07 24.76 34.07 24.76 34.07 24.76 34.07 26.31 34.07 26.31 34.07 26.31 24.83 35.55 24.83 35.55 24.83 35.55 23.28 34 23.28 34Z" fill="#E7EBEF"/></svg>