<svg xmlns="http://www.w3.org/2000/svg" width="104" height="104" viewBox="0 0 52 52"><path d="M 26 52C 11.67 52 0.01 40.34 0.01 26 0.01 11.66 11.67 0 26 0 40.33 0 51.99 11.66 51.99 26 51.99 40.34 40.33 52 26 52ZM 26 2.2C 12.88 2.2 2.2 12.88 2.2 26 2.2 39.13 12.88 49.8 26 49.8 39.12 49.8 49.79 39.13 49.79 26 49.79 12.88 39.12 2.2 26 2.2ZM 27.17 36.48C 27.17 36.48 17.93 27.24 17.93 27.24 17.93 27.24 17.93 25.68 17.93 25.68 17.93 25.68 27.17 16.45 27.17 16.45 27.17 16.45 28.72 18 28.72 18 28.72 18 20.26 26.46 20.26 26.46 20.26 26.46 28.72 34.93 28.72 34.93 28.72 34.93 27.17 36.48 27.17 36.48Z" fill="#E7EBEF"/></svg>