<svg xmlns="http://www.w3.org/2000/svg" width="68" height="68" viewBox="0 0 34 34"><path d="M 33.53 9.4C 33.53 9.4 17.57 0 17.57 0 17.57 0 16.53-0 16.53-0 16.53-0 0.48 9.26 0.48 9.26 0.48 9.26-0 10.63-0 10.63-0 10.63 5.78 25.98 5.78 25.98 5.78 25.98 6.15 26.47 6.15 26.47 6.15 26.47 16.27 33.99 16.27 33.99 16.27 33.99 17.5 34 17.5 34 17.5 34 27.7 26.57 27.7 26.57 27.7 26.57 28.07 26.08 28.07 26.08 28.07 26.08 34 10.78 34 10.78 34 10.78 33.53 9.4 33.53 9.4ZM 16.9 31.73C 16.9 31.73 8.73 25.66 8.73 25.66 8.73 25.66 15.45 25.66 15.45 25.66 15.45 25.66 15.46 22.27 15.46 22.27 15.46 21.48 15.14 20.74 14.61 20.19 14 19.56 13.62 18.69 13.62 17.73 13.62 16.67 14.08 15.72 14.81 15.08 14.96 14.95 15.18 15.07 15.18 15.26 15.18 15.26 15.17 17.38 15.17 17.38 15.16 17.68 15.33 17.94 15.58 18.07 15.58 18.07 16.64 18.59 16.64 18.59 16.84 18.69 17.07 18.69 17.27 18.6 17.27 18.6 18.31 18.08 18.31 18.08 18.57 17.96 18.73 17.69 18.74 17.4 18.74 17.4 18.75 15.28 18.75 15.28 18.75 15.08 18.97 14.97 19.11 15.1 19.83 15.74 20.29 16.69 20.28 17.75 20.28 18.72 19.89 19.59 19.27 20.21 18.73 20.77 18.4 21.51 18.39 22.3 18.39 22.3 18.39 25.66 18.39 25.66 18.39 25.66 25.23 25.66 25.23 25.66 25.23 25.66 16.9 31.73 16.9 31.73ZM 26.56 24.03C 26.56 24.03 21.02 6.6 21.02 6.6 20.53 6.25 20.18 6 19.69 5.65 19.69 5.65 13.08 5.65 13.08 5.65 12.61 5.97 12.26 6.2 11.78 6.52 11.78 6.52 10.51 9.72 10.51 9.72 10.51 9.72 14.03 9.72 14.03 9.72 14.03 9.72 11.97 10.97 11.97 10.97 11.97 10.97 7.33 24.01 7.33 24.01 7.33 24.01 2.33 10.73 2.33 10.73 2.33 10.73 17.04 2.24 17.04 2.24 17.04 2.24 31.67 10.86 31.67 10.86 31.67 10.86 26.56 24.03 26.56 24.03Z" fill="#1D323C"/></svg>