<svg xmlns="http://www.w3.org/2000/svg" width="34" height="31" viewBox="0 0 34 31"><path d="M 32.45 13.51C 32.45 13.51 21.28 13.51 21.28 13.51 21.28 13.51 21.28 10.47 21.28 10.47 21.28 10.47 28.69 10.47 28.69 10.47 26.67 6.05 22.12 3.04 17.01 3.04 12.17 3.04 7.8 5.66 5.6 9.88 5.6 9.88 2.83 8.5 2.83 8.5 5.56 3.25 10.99-0.01 17.01-0.01 22.86-0.01 28.13 3.18 30.89 7.98 30.89 7.98 30.89 1.08 30.89 1.08 30.89 1.08 34 1.08 34 1.08 34 1.08 34 11.99 34 11.99 34 11.99 32.45 13.51 32.45 13.51ZM 12.73 20.52C 12.73 20.52 5.32 20.52 5.32 20.52 7.34 24.94 11.89 27.95 17 27.95 21.84 27.95 26.21 25.33 28.41 21.11 28.41 21.11 31.18 22.49 31.18 22.49 28.45 27.74 23.02 31 17 31 11.15 31 5.88 27.81 3.12 23.01 3.12 23.01 3.12 29.91 3.12 29.91 3.12 29.91 0.01 29.91 0.01 29.91 0.01 29.91 0.01 19 0.01 19 0.01 19 1.57 17.47 1.57 17.47 1.57 17.47 12.73 17.47 12.73 17.47 12.73 17.47 12.73 20.52 12.73 20.52Z" fill="#FFF"/></svg>