<svg xmlns="http://www.w3.org/2000/svg" width="24" height="24" viewBox="0 0 12 12"><path d="M 11.97 10.56C 11.97 10.56 10.55 11.98 10.55 11.98 10.55 11.98 5.97 7.41 5.97 7.41 5.97 7.41 1.4 11.98 1.4 11.98 1.4 11.98-0.02 10.56-0.02 10.56-0.02 10.56 4.55 5.99 4.55 5.99 4.55 5.99-0.02 1.42-0.02 1.42-0.02 1.42 1.4-0.01 1.4-0.01 1.4-0.01 5.97 4.57 5.97 4.57 5.97 4.57 10.55-0.01 10.55-0.01 10.55-0.01 11.97 1.42 11.97 1.42 11.97 1.42 7.4 5.99 7.4 5.99 7.4 5.99 11.97 10.56 11.97 10.56Z" fill="#AB3A33"/></svg>