<svg xmlns="http://www.w3.org/2000/svg" width="260" height="482" viewBox="0 0 130 241"><path d="M 117.09 225.02C 117.09 225.02 124.63 232.52 124.63 232.52 125.57 233.46 126.09 234.71 126.09 236.03 126.09 237.36 125.57 238.61 124.63 239.55 123.66 240.51 122.38 241 121.1 241 119.82 241 118.55 240.51 117.58 239.55 117.58 239.55 109.16 231.16 109.16 231.16 102.68 235.06 95.09 237.31 86.98 237.31 78.88 237.31 71.31 235.04 64.83 231.14 64.83 231.14 56.39 239.55 56.39 239.55 55.42 240.51 54.14 241 52.87 241 51.59 241 50.31 240.51 49.34 239.55 47.4 237.61 47.4 234.46 49.34 232.52 49.34 232.52 56.89 225.01 56.89 225.01 54.53 222.7 52.43 220.14 50.65 217.35 50.65 217.35-0 217.35-0 217.35-0 217.35-0 213.63-0 213.63-0 213.63 48.53 213.63 48.53 213.63 45.62 207.86 43.97 201.36 43.97 194.48 43.97 175.36 56.62 159.14 74.01 153.65 74.58 146.72 80.41 141.26 87.51 141.26 94.74 141.26 100.64 146.91 101.03 154.01 117.87 159.82 130 175.76 130 194.48 130 206.43 125.05 217.25 117.09 225.02ZM 120.22 236.91C 120.69 237.38 121.51 237.38 121.98 236.91 122.22 236.68 122.35 236.37 122.35 236.03 122.35 235.7 122.22 235.39 121.98 235.16 121.98 235.16 114.32 227.52 114.32 227.52 113.67 228.05 113 228.56 112.33 229.05 112.33 229.05 120.22 236.91 120.22 236.91ZM 51.98 235.16C 51.75 235.39 51.62 235.7 51.62 236.03 51.62 236.37 51.75 236.68 51.98 236.91 52.45 237.38 53.28 237.38 53.75 236.91 53.75 236.91 61.65 229.05 61.65 229.05 60.97 228.56 60.31 228.04 59.66 227.51 59.66 227.51 51.98 235.16 51.98 235.16ZM 87.51 144.98C 82.84 144.98 78.93 148.25 77.94 152.61 80.86 151.99 83.88 151.65 86.98 151.65 90.48 151.65 93.88 152.08 97.14 152.87 96.26 148.38 92.28 144.98 87.51 144.98ZM 86.98 155.38C 83.78 155.38 80.68 155.77 77.7 156.49 77.7 156.49 77.7 156.62 77.7 156.62 77.7 156.62 77.14 156.62 77.14 156.62 60.23 160.98 47.71 176.3 47.71 194.48 47.71 216.04 65.33 233.58 86.98 233.58 108.64 233.58 126.26 216.04 126.26 194.48 126.26 172.92 108.64 155.38 86.98 155.38ZM 86.98 227.99C 68.42 227.99 53.32 212.96 53.32 194.48 53.32 176 68.42 160.96 86.98 160.96 105.55 160.96 120.65 176 120.65 194.48 120.65 212.96 105.55 227.99 86.98 227.99ZM 88.94 164.76C 88.94 164.76 88.94 172.73 88.94 172.73 88.94 172.73 85.2 172.73 85.2 172.73 85.2 172.73 85.2 164.74 85.2 164.74 70.37 165.62 58.42 177.29 57.18 191.96 57.18 191.96 65.89 191.96 65.89 191.96 65.89 191.96 65.89 195.68 65.89 195.68 65.89 195.68 57.09 195.68 57.09 195.68 57.71 210.96 69.93 223.31 85.2 224.21 85.2 224.21 85.2 214.91 85.2 214.91 85.2 214.91 88.94 214.91 88.94 214.91 88.94 214.91 88.94 224.2 88.94 224.2 104.13 223.22 116.27 210.9 116.88 195.68 116.88 195.68 108.25 195.68 108.25 195.68 108.25 195.68 108.25 191.96 108.25 191.96 108.25 191.96 116.79 191.96 116.79 191.96 115.56 177.35 103.69 165.71 88.94 164.76ZM 89.56 195.02C 89.56 195.02 86.43 197.05 86.43 197.05 86.43 197.05 73.5 177.25 73.5 177.25 73.5 177.25 76.63 175.22 76.63 175.22 76.63 175.22 87.5 191.87 87.5 191.87 87.5 191.87 96.33 185.86 96.33 185.86 96.33 185.86 98.44 188.94 98.44 188.94 98.44 188.94 89.54 194.99 89.54 194.99 89.54 194.99 89.56 195.02 89.56 195.02ZM 94.81 26.1C 94.81 26.1 85.45 26.1 85.45 26.1 85.45 26.1 85.45 136.57 85.45 136.57 85.45 136.57 81.71 136.57 81.71 136.57 81.71 136.57 81.71 26.1 81.71 26.1 81.71 26.1 81.09 26.1 81.09 26.1 81.09 26.1 52.72 26.1 52.72 26.1 52.72 26.1 52.72 22.38 52.72 22.38 52.72 22.38 81.09 22.38 81.09 22.38 81.09 22.38 83.58 22.38 83.58 22.38 83.58 22.38 96.68 22.38 96.68 22.38 96.68 22.38 98.55 24.24 98.55 24.24 98.55 24.24 98.55 137.81 98.55 137.81 98.55 137.81 94.81 137.81 94.81 137.81 94.81 137.81 94.81 26.1 94.81 26.1ZM 25.37 11.37C 25.37 13.5 23.62 15.24 21.47 15.24 19.32 15.24 17.58 13.5 17.58 11.37 17.58 9.23 19.32 7.49 21.47 7.49 23.62 7.49 25.37 9.23 25.37 11.37ZM 21.32 11.37C 21.32 11.54 21.63 11.54 21.63 11.37 21.63 11.28 21.56 11.21 21.47 11.21 21.38 11.21 21.32 11.28 21.32 11.37ZM 39.47 41.25C 39.47 41.25 3.47 41.25 3.47 41.25 2.25 41.25 1.08 41.01-0 40.59-0 40.59-0 36.36-0 36.36 0.97 37.08 2.17 37.52 3.47 37.52 3.47 37.52 39.47 37.52 39.47 37.52 42.69 37.52 45.31 34.91 45.31 31.7 45.31 28.5 42.69 25.89 39.47 25.89 39.47 25.89 31.92 25.89 31.92 25.89 31.92 25.89 30.05 24.02 30.05 24.02 30.05 24.02 30.05 12.26 30.05 12.26 30.05 7.55 26.2 3.72 21.47 3.72 16.74 3.72 12.9 7.55 12.9 12.26 12.9 12.26 12.9 24.02 12.9 24.02 12.9 24.02 11.03 25.89 11.03 25.89 11.03 25.89 3.47 25.89 3.47 25.89 2.17 25.89 0.97 26.33-0 27.05-0 27.05-0 22.82-0 22.82 1.08 22.4 2.25 22.16 3.47 22.16 3.47 22.16 9.15 22.16 9.15 22.16 9.15 22.16 9.15 12.26 9.15 12.26 9.15 5.5 14.68-0 21.47-0 28.26-0 33.79 5.5 33.79 12.26 33.79 12.26 33.79 22.16 33.79 22.16 33.79 22.16 39.47 22.16 39.47 22.16 44.76 22.16 49.05 26.44 49.05 31.7 49.05 36.97 44.76 41.25 39.47 41.25ZM-0 200.65C-0 200.65 39.94 200.65 39.94 200.65 39.94 200.65 39.94 204.37 39.94 204.37 39.94 204.37-0 204.37-0 204.37-0 204.37-0 200.65-0 200.65ZM-0 150.02C-0 150.02 58.82 150.02 58.82 150.02 58.82 150.02 58.82 153.74 58.82 153.74 58.82 153.74-0 153.74-0 153.74-0 153.74-0 150.02-0 150.02ZM 66.77 140.54C 66.77 140.54-0 140.54-0 140.54-0 140.54-0 136.82-0 136.82-0 136.82 66.77 136.82 66.77 136.82 66.77 136.82 66.77 140.54 66.77 140.54ZM 66.77 127.35C 66.77 127.35-0 127.35-0 127.35-0 127.35-0 123.63-0 123.63-0 123.63 66.77 123.63 66.77 123.63 66.77 123.63 66.77 127.35 66.77 127.35ZM 66.77 114.15C 66.77 114.15-0 114.15-0 114.15-0 114.15-0 110.43-0 110.43-0 110.43 66.77 110.43 66.77 110.43 66.77 110.43 66.77 114.15 66.77 114.15ZM 66.77 100.96C 66.77 100.96-0 100.96-0 100.96-0 100.96-0 97.23-0 97.23-0 97.23 66.77 97.23 66.77 97.23 66.77 97.23 66.77 100.96 66.77 100.96ZM 66.77 87.76C 66.77 87.76-0 87.76-0 87.76-0 87.76-0 84.04-0 84.04-0 84.04 66.77 84.04 66.77 84.04 66.77 84.04 66.77 87.76 66.77 87.76ZM 66.77 74.57C 66.77 74.57-0 74.57-0 74.57-0 74.57-0 70.84-0 70.84-0 70.84 66.77 70.84 66.77 70.84 66.77 70.84 66.77 74.57 66.77 74.57ZM 66.77 61.37C 66.77 61.37-0 61.37-0 61.37-0 61.37-0 57.65-0 57.65-0 57.65 66.77 57.65 66.77 57.65 66.77 57.65 66.77 61.37 66.77 61.37Z" fill="#AB3933"/></svg>