<svg xmlns="http://www.w3.org/2000/svg" width="18" height="14" viewBox="0 0 18 14"><path d="M 15.73 3.57C 15.73 3.72 15.74 3.86 15.74 4.01 15.74 8.57 12.3 13.82 6 13.82 4.07 13.82 2.27 13.25 0.76 12.27 1.03 12.31 1.3 12.32 1.58 12.32 3.18 12.32 4.65 11.77 5.82 10.85 4.33 10.82 3.06 9.82 2.63 8.45 2.84 8.49 3.05 8.51 3.27 8.51 3.58 8.51 3.89 8.47 4.17 8.39 2.61 8.08 1.43 6.68 1.43 5.01 1.43 5 1.43 4.98 1.43 4.97 1.89 5.23 2.42 5.38 2.98 5.4 2.06 4.78 1.46 3.73 1.46 2.53 1.46 1.9 1.63 1.31 1.92 0.8 3.61 2.88 6.13 4.26 8.97 4.4 8.91 4.15 8.88 3.88 8.88 3.61 8.88 1.71 10.41 0.17 12.3 0.17 13.29 0.17 14.18 0.59 14.8 1.26 15.58 1.1 16.31 0.81 16.97 0.42 16.72 1.22 16.18 1.9 15.47 2.33 16.16 2.24 16.82 2.06 17.43 1.78 16.97 2.47 16.4 3.08 15.73 3.57Z" fill="#EBEFF0"/></svg>