<svg xmlns="http://www.w3.org/2000/svg" width="52" height="52" viewBox="0 0 52 52"><path d="M 26.04 52C 11.72 52 0.08 40.34 0.08 26 0.08 11.66 11.72-0 26.04-0 40.35-0 51.99 11.66 51.99 26 51.99 40.34 40.35 52 26.04 52ZM 26.04 2.2C 12.93 2.2 2.28 12.87 2.28 26 2.28 39.12 12.93 49.8 26.04 49.8 39.14 49.8 49.8 39.12 49.8 26 49.8 12.87 39.14 2.2 26.04 2.2ZM 23.32 34C 23.32 34 31.76 25.54 31.76 25.54 31.76 25.54 23.32 17.08 23.32 17.08 23.32 17.08 24.87 15.52 24.87 15.52 24.87 15.52 34.09 24.76 34.09 24.76 34.09 24.76 34.09 26.32 34.09 26.32 34.09 26.32 24.87 35.56 24.87 35.56 24.87 35.56 23.32 34 23.32 34Z" fill="#83939C"/></svg>