<svg xmlns="http://www.w3.org/2000/svg" width="24" height="22" viewBox="0 0 24 22"><path d="M 20.53 21.24C 20.53 21.24 19.58 21.98 19.58 21.98 19.58 21.98 3.99 21.98 3.99 21.98 3.99 21.98 3.04 21.24 3.04 21.24 3.04 21.24-0.23 8.79-0.23 8.79-0.23 8.79 0.72 7.54 0.72 7.54 0.72 7.54 22.86 7.54 22.86 7.54 22.86 7.54 23.81 8.79 23.81 8.79 23.81 8.79 20.53 21.24 20.53 21.24ZM 1.99 9.52C 1.99 9.52 4.74 19.99 4.74 19.99 4.74 19.99 18.83 19.99 18.83 19.99 18.83 19.99 21.58 9.52 21.58 9.52 21.58 9.52 1.99 9.52 1.99 9.52ZM 16.04 18.14C 16.04 18.14 17.71 11.25 17.71 11.25 17.71 11.25 19.61 11.25 19.61 11.25 19.61 11.25 17.94 18.14 17.94 18.14 17.94 18.14 16.04 18.14 16.04 18.14ZM 12.62 18.14C 12.62 18.14 13.18 11.25 13.18 11.25 13.18 11.25 15.24 11.25 15.24 11.25 15.24 11.25 14.58 18.14 14.58 18.14 14.58 18.14 12.62 18.14 12.62 18.14ZM 8.51 11.25C 8.51 11.25 10.63 11.25 10.63 11.25 10.63 11.25 11.18 18.14 11.18 18.14 11.18 18.14 9.23 18.14 9.23 18.14 9.23 18.14 8.51 11.25 8.51 11.25ZM 4.2 11.25C 4.2 11.25 6.1 11.25 6.1 11.25 6.1 11.25 7.76 18.14 7.76 18.14 7.76 18.14 5.87 18.14 5.87 18.14 5.87 18.14 4.2 11.25 4.2 11.25ZM 11.76 2.03C 11.76 2.03 6.53 6.66 6.53 6.66 6.53 6.66 5.23 5.17 5.23 5.17 5.23 5.17 11.11-0.04 11.11-0.04 11.11-0.04 12.4-0.04 12.4-0.04 12.4-0.04 18.33 5.17 18.33 5.17 18.33 5.17 17.05 6.67 17.05 6.67 17.05 6.67 11.76 2.03 11.76 2.03Z" fill="#FFF"/></svg>