<svg xmlns="http://www.w3.org/2000/svg" width="366" height="386" viewBox="0 0 183 193"><path d="M 174.78 14.26C 174.78 14.26 173.9 11.89 173.9 11.89 173.9 11.89 182.11 8.81 182.11 8.81 182.11 8.81 183 11.18 183 11.18 183 11.18 174.78 14.26 174.78 14.26ZM 168.9 8.29C 168.9 8.29 172.42 0.18 172.42 0.18 172.42 0.18 174.74 1.19 174.74 1.19 174.74 1.19 171.22 9.3 171.22 9.3 171.22 9.3 168.9 8.29 168.9 8.29ZM 159.5 0.92C 159.5 0.92 161.85-0 161.85-0 161.85-0 164.38 6.43 164.38 6.43 164.38 6.43 162.03 7.35 162.03 7.35 162.03 7.35 159.5 0.92 159.5 0.92ZM 173.62 44.12C 173.62 66.7 155.28 85.06 132.73 85.06 110.19 85.06 91.84 66.7 91.84 44.12 91.84 21.55 110.19 3.18 132.73 3.18 155.28 3.18 173.62 21.55 173.62 44.12ZM 132.73 5.71C 111.58 5.71 94.37 22.94 94.37 44.12 94.37 65.3 111.58 82.53 132.73 82.53 153.89 82.53 171.1 65.3 171.1 44.12 171.1 22.94 153.89 5.71 132.73 5.71ZM 165.97 48.66C 165.97 48.66 161.04 48.66 161.04 48.66 161.04 48.66 161.04 49.04 161.04 49.04 161.04 49.04 159.78 50.3 159.78 50.3 159.78 50.3 152.44 50.3 152.44 50.3 152.44 50.3 151.54 51.2 151.54 51.2 151.54 51.2 143.17 51.2 143.17 51.2 143.17 51.2 142.47 50.49 142.47 50.49 142.47 50.49 142.27 50.69 142.27 50.69 142.27 50.69 141.69 50.1 141.69 50.1 141.69 50.1 124.84 50.1 124.84 50.1 124.84 50.1 124.25 50.69 124.25 50.69 124.25 50.69 124.06 50.49 124.06 50.49 124.06 50.49 123.36 51.2 123.36 51.2 123.36 51.2 114.56 51.2 114.56 51.2 114.56 51.2 113.67 50.3 113.67 50.3 113.67 50.3 106.36 50.3 106.36 50.3 106.36 50.3 105.1 49.04 105.1 49.04 105.1 49.04 105.1 48.66 105.1 48.66 105.1 48.66 99.77 48.66 99.77 48.66 99.77 48.66 98.51 47.39 98.51 47.39 98.51 47.39 98.51 46.12 98.51 46.12 98.51 46.12 99.77 44.86 99.77 44.86 99.77 44.86 105.1 44.86 105.1 44.86 105.1 44.86 105.1 44.47 105.1 44.47 105.1 44.47 106.36 43.21 106.36 43.21 106.36 43.21 113.67 43.21 113.67 43.21 113.67 43.21 114.56 42.32 114.56 42.32 114.56 42.32 114.97 42.32 114.97 42.32 114.97 42.32 112.93 37.71 112.93 37.71 112.93 37.71 113.55 36.06 113.55 36.06 113.55 36.06 114.68 35.53 114.68 35.53 114.68 35.53 112.43 30.68 112.43 30.68 112.43 30.68 113.03 29 113.03 29 113.03 29 114.01 28.54 114.01 28.54 114.01 28.54 115.69 29.15 115.69 29.15 115.69 29.15 117.94 33.99 117.94 33.99 117.94 33.99 119.06 33.47 119.06 33.47 119.06 33.47 120.75 34.09 120.75 34.09 120.75 34.09 124.45 42.32 124.45 42.32 124.45 42.32 151.54 42.32 151.54 42.32 151.54 42.32 152.44 43.21 152.44 43.21 152.44 43.21 159.78 43.21 159.78 43.21 159.78 43.21 161.04 44.47 161.04 44.47 161.04 44.47 161.04 44.86 161.04 44.86 161.04 44.86 165.97 44.86 165.97 44.86 165.97 44.86 167.23 46.12 167.23 46.12 167.23 46.12 167.23 47.39 167.23 47.39 167.23 47.39 165.97 48.66 165.97 48.66ZM 113.3 45.74C 113.3 45.74 107.63 45.74 107.63 45.74 107.63 45.74 107.63 46.12 107.63 46.12 107.63 46.12 107.63 47.39 107.63 47.39 107.63 47.39 107.63 47.77 107.63 47.77 107.63 47.77 113.3 47.77 113.3 47.77 113.3 47.77 113.3 45.74 113.3 45.74ZM 131.29 44.84C 131.29 44.84 123.63 44.84 123.63 44.84 123.63 44.84 122.48 44.1 122.48 44.1 122.48 44.1 118.97 36.3 118.97 36.3 118.97 36.3 117.87 36.82 117.87 36.82 117.87 36.82 117.87 36.82 117.87 36.82 117.87 36.82 116.89 37.28 116.89 37.28 116.89 37.28 116.89 37.28 116.89 37.28 116.89 37.28 115.74 37.82 115.74 37.82 115.74 37.82 118.06 43.07 118.06 43.07 118.06 43.07 116.91 44.84 116.91 44.84 116.91 44.84 115.82 44.84 115.82 44.84 115.82 44.84 115.82 48.67 115.82 48.67 115.82 48.67 122.69 48.67 122.69 48.67 122.69 48.67 123.42 47.94 123.42 47.94 123.42 47.94 124.32 47.57 124.32 47.57 124.32 47.57 131.29 47.57 131.29 47.57 131.29 47.57 131.29 44.84 131.29 44.84ZM 150.28 44.84C 150.28 44.84 133.82 44.84 133.82 44.84 133.82 44.84 133.82 47.57 133.82 47.57 133.82 47.57 142.21 47.57 142.21 47.57 142.21 47.57 143.1 47.94 143.1 47.94 143.1 47.94 143.83 48.67 143.83 48.67 143.83 48.67 150.28 48.67 150.28 48.67 150.28 48.67 150.28 44.84 150.28 44.84ZM 158.52 47.39C 158.52 47.39 158.52 46.12 158.52 46.12 158.52 46.12 158.52 45.74 158.52 45.74 158.52 45.74 152.85 45.74 152.85 45.74 152.85 45.74 152.85 47.77 152.85 47.77 152.85 47.77 158.52 47.77 158.52 47.77 158.52 47.77 158.52 47.39 158.52 47.39ZM 14.14 75.16C 14.14 75.16 14.14 59.55 14.14 59.55 14.14 59.55 15.41 58.29 15.41 58.29 15.41 58.29 88.64 58.29 88.64 58.29 88.64 58.29 89.91 59.55 89.91 59.55 89.91 59.55 89.91 75.16 89.91 75.16 89.91 75.16 88.64 76.42 88.64 76.42 88.64 76.42 15.41 76.42 15.41 76.42 15.41 76.42 14.14 75.16 14.14 75.16ZM 16.67 73.89C 16.67 73.89 87.38 73.89 87.38 73.89 87.38 73.89 87.38 60.82 87.38 60.82 87.38 60.82 16.67 60.82 16.67 60.82 16.67 60.82 16.67 73.89 16.67 73.89ZM 60.06 72.61C 57.19 72.61 54.86 70.27 54.86 67.4 54.86 64.53 57.19 62.19 60.06 62.19 62.93 62.19 65.26 64.53 65.26 67.4 65.26 70.27 62.93 72.61 60.06 72.61ZM 60.06 64.72C 58.58 64.72 57.38 65.92 57.38 67.4 57.38 68.88 58.58 70.08 60.06 70.08 61.53 70.08 62.74 68.88 62.74 67.4 62.74 65.92 61.53 64.72 60.06 64.72ZM 51.37 72.36C 51.37 72.36 48.85 72.36 48.85 72.36 48.85 72.36 48.85 64.69 48.85 64.69 48.85 64.69 44.97 64.69 44.97 64.69 44.97 64.69 44.97 62.16 44.97 62.16 44.97 62.16 55.05 62.16 55.05 62.16 55.05 62.16 55.05 64.69 55.05 64.69 55.05 64.69 51.37 64.69 51.37 64.69 51.37 64.69 51.37 72.36 51.37 72.36ZM 45.66 66.05C 45.66 66.05 43.43 67.23 43.43 67.23 43.43 67.23 42.84 66.12 42.84 66.12 42.35 65.18 41.36 64.63 40.34 64.69 38.98 64.76 37.87 65.88 37.8 67.24 37.77 67.98 38.03 68.68 38.54 69.21 39.05 69.75 39.74 70.05 40.48 70.05 41.47 70.05 42.37 69.5 42.84 68.62 42.84 68.62 43.43 67.5 43.43 67.5 43.43 67.5 45.66 68.68 45.66 68.68 45.66 68.68 45.07 69.8 45.07 69.8 44.17 71.51 42.41 72.57 40.48 72.57 39.04 72.57 37.71 72 36.71 70.96 35.72 69.92 35.21 68.56 35.28 67.12 35.41 64.47 37.57 62.3 40.22 62.16 42.25 62.09 44.13 63.15 45.07 64.93 45.07 64.93 45.66 66.05 45.66 66.05ZM 91.27 30.81C 84.18 28.31 76.73 27.04 69.14 27.04 37.01 27.04 10.12 49.94 3.89 80.29 3.89 80.29 15.23 80.29 15.23 80.29 15.23 80.29 98.97 80.29 98.97 80.29 98.97 80.29 100.23 81.55 100.23 81.55 100.23 81.55 100.23 106.42 100.23 106.42 101.14 103.07 103.85 100.44 107.31 99.76 107.51 96.61 110.13 94.11 113.33 94.11 116.39 94.11 118.93 96.41 119.31 99.37 119.86 99.54 120.38 99.79 120.86 100.11 121.86 99.75 122.9 99.57 123.97 99.57 129.06 99.57 133.21 103.72 133.21 108.82 133.21 113.32 129.95 117.13 125.63 117.92 124.89 121.95 121.55 125.01 117.47 125.43 117.47 125.43 117.47 131.95 117.47 131.95 117.47 131.95 123.68 131.95 123.68 131.95 131.27 121.12 135.75 107.94 135.75 93.73 135.75 93.73 135.75 92.47 135.75 92.47 135.75 92.47 138.27 92.47 138.27 92.47 138.27 92.47 138.27 93.73 138.27 93.73 138.27 131.9 107.26 162.96 69.14 162.96 66.55 162.96 63.96 162.79 61.39 162.5 61.49 163.45 61.55 164.42 61.55 165.39 61.55 180.61 49.18 192.99 33.98 192.99 18.79 192.99 6.42 180.61 6.42 165.39 6.42 155.48 11.68 146.8 19.54 141.93 6.94 128.95 0 111.88 0 93.73 0 55.57 31.01 24.51 69.14 24.51 77.02 24.51 84.74 25.83 92.11 28.42 92.11 28.42 93.3 28.84 93.3 28.84 93.3 28.84 92.46 31.23 92.46 31.23 92.46 31.23 91.27 30.81 91.27 30.81ZM 97.7 82.82C 97.7 82.82 16.49 82.82 16.49 82.82 16.49 82.82 16.52 113.04 16.52 113.04 16.52 113.04 16.49 113.07 16.49 113.07 16.49 113.07 16.49 131.95 16.49 131.95 16.49 131.95 33.5 131.95 33.5 131.95 33.39 131.69 33.29 131.42 33.23 131.13 33.23 131.13 31.47 124.09 31.47 124.09 31.03 122.32 31.97 120.47 33.65 119.78 33.65 119.78 34.15 119.57 34.15 119.57 34.15 119.57 33.89 114.76 33.89 114.76 33.81 113.44 34.04 112.1 34.54 110.88 34.54 110.88 35.31 109.01 35.31 109.01 35.47 108.61 35.65 108.17 35.84 107.71 35.84 107.71 33.11 107.86 33.11 107.86 33.06 107.87 33 107.87 32.95 107.87 32.25 107.87 31.59 107.61 31.07 107.13 30.51 106.61 30.19 105.91 30.17 105.15 30.13 103.66 31.34 102.37 32.86 102.29 32.86 102.29 33.85 102.23 33.85 102.23 35.18 102.16 36.54 102.63 37.57 103.5 38.87 100.33 40.3 96.8 41.35 94.1 41.9 92.7 43.03 91.64 44.47 91.18 52.02 88.78 61.99 88.26 71.81 89.75 71.81 89.75 71.81 89.75 71.81 89.75 73.31 89.98 74.64 90.92 75.37 92.27 76.95 95.18 78.86 98.37 80.54 101.13 81.47 100.13 82.77 99.51 84.13 99.44 84.13 99.44 85.11 99.38 85.11 99.38 86.67 99.3 87.97 100.44 88.1 101.92 88.17 102.68 87.93 103.41 87.43 103.99 86.93 104.56 86.24 104.9 85.48 104.95 85.48 104.95 82.96 105.09 82.96 105.09 83.77 106.41 84.4 107.47 84.75 108.12 85.36 109.25 85.71 110.54 85.79 111.82 85.79 111.82 86.6 126.52 86.6 126.52 86.6 126.52 85.41 127.85 85.41 127.85 85.41 127.85 85.15 127.87 85.15 127.87 85.15 127.87 85.15 128.83 85.15 128.83 85.15 129.99 84.79 131.06 84.17 131.95 84.17 131.95 97.7 131.95 97.7 131.95 97.7 131.95 97.7 82.82 97.7 82.82ZM 33.92 123.47C 33.92 123.47 34.5 125.77 34.5 125.77 34.5 125.77 34.3 122.32 34.3 122.32 33.98 122.59 33.82 123.04 33.92 123.47ZM 43.74 127.57C 43.74 127.57 43.76 127.64 43.76 127.64 43.76 127.64 75.36 125.88 75.36 125.88 75.36 125.88 75.39 125.85 75.39 125.85 75.39 125.85 75.9 125.85 75.9 125.85 75.9 125.85 84.01 125.4 84.01 125.4 84.01 125.4 83.26 111.96 83.26 111.96 83.21 111.04 82.96 110.12 82.52 109.31 82.12 108.55 81.23 107.1 80.12 105.29 80.12 105.29 38.62 107.6 38.62 107.6 38.26 108.47 37.92 109.29 37.64 109.98 37.64 109.98 36.87 111.84 36.87 111.84 36.51 112.71 36.35 113.67 36.41 114.62 36.41 114.62 37.15 128.01 37.15 128.01 37.15 128.01 43.3 127.67 43.3 127.67 43.3 127.67 43.74 127.57 43.74 127.57ZM 43.49 131.95C 43.49 131.95 75.1 131.95 75.1 131.95 74.49 131.06 74.13 129.99 74.13 128.83 74.13 128.83 74.13 128.48 74.13 128.48 74.13 128.48 44.07 130.16 44.07 130.16 44 130.78 43.82 131.39 43.49 131.95ZM 76.65 128.38C 76.65 128.38 76.65 128.83 76.65 128.83 76.65 130.48 77.99 131.82 79.64 131.82 81.28 131.82 82.62 130.48 82.62 128.83 82.62 128.83 82.62 128.38 82.62 128.38 82.62 128.38 76.65 128.38 76.65 128.38ZM 78.63 102.84C 76.88 99.97 74.84 96.59 73.15 93.48 72.8 92.82 72.15 92.36 71.43 92.25 67.94 91.72 64.38 91.46 60.92 91.46 55.15 91.46 49.66 92.18 45.23 93.59 44.53 93.82 43.97 94.34 43.71 95.02 42.59 97.89 41.05 101.69 39.69 105.01 39.69 105.01 78.63 102.84 78.63 102.84ZM 36.03 130.6C 36.03 130.6 35.61 130.23 35.61 130.23 35.61 130.23 35.69 130.56 35.69 130.56 35.84 131.26 36.35 131.76 36.97 131.95 36.97 131.95 38.22 131.95 38.22 131.95 38.22 131.95 40.12 131.54 40.12 131.54 40.6 131.44 41.02 131.15 41.28 130.73 41.37 130.6 41.41 130.45 41.46 130.3 41.46 130.3 36.03 130.6 36.03 130.6ZM 35.64 105.19C 35.19 104.91 34.67 104.76 34.14 104.76 34.09 104.76 34.04 104.76 33.99 104.76 33.99 104.76 33.01 104.81 33.01 104.81 32.84 104.82 32.69 104.95 32.7 105.08 32.7 105.17 32.74 105.23 32.78 105.27 32.82 105.3 32.85 105.33 32.97 105.34 32.97 105.34 35.64 105.19 35.64 105.19ZM 82.67 102.57C 82.67 102.57 85.34 102.42 85.34 102.42 85.43 102.42 85.49 102.37 85.52 102.33 85.56 102.29 85.59 102.23 85.59 102.14 85.57 102.01 85.43 101.91 85.27 101.91 85.26 101.91 85.25 101.91 85.25 101.91 85.25 101.91 84.26 101.96 84.26 101.96 83.68 101.99 83.13 102.21 82.67 102.57ZM 100.23 111.31C 100.23 111.31 100.23 131.95 100.23 131.95 100.23 131.95 114.95 131.95 114.95 131.95 114.95 131.95 114.95 125.36 114.95 125.36 112.97 125.01 111.14 124.03 109.77 122.54 108.93 122.94 108.02 123.14 107.08 123.14 103.6 123.14 100.76 120.3 100.76 116.81 100.76 115.82 100.99 114.85 101.44 113.97 100.89 113.15 100.49 112.25 100.23 111.31ZM 123.23 116.7C 123.23 116.7 124.41 115.52 124.41 115.52 127.93 115.29 130.68 112.35 130.68 108.82 130.68 105.12 127.67 102.1 123.97 102.1 123 102.1 122.07 102.3 121.19 102.71 121.19 102.71 119.83 102.5 119.83 102.5 119.3 102.03 118.64 101.74 117.94 101.66 117.94 101.66 116.82 100.35 116.82 100.35 116.82 100.35 116.83 100.18 116.83 100.18 116.83 98.21 115.26 96.64 113.33 96.64 111.4 96.64 109.82 98.21 109.82 100.15 109.82 100.33 109.84 100.5 109.87 100.67 109.87 100.67 108.7 102.12 108.7 102.12 105.17 102.34 102.4 105.28 102.4 108.82 102.4 110.38 102.94 111.89 103.93 113.09 103.93 113.09 103.98 114.62 103.98 114.62 103.53 115.27 103.29 116.03 103.29 116.81 103.29 118.91 104.99 120.62 107.08 120.62 107.89 120.62 108.66 120.36 109.32 119.88 109.32 119.88 111.09 120.17 111.09 120.17 112.03 121.49 113.41 122.41 114.95 122.79 114.95 122.79 114.95 118.28 114.95 118.28 114.95 118.28 110.6 113.92 110.6 113.92 110.6 113.92 112.38 112.14 112.38 112.14 112.38 112.14 116.21 115.97 116.21 115.97 116.21 115.97 120.04 112.14 120.04 112.14 120.04 112.14 121.82 113.92 121.82 113.92 121.82 113.92 117.47 118.28 117.47 118.28 117.47 118.28 117.47 122.89 117.47 122.89 120.57 122.45 123.02 119.91 123.23 116.7ZM 8.95 165.39C 8.95 179.22 20.18 190.46 33.98 190.46 47.79 190.46 59.02 179.22 59.02 165.39 59.02 151.57 47.79 140.33 33.98 140.33 20.18 140.33 8.95 151.57 8.95 165.39ZM 21.82 140.67C 25.5 138.85 29.62 137.8 33.98 137.8 47.31 137.8 58.46 147.32 61 159.92 63.69 160.25 66.42 160.43 69.14 160.43 90.55 160.43 109.62 150.25 121.82 134.48 121.82 134.48 117.47 134.48 117.47 134.48 117.47 134.48 114.95 134.48 114.95 134.48 114.95 134.48 100.23 134.48 100.23 134.48 100.23 134.48 97.7 134.48 97.7 134.48 97.7 134.48 38.48 134.48 38.48 134.48 38.48 134.48 38.43 134.49 38.43 134.49 38.12 134.56 37.81 134.59 37.51 134.59 37.19 134.59 36.89 134.54 36.59 134.48 36.59 134.48 16.49 134.48 16.49 134.48 16.49 134.48 16.41 134.48 16.41 134.48 18.08 136.63 19.88 138.7 21.82 140.67ZM 13.96 131.12C 13.96 131.12 13.96 114.3 13.96 114.3 13.96 114.3 5.76 114.3 5.76 114.3 7.68 120.25 10.43 125.91 13.96 131.12ZM 2.53 93.73C 2.53 99.92 3.38 105.97 5 111.77 5 111.77 13.96 111.77 13.96 111.77 13.96 111.77 13.96 82.82 13.96 82.82 13.96 82.82 3.43 82.82 3.43 82.82 2.85 86.37 2.53 90.02 2.53 93.73ZM 106.61 147.02C 106.61 147.02 64.39 147.02 64.39 147.02 64.39 147.02 64.39 144.49 64.39 144.49 64.39 144.49 106.61 144.49 106.61 144.49 106.61 144.49 106.61 147.02 106.61 147.02ZM 29.13 151.4C 29.13 151.4 31.48 150.47 31.48 150.47 31.48 150.47 33.7 156.12 33.7 156.12 33.7 156.12 31.35 157.05 31.35 157.05 31.35 157.05 29.13 151.4 29.13 151.4ZM 28.64 159.49C 28.64 159.49 21.91 155.49 21.91 155.49 21.91 155.49 23.2 153.32 23.2 153.32 23.2 153.32 29.93 157.32 29.93 157.32 29.93 157.32 28.64 159.49 28.64 159.49ZM 25.95 164.87C 25.95 164.87 30.66 162.72 30.66 162.72 30.66 162.72 31.71 165.02 31.71 165.02 31.71 165.02 26.25 167.51 26.25 167.51 26.25 167.51 24.89 167.31 24.89 167.31 24.89 167.31 21.66 164.47 21.66 164.47 21.66 164.47 21.06 165.19 21.06 165.19 21.06 165.19 23.09 167 23.09 167 23.09 167 22.71 169.12 22.71 169.12 22.71 169.12 22.8 169.33 22.8 169.33 22.8 169.33 23.16 170.1 23.16 170.1 23.16 170.1 26 168.81 26 168.81 26 168.81 26.13 168.47 26.13 168.47 26.13 168.47 26.79 167.76 26.79 167.76 26.79 167.76 31.9 165.43 31.9 165.43 31.9 165.43 32.94 167.73 32.94 167.73 32.94 167.73 28.31 169.84 28.31 169.84 28.31 169.84 28.23 170.08 28.23 170.08 28.23 170.08 27.99 169.99 27.99 169.99 27.99 169.99 27.88 170.04 27.88 170.04 27.88 170.04 27.6 170.86 27.6 170.86 27.6 170.86 23.05 172.93 23.05 172.93 23.05 172.93 22.38 172.68 22.38 172.68 22.38 172.68 18.61 174.4 18.61 174.4 18.61 174.4 17.37 173.93 17.37 173.93 17.37 173.93 14.82 175.1 14.82 175.1 14.82 175.1 13.14 174.47 13.14 174.47 13.14 174.47 12.85 173.82 12.85 173.82 12.85 173.82 13.47 172.14 13.47 172.14 13.47 172.14 16.03 170.98 16.03 170.98 16.03 170.98 16.49 169.74 16.49 169.74 16.49 169.74 20.26 168.02 20.26 168.02 20.26 168.02 20.3 167.9 20.3 167.9 20.3 167.9 18.45 166.26 18.45 166.26 18.45 166.26 18.33 164.49 18.33 164.49 18.33 164.49 18.44 164.37 18.44 164.37 18.44 164.37 16.55 162.75 16.55 162.75 16.55 162.75 16.41 160.97 16.41 160.97 16.41 160.97 16.8 160.5 16.8 160.5 16.8 160.5 18.59 160.36 18.59 160.36 18.59 160.36 20.47 161.97 20.47 161.97 20.47 161.97 20.57 161.86 20.57 161.86 20.57 161.86 22.37 161.72 22.37 161.72 22.37 161.72 25.95 164.87 25.95 164.87ZM 20.64 170.68C 20.64 170.68 20.62 170.63 20.62 170.63 20.62 170.63 18.69 171.51 18.69 171.51 18.69 171.51 18.71 171.57 18.71 171.57 18.71 171.57 20.65 170.69 20.65 170.69 20.65 170.69 20.64 170.68 20.64 170.68ZM 39.43 167.26C 39.43 167.26 40.14 167.91 40.14 167.91 40.17 167.98 40.22 168.07 40.27 168.16 40.27 168.16 43.08 169.24 43.08 169.24 43.08 169.24 43.41 168.24 43.41 168.24 43.41 168.24 34.54 164.98 34.54 164.98 34.54 164.98 35.41 162.61 35.41 162.61 35.41 162.61 45.43 166.28 45.43 166.28 45.43 166.28 45.75 166.95 45.75 166.95 45.75 166.95 46.14 166.77 46.14 166.77 46.14 166.77 50.5 168.37 50.5 168.37 50.5 168.37 51.04 169.54 51.04 169.54 51.04 169.54 53.63 170.49 53.63 170.49 53.63 170.49 54.38 172.11 54.38 172.11 54.38 172.11 54.14 172.79 54.14 172.79 54.14 172.79 52.52 173.54 52.52 173.54 52.52 173.54 49.98 172.6 49.98 172.6 49.98 172.6 48.74 173.18 48.74 173.18 48.74 173.18 44.44 171.6 44.44 171.6 44.44 171.6 43.41 172.08 43.41 172.08 43.41 172.08 38.98 170.37 38.98 170.37 38.98 170.37 38.38 169.89 38.38 169.89 38.38 169.89 38.25 169.69 38.12 169.47 38.12 169.47 33.52 167.78 33.52 167.78 33.52 167.78 34.39 165.4 34.39 165.4 34.39 165.4 39.43 167.26 39.43 167.26ZM 48.43 170.37C 48.43 170.37 48.45 170.31 48.45 170.31 48.45 170.31 46.45 169.58 46.45 169.58 46.45 169.58 46.43 169.63 46.43 169.63 46.43 169.63 48.43 170.37 48.43 170.37ZM 37.2 157.64C 37.2 157.64 42.85 155.42 42.85 155.42 42.85 155.42 43.77 157.77 43.77 157.77 43.77 157.77 38.13 160 38.13 160 38.13 160 37.2 157.64 37.2 157.64ZM 34.35 156.06C 34.35 156.06 37.99 147.96 37.99 147.96 37.99 147.96 40.29 149 40.29 149 40.29 149 36.65 157.1 36.65 157.1 36.65 157.1 34.35 156.06 34.35 156.06ZM 39.37 119.9C 39.37 119.9 36.89 116.52 36.89 116.52 36.89 116.52 37.83 114.51 37.83 114.51 37.83 114.51 46.72 114.02 46.72 114.02 47.52 113.96 48.3 114.24 48.9 114.78 49.5 115.32 49.86 116.06 49.9 116.86 49.95 117.67 49.68 118.44 49.14 119.04 48.6 119.65 47.86 120 47.06 120.04 47.06 120.04 40.46 120.41 40.46 120.41 40.46 120.41 39.37 119.9 39.37 119.9ZM 46.92 117.52C 47.09 117.51 47.21 117.41 47.26 117.36 47.31 117.3 47.39 117.18 47.38 117 47.37 116.82 47.27 116.71 47.22 116.66 47.16 116.61 47.02 116.54 46.86 116.54 46.86 116.54 40.31 116.9 40.31 116.9 40.31 116.9 41 117.85 41 117.85 41 117.85 46.92 117.52 46.92 117.52ZM 55.89 118.07C 55.89 118.07 64.4 117.59 64.4 117.59 65.35 117.55 66.23 117.86 66.92 118.48 67.62 119.1 68.03 119.96 68.08 120.89 68.19 122.81 66.71 124.46 64.79 124.57 64.79 124.57 64.79 124.57 64.79 124.57 64.79 124.57 56.28 125.04 56.28 125.04 56.21 125.05 56.14 125.05 56.08 125.05 55.22 125.05 54.4 124.74 53.76 124.16 53.06 123.54 52.65 122.68 52.6 121.75 52.49 119.83 53.97 118.17 55.89 118.07ZM 55.44 122.27C 55.63 122.45 55.89 122.51 56.14 122.52 56.14 122.52 64.65 122.05 64.65 122.05 65.18 122.01 65.59 121.56 65.56 121.03 65.55 120.77 65.43 120.53 65.24 120.36 65.06 120.2 64.84 120.12 64.6 120.12 64.58 120.12 64.56 120.12 64.54 120.12 64.54 120.12 56.03 120.59 56.03 120.59 55.5 120.62 55.09 121.08 55.12 121.61 55.14 121.87 55.25 122.1 55.44 122.27ZM 73.07 112.55C 73.07 112.55 81.95 112.05 81.95 112.05 81.95 112.05 83.12 113.95 83.12 113.95 83.12 113.95 81.02 117.58 81.02 117.58 81.02 117.58 80 118.21 80 118.21 80 118.21 73.4 118.58 73.4 118.58 73.34 118.58 73.29 118.58 73.23 118.58 71.65 118.58 70.31 117.34 70.22 115.73 70.18 114.93 70.45 114.15 70.99 113.55 71.52 112.95 72.26 112.59 73.07 112.55ZM 72.91 115.93C 72.96 115.98 73.09 116.05 73.26 116.05 73.26 116.05 79.18 115.73 79.18 115.73 79.18 115.73 79.76 114.71 79.76 114.71 79.76 114.71 73.21 115.07 73.21 115.07 73.03 115.08 72.92 115.18 72.87 115.24 72.82 115.29 72.73 115.41 72.74 115.59 72.75 115.77 72.85 115.88 72.91 115.93ZM 59.47 183.97C 63.02 184.39 66.64 184.6 70.23 184.6 120.95 184.6 162.21 143.29 162.21 92.51 162.21 89.53 162.05 86.54 161.77 83.58 161.77 83.58 159.24 91.84 159.24 91.84 159.24 91.84 156.82 91.1 156.82 91.1 156.82 91.1 160.97 77.56 160.97 77.56 160.97 77.56 163.24 77.25 163.24 77.25 163.24 77.25 171.06 89.4 171.06 89.4 171.06 89.4 168.94 90.77 168.94 90.77 168.94 90.77 164.3 83.57 164.3 83.57 164.58 86.53 164.73 89.52 164.73 92.51 164.73 144.68 122.34 187.12 70.23 187.12 66.54 187.12 62.83 186.91 59.18 186.48 59.18 186.48 57.93 186.34 57.93 186.34 57.93 186.34 58.22 183.83 58.22 183.83 58.22 183.83 59.47 183.97 59.47 183.97ZM 182.83 21.74C 182.83 21.74 181.82 24.06 181.82 24.06 181.82 24.06 173.72 20.53 173.72 20.53 173.72 20.53 174.73 18.21 174.73 18.21 174.73 18.21 182.83 21.74 182.83 21.74Z" fill="#FFF"/></svg>