<svg xmlns="http://www.w3.org/2000/svg" width="394" height="388" viewBox="0 0 197 194"><path d="M 182.36 81.5C 173.15 90.29 161.27 94.65 149.42 94.65 136.89 94.65 124.38 89.78 115.04 80.1 106.24 70.97 101.53 58.99 101.8 46.35 101.87 42.93 102.32 39.58 103.09 36.34 93.37 31.66 82.51 29.42 71.65 29.89 35.49 31.46 7.35 61.98 8.93 97.93 9.41 108.76 12.6 119.37 18.18 128.6 18.18 128.6 18.82 129.66 18.82 129.66 18.82 129.66 16.68 130.94 16.68 130.94 16.68 130.94 16.05 129.88 16.05 129.88 10.26 120.29 6.94 109.27 6.45 98.03 5.66 79.96 11.99 62.66 24.29 49.33 36.58 35.99 53.36 28.21 71.54 27.42 82.67 26.96 93.76 29.2 103.74 33.92 106.05 26.1 110.37 18.97 116.45 13.18 125.63 4.42 137.67-0.28 150.4 0.02 163.12 0.28 174.97 5.45 183.77 14.58 201.95 33.41 201.31 63.44 182.36 81.5ZM 181.98 16.29C 173.64 7.64 162.4 2.74 150.35 2.48 150.03 2.48 149.7 2.47 149.38 2.47 137.69 2.47 126.64 6.89 118.17 14.96 109.47 23.25 104.54 34.42 104.29 46.4 104.03 58.38 108.49 69.74 116.83 78.39 134.06 96.25 162.68 96.84 180.64 79.72 189.35 71.42 194.28 60.26 194.53 48.28 194.78 36.3 190.32 24.93 181.98 16.29ZM 185.1 51.01C 185.1 51.01 179.73 51.01 179.73 51.01 179.73 51.01 179.73 51.53 179.73 51.53 179.73 51.53 178.49 52.76 178.49 52.76 178.49 52.76 170.65 52.76 170.65 52.76 170.65 52.76 169.69 53.71 169.69 53.71 169.69 53.71 160.74 53.71 160.74 53.71 160.74 53.71 160.05 53.02 160.05 53.02 160.05 53.02 159.87 53.2 159.87 53.2 159.87 53.2 159.2 52.54 159.2 52.54 159.2 52.54 141.12 52.54 141.12 52.54 141.12 52.54 140.46 53.2 140.46 53.2 140.46 53.2 140.28 53.02 140.28 53.02 140.28 53.02 139.58 53.71 139.58 53.71 139.58 53.71 130.18 53.71 130.18 53.71 130.18 53.71 129.22 52.76 129.22 52.76 129.22 52.76 121.42 52.76 121.42 52.76 121.42 52.76 120.18 51.53 120.18 51.53 120.18 51.53 120.18 51.01 120.18 51.01 120.18 51.01 114.38 51.01 114.38 51.01 114.38 51.01 113.14 49.78 113.14 49.78 113.14 49.78 113.14 48.43 113.14 48.43 113.14 48.43 114.38 47.19 114.38 47.19 114.38 47.19 120.18 47.19 120.18 47.19 120.18 47.19 120.18 46.68 120.18 46.68 120.18 46.68 121.42 45.45 121.42 45.45 121.42 45.45 129.22 45.45 129.22 45.45 129.22 45.45 130.18 44.5 130.18 44.5 130.18 44.5 130.78 44.5 130.78 44.5 130.78 44.5 128.54 39.47 128.54 39.47 128.54 39.47 129.14 37.85 129.14 37.85 129.14 37.85 130.45 37.24 130.45 37.24 130.45 37.24 128 32 128 32 128 32 128.6 30.37 128.6 30.37 128.6 30.37 129.64 29.88 129.64 29.88 129.64 29.88 131.29 30.47 131.29 30.47 131.29 30.47 133.74 35.71 133.74 35.71 133.74 35.71 135.04 35.1 135.04 35.1 135.04 35.1 136.7 35.71 136.7 35.71 136.7 35.71 140.68 44.5 140.68 44.5 140.68 44.5 169.69 44.5 169.69 44.5 169.69 44.5 170.65 45.45 170.65 45.45 170.65 45.45 178.49 45.45 178.49 45.45 178.49 45.45 179.73 46.68 179.73 46.68 179.73 46.68 179.73 47.19 179.73 47.19 179.73 47.19 185.1 47.19 185.1 47.19 185.1 47.19 186.34 48.43 186.34 48.43 186.34 48.43 186.34 49.78 186.34 49.78 186.34 49.78 185.1 51.01 185.1 51.01ZM 128.94 47.92C 128.94 47.92 122.67 47.92 122.67 47.92 122.67 47.92 122.67 48.43 122.67 48.43 122.67 48.43 122.67 49.78 122.67 49.78 122.67 49.78 122.67 50.29 122.67 50.29 122.67 50.29 128.94 50.29 128.94 50.29 128.94 50.29 128.94 47.92 128.94 47.92ZM 139.88 46.97C 139.88 46.97 138.74 46.24 138.74 46.24 138.74 46.24 134.95 37.87 134.95 37.87 134.95 37.87 133.57 38.51 133.57 38.51 133.57 38.51 132.62 38.96 132.62 38.96 132.62 38.96 132.62 38.96 132.62 38.96 132.62 38.96 131.3 39.57 131.3 39.57 131.3 39.57 133.82 45.23 133.82 45.23 133.82 45.23 132.69 46.97 132.69 46.97 132.69 46.97 131.42 46.97 131.42 46.97 131.42 46.97 131.42 51.24 131.42 51.24 131.42 51.24 138.91 51.24 138.91 51.24 138.91 51.24 139.73 50.43 139.73 50.43 139.73 50.43 140.6 50.07 140.6 50.07 140.6 50.07 148.16 50.07 148.16 50.07 148.16 50.07 148.16 46.97 148.16 46.97 148.16 46.97 139.88 46.97 139.88 46.97ZM 168.45 46.97C 168.45 46.97 150.65 46.97 150.65 46.97 150.65 46.97 150.65 50.07 150.65 50.07 150.65 50.07 159.72 50.07 159.72 50.07 159.72 50.07 160.6 50.43 160.6 50.43 160.6 50.43 161.41 51.24 161.41 51.24 161.41 51.24 168.45 51.24 168.45 51.24 168.45 51.24 168.45 46.97 168.45 46.97ZM 177.25 49.78C 177.25 49.78 177.25 48.43 177.25 48.43 177.25 48.43 177.25 47.92 177.25 47.92 177.25 47.92 170.98 47.92 170.98 47.92 170.98 47.92 170.98 50.29 170.98 50.29 170.98 50.29 177.25 50.29 177.25 50.29 177.25 50.29 177.25 49.78 177.25 49.78ZM 160.19 40.4C 160.19 40.4 160.28 37.93 160.28 37.93 160.28 37.93 169.1 38.24 169.1 38.24 169.1 38.24 169.02 40.7 169.02 40.7 169.02 40.7 160.19 40.4 160.19 40.4ZM 157.18 32.33C 157.18 32.33 163.7 26.5 163.7 26.5 163.7 26.5 165.36 28.33 165.36 28.33 165.36 28.33 158.85 34.17 158.85 34.17 158.85 34.17 157.18 32.33 157.18 32.33ZM 151.17 30.79C 151.17 30.79 151.48 22.01 151.48 22.01 151.48 22.01 153.96 22.1 153.96 22.1 153.96 22.1 153.66 30.87 153.66 30.87 153.66 30.87 151.17 30.79 151.17 30.79ZM 139.67 27.41C 139.67 27.41 141.49 25.73 141.49 25.73 141.49 25.73 146.19 30.74 146.19 30.74 146.19 30.74 144.37 32.42 144.37 32.42 144.37 32.42 139.67 27.41 139.67 27.41ZM 27.7 138.93C 42.97 138.93 55.39 151.28 55.39 166.46 55.39 181.64 42.97 194 27.7 194 12.42 194-0 181.64-0 166.46-0 151.28 12.42 138.93 27.7 138.93ZM 27.7 191.53C 41.6 191.53 52.91 180.28 52.91 166.46 52.91 152.64 41.6 141.4 27.7 141.4 13.79 141.4 2.48 152.64 2.48 166.46 2.48 180.28 13.79 191.53 27.7 191.53ZM 27.09 153.78C 27.09 153.78 27.09 151.87 27.09 151.87 27.09 151.87 27.39 151.15 27.39 151.15 27.39 151.15 25.37 151.15 25.37 151.15 25.37 151.15 25.37 148.68 25.37 148.68 25.37 148.68 29.49 148.68 29.49 148.68 29.49 148.68 30.73 149.91 30.73 149.91 30.73 149.91 30.73 150.72 30.73 150.72 30.73 150.72 30.37 151.6 30.37 151.6 30.37 151.6 29.58 152.39 29.58 152.39 29.58 152.39 29.58 153.93 29.58 153.93 29.58 153.93 29.44 153.93 29.44 153.93 35.33 154.88 39.85 159.95 39.85 166.06 39.85 172.85 34.3 178.37 27.47 178.37 20.65 178.37 15.1 172.85 15.1 166.06 15.1 159.41 20.45 153.98 27.09 153.78ZM 27.47 175.9C 32.92 175.9 37.36 171.49 37.36 166.06 37.36 160.64 32.92 156.23 27.47 156.23 22.02 156.23 17.58 160.64 17.58 166.06 17.58 171.49 22.02 175.9 27.47 175.9ZM 26.23 158.76C 26.23 158.76 28.71 158.76 28.71 158.76 28.71 158.76 28.71 167.7 28.71 167.7 28.71 167.7 28.04 167.7 28.04 167.7 28.04 167.7 23.35 171.28 23.35 171.28 23.35 171.28 21.83 169.33 21.83 169.33 21.83 169.33 26.23 165.96 26.23 165.96 26.23 165.96 26.23 158.76 26.23 158.76ZM 40.59 171C 40.59 171 40.99 169.83 40.99 169.83 40.99 169.83 43.34 170.62 43.34 170.62 43.34 170.62 42.95 171.79 42.95 171.79 41.33 176.58 37.48 180.4 32.66 182.01 32.66 182.01 31.49 182.4 31.49 182.4 31.49 182.4 30.7 180.06 30.7 180.06 30.7 180.06 31.87 179.66 31.87 179.66 35.96 178.3 39.22 175.06 40.59 171ZM 52.2 143.51C 52.2 143.51 52.2 141.04 52.2 141.04 52.2 141.04 75.89 141.04 75.89 141.04 75.89 141.04 75.89 143.51 75.89 143.51 75.89 143.51 52.2 143.51 52.2 143.51ZM 69.59 160.16C 72.16 160.35 74.78 160.39 77.37 160.28 95.86 159.47 112.28 151.22 123.69 138.42 123.69 138.42 30.51 138.42 30.51 138.42 30.51 138.42 30.51 135.95 30.51 135.95 30.51 135.95 40.08 135.95 40.08 135.95 40.08 135.95 40.03 101.86 40.03 101.86 40.03 101.86 33.11 101.86 33.11 101.86 33.11 101.86 31.87 100.62 31.87 100.62 31.87 100.62 31.87 98.22 31.87 98.22 31.87 98.22 33.11 96.99 33.11 96.99 33.11 96.99 51.33 96.99 51.33 96.99 51.33 96.99 51.33 87.92 51.33 87.92 51.33 87.92 46.53 87.92 46.53 87.92 46.53 87.92 46.53 85.45 46.53 85.45 46.53 85.45 52 85.45 52 85.45 52 85.45 51.46 85.06 51.46 85.06 49.78 83.56 49.65 81.12 51.09 79.54 51.09 79.54 59.3 69.38 59.3 69.38 59.3 69.38 59.9 68.97 59.9 68.97 61.58 68.45 63.73 67.83 64.42 67.83 64.42 67.83 65.32 67.83 65.32 67.83 65.32 67.83 65.32 67.7 65.32 67.7 65.32 66.93 65.78 66.34 66.49 65.9 65.57 65.07 64.97 63.89 64.97 62.56 64.97 62.56 64.97 59.83 64.97 59.83 64.12 58.89 63.59 57.67 63.59 56.32 63.59 53.42 65.96 51.06 68.88 51.06 68.88 51.06 70.12 51.06 70.12 51.06 70.12 51.06 70.12 51.06 70.12 51.06 70.12 51.06 74.9 51.06 74.9 51.06 74.9 51.06 74.9 51.06 74.9 51.06 74.9 51.06 77.39 51.06 77.39 51.06 77.39 51.06 77.39 56.5 77.39 56.5 77.39 57.53 76.87 58.44 76.08 59 76.08 59 76.08 63.38 76.08 63.38 76.08 64.37 75.74 65.36 75.13 66.05 75.7 66.47 76.06 67.02 76.06 67.7 76.06 67.7 76.06 67.83 76.06 67.83 76.06 67.83 76.88 67.83 76.88 67.83 78.36 67.83 81.07 68.98 81.59 69.21 81.59 69.21 82.03 69.53 82.03 69.53 82.03 69.53 89.98 78.62 89.98 78.62 90.66 79.39 91 80.39 90.92 81.42 90.85 82.4 90.42 83.31 89.69 83.98 89.69 83.98 88.49 85.45 88.49 85.45 88.49 85.45 100.26 85.45 100.26 85.45 100.26 85.45 100.26 87.92 100.26 87.92 100.26 87.92 94.51 87.92 94.51 87.92 94.51 87.92 94.51 96.99 94.51 96.99 94.51 96.99 102.72 96.99 102.72 96.99 102.72 96.99 103.96 98.22 103.96 98.22 103.96 98.22 103.96 100.62 103.96 100.62 103.96 100.62 102.72 101.86 102.72 101.86 102.72 101.86 102.04 101.86 102.04 101.86 102.04 101.86 102.04 135.58 102.04 135.58 102.04 135.58 101.66 135.95 101.66 135.95 101.66 135.95 125.79 135.95 125.79 135.95 134.06 125.69 139.27 112.86 140.06 98.76 140.06 98.76 140.13 97.53 140.13 97.53 140.13 97.53 142.61 97.66 142.61 97.66 142.61 97.66 142.54 98.89 142.54 98.89 140.6 133.77 112.63 161.22 77.48 162.74 76.48 162.79 75.47 162.81 74.46 162.81 72.77 162.81 71.08 162.75 69.41 162.62 69.41 162.62 68.17 162.53 68.17 162.53 68.17 162.53 68.35 160.07 68.35 160.07 68.35 160.07 69.59 160.16 69.59 160.16ZM 73.51 134.34C 73.51 134.34 79.09 134.34 79.09 134.34 79.09 134.34 79.09 133.96 79.09 133.96 78.89 133.79 78.7 133.66 78.5 133.52 78.24 133.34 77.95 133.13 77.61 132.84 77.61 132.84 74.99 132.84 74.99 132.84 74.65 133.13 74.36 133.34 74.1 133.52 73.9 133.66 73.71 133.79 73.51 133.96 73.51 133.96 73.51 134.34 73.51 134.34ZM 69.72 135.95C 69.72 135.95 71.41 135.95 71.41 135.95 71.41 135.95 71.03 135.58 71.03 135.58 71.03 135.58 71.03 133.42 71.03 133.42 71.03 133.42 71.39 132.55 71.39 132.55 71.53 132.41 71.65 132.29 71.78 132.19 71.78 132.19 71.21 131.63 71.21 131.63 71.21 131.63 70.66 110.17 70.66 110.17 70.66 110.17 70.12 131.63 70.12 131.63 70.12 131.63 69.45 132.28 69.45 132.28 69.54 132.36 69.63 132.45 69.73 132.55 69.73 132.55 70.1 133.42 70.1 133.42 70.1 133.42 70.1 135.58 70.1 135.58 70.1 135.58 69.72 135.95 69.72 135.95ZM 62.04 134.34C 62.04 134.34 67.61 134.34 67.61 134.34 67.61 134.34 67.61 133.96 67.61 133.96 67.41 133.79 67.23 133.66 67.02 133.52 66.76 133.34 66.47 133.13 66.13 132.84 66.13 132.84 63.51 132.84 63.51 132.84 63.18 133.13 62.89 133.34 62.62 133.52 62.42 133.66 62.24 133.79 62.04 133.96 62.04 133.96 62.04 134.34 62.04 134.34ZM 61.99 130.37C 61.99 130.37 63.02 130.37 63.02 130.37 63.02 130.37 66.62 130.37 66.62 130.37 66.62 130.37 67.66 130.37 67.66 130.37 67.66 130.37 68.21 108.77 68.21 108.77 68.21 106.09 69.92 105.79 70.66 105.79 71.4 105.79 73.11 106.09 73.11 108.8 73.11 108.8 73.66 130.37 73.66 130.37 73.66 130.37 74.5 130.37 74.5 130.37 74.5 130.37 78.1 130.37 78.1 130.37 78.1 130.37 78.85 130.37 78.85 130.37 78.85 130.37 78.85 96.94 78.85 96.94 78.85 96.94 61.99 96.94 61.99 96.94 61.99 96.94 61.99 130.37 61.99 130.37ZM 40.08 106.66C 40.08 106.66 40.08 101.86 40.08 101.86 40.08 101.86 40.04 101.86 40.04 101.86 40.04 101.86 40.08 106.66 40.08 106.66 40.08 106.66 40.08 135.95 40.08 135.95 40.08 135.95 40.32 135.95 40.32 135.95 40.32 135.95 40.08 106.66 40.08 106.66ZM 42.57 101.86C 42.57 101.86 42.57 135.95 42.57 135.95 42.57 135.95 59.93 135.95 59.93 135.95 59.93 135.95 59.55 135.58 59.55 135.58 59.55 135.58 59.55 133.42 59.55 133.42 59.55 133.42 59.92 132.55 59.92 132.55 60.01 132.45 60.1 132.37 60.19 132.29 60.19 132.29 59.5 131.6 59.5 131.6 59.5 131.6 59.5 101.86 59.5 101.86 59.5 101.86 42.57 101.86 42.57 101.86ZM 59.97 80.57C 59.97 80.57 58.12 82.49 58.12 82.49 58.12 82.49 59.77 83.73 59.77 83.73 59.77 83.73 59.97 80.57 59.97 80.57ZM 59.32 90.85C 59.32 90.85 55.35 87.92 55.35 87.92 55.35 87.92 53.81 87.92 53.81 87.92 53.81 87.92 53.81 96.99 53.81 96.99 53.81 96.99 59.5 96.99 59.5 96.99 59.5 96.99 59.5 96.86 59.5 96.86 59.5 96.86 58.95 96.83 58.95 96.83 58.95 96.83 59.32 90.85 59.32 90.85ZM 74.9 53.53C 74.9 53.53 68.87 53.53 68.87 53.53 68.87 53.53 68.87 53.53 68.87 53.53 67.33 53.53 66.07 54.78 66.07 56.32 66.07 57.19 66.48 57.96 67.12 58.47 67.12 58.47 67.45 58.47 67.45 58.47 67.45 58.47 67.45 58.7 67.45 58.7 67.87 58.95 68.35 59.1 68.88 59.1 68.88 59.1 70.12 59.1 70.12 59.1 70.12 59.1 70.12 61.57 70.12 61.57 70.12 61.57 68.88 61.57 68.88 61.57 68.38 61.57 67.91 61.48 67.45 61.35 67.45 61.35 67.45 62.56 67.45 62.56 67.45 63.67 68.37 64.58 69.49 64.58 69.49 64.58 70.73 64.58 70.73 64.58 70.73 64.58 70.73 64.96 70.73 64.96 71.16 64.96 71.58 64.99 71.99 65.03 71.99 65.03 71.99 64.49 71.99 64.49 71.99 64.49 73.23 64.49 73.23 64.49 73.35 64.43 73.6 63.94 73.6 63.38 73.6 63.38 73.6 59.57 73.6 59.57 73.6 59.57 73.06 59.57 73.06 59.57 73.06 59.57 73.06 57.1 73.06 57.1 73.06 57.1 74.3 57.1 74.3 57.1 74.63 57.1 74.9 56.83 74.9 56.5 74.9 56.5 74.9 53.53 74.9 53.53ZM 68.11 67.83C 68.11 67.83 73.28 67.83 73.28 67.83 72.8 67.64 71.95 67.43 70.69 67.43 69.43 67.43 68.58 67.64 68.11 67.83ZM 88.11 80.24C 88.11 80.24 80.35 71.36 80.35 71.36 79.22 70.89 77.54 70.3 76.88 70.3 76.88 70.3 64.42 70.3 64.42 70.3 64.09 70.33 62.45 70.78 61 71.22 61 71.22 52.98 81.14 52.98 81.14 52.42 81.76 52.46 82.64 53.03 83.15 53.03 83.15 56.17 85.45 56.17 85.45 56.17 85.45 56.17 85.45 56.17 85.45 56.17 85.45 56.17 85.46 56.17 85.46 56.17 85.46 59.51 87.91 59.51 87.91 59.51 87.91 59.59 86.69 59.59 86.69 59.59 86.69 55.51 83.62 55.51 83.62 55.51 83.62 55.36 81.78 55.36 81.78 55.36 81.78 60.53 76.43 60.53 76.43 60.53 76.43 62.66 77.36 62.66 77.36 62.66 77.36 61.59 94.47 61.59 94.47 61.59 94.47 79.69 94.47 79.69 94.47 79.69 94.47 78.35 77.53 78.35 77.53 78.35 77.53 80.46 76.56 80.46 76.56 80.46 76.56 85.3 81.33 85.3 81.33 85.3 81.33 85.66 82.21 85.66 82.21 85.66 82.21 85.23 83.2 85.23 83.2 85.23 83.2 81.54 86.38 81.54 86.38 81.54 86.38 81.81 89.77 81.81 89.77 81.81 89.77 87.97 82.19 87.97 82.19 88.25 81.95 88.42 81.61 88.44 81.24 88.47 80.87 88.35 80.52 88.11 80.24ZM 81.09 80.66C 81.09 80.66 81.3 83.32 81.3 83.32 81.3 83.32 82.63 82.18 82.63 82.18 82.63 82.18 81.09 80.66 81.09 80.66ZM 92.02 87.92C 92.02 87.92 86.49 87.92 86.49 87.92 86.49 87.92 82.09 93.35 82.09 93.35 82.09 93.35 82.37 96.8 82.37 96.8 82.37 96.8 81.34 96.88 81.34 96.88 81.34 96.88 81.34 96.99 81.34 96.99 81.34 96.99 92.02 96.99 92.02 96.99 92.02 96.99 92.02 87.92 92.02 87.92ZM 81.34 101.86C 81.34 101.86 81.34 131.6 81.34 131.6 81.34 131.6 80.79 132.15 80.79 132.15 80.92 132.27 81.06 132.4 81.21 132.55 81.21 132.55 81.57 133.42 81.57 133.42 81.57 133.42 81.57 135.58 81.57 135.58 81.57 135.58 81.19 135.95 81.19 135.95 81.19 135.95 99.27 135.95 99.27 135.95 99.27 135.95 99.5 101.86 99.5 101.86 99.5 101.86 81.34 101.86 81.34 101.86ZM 99.56 101.86C 99.56 101.86 99.51 101.86 99.51 101.86 99.51 101.86 99.56 135.95 99.56 135.95 99.56 135.95 99.56 135.95 99.56 135.95 99.56 135.95 99.56 101.86 99.56 101.86ZM 75.75 104.48C 75.75 104.48 74.36 104.47 74.36 104.47 74.36 104.47 72.41 103.14 72.41 103.14 72.41 103.14 71.87 102.12 71.87 102.12 71.87 102.12 71.87 98.04 71.87 98.04 71.87 98.04 74.36 98.04 74.36 98.04 74.36 98.04 74.36 101.47 74.36 101.47 74.36 101.47 75.08 101.96 75.08 101.96 75.08 101.96 75.84 101.46 75.84 101.46 75.84 101.46 75.84 98.04 75.84 98.04 75.84 98.04 78.32 98.04 78.32 98.04 78.32 98.04 78.32 102.13 78.32 102.13 78.32 102.13 77.77 103.16 77.77 103.16 77.77 103.16 75.75 104.48 75.75 104.48ZM 66.82 104.48C 66.82 104.48 65.43 104.47 65.43 104.47 65.43 104.47 63.48 103.14 63.48 103.14 63.48 103.14 62.94 102.12 62.94 102.12 62.94 102.12 62.94 98.04 62.94 98.04 62.94 98.04 65.42 98.04 65.42 98.04 65.42 98.04 65.42 101.47 65.42 101.47 65.42 101.47 66.15 101.96 66.15 101.96 66.15 101.96 66.91 101.46 66.91 101.46 66.91 101.46 66.91 98.04 66.91 98.04 66.91 98.04 69.39 98.04 69.39 98.04 69.39 98.04 69.39 102.13 69.39 102.13 69.39 102.13 68.83 103.16 68.83 103.16 68.83 103.16 66.82 104.48 66.82 104.48ZM 125.36 153.68C 125.36 153.68 127.54 153.68 127.54 153.68 127.54 153.68 131.56 160.99 131.56 160.99 131.56 160.99 138.92 164.99 138.92 164.99 138.92 164.99 138.92 167.16 138.92 167.16 138.92 167.16 131.56 171.15 131.56 171.15 131.56 171.15 127.54 178.46 127.54 178.46 127.54 178.46 125.36 178.46 125.36 178.46 125.36 178.46 121.34 171.15 121.34 171.15 121.34 171.15 113.99 167.16 113.99 167.16 113.99 167.16 113.99 164.99 113.99 164.99 113.99 164.99 121.34 160.99 121.34 160.99 121.34 160.99 125.36 153.68 125.36 153.68ZM 122.85 169.16C 122.85 169.16 123.35 169.65 123.35 169.65 123.35 169.65 126.45 175.3 126.45 175.3 126.45 175.3 129.56 169.65 129.56 169.65 129.56 169.65 130.05 169.16 130.05 169.16 130.05 169.16 135.73 166.07 135.73 166.07 135.73 166.07 130.05 162.99 130.05 162.99 130.05 162.99 129.56 162.49 129.56 162.49 129.56 162.49 126.45 156.85 126.45 156.85 126.45 156.85 123.35 162.49 123.35 162.49 123.35 162.49 122.85 162.99 122.85 162.99 122.85 162.99 117.17 166.07 117.17 166.07 117.17 166.07 122.85 169.16 122.85 169.16ZM 138.65 156.19C 138.65 156.19 143.38 151.49 143.38 151.49 143.38 151.49 145.13 151.49 145.13 151.49 145.13 151.49 149.86 156.19 149.86 156.19 149.86 156.19 149.86 157.93 149.86 157.93 149.86 157.93 145.13 162.63 145.13 162.63 145.13 162.63 143.38 162.63 143.38 162.63 143.38 162.63 138.65 157.93 138.65 157.93 138.65 157.93 138.65 156.19 138.65 156.19ZM 144.26 160.01C 144.26 160.01 147.23 157.06 147.23 157.06 147.23 157.06 144.26 154.11 144.26 154.11 144.26 154.11 141.29 157.06 141.29 157.06 141.29 157.06 144.26 160.01 144.26 160.01Z" fill="#FFF"/></svg>