<svg xmlns="http://www.w3.org/2000/svg" width="62" height="84" viewBox="0 0 31 42"><path d="M 29.95 42C 29.95 42 1.91 42 1.91 42 1.91 42 0.92 41 0.92 41 0.92 41 0.92 1 0.92 1 0.92 1 1.91-0 1.91-0 1.91-0 29.95-0 29.95-0 29.95-0 30.94 1 30.94 1 30.94 1 30.94 41 30.94 41 30.94 41 29.95 42 29.95 42ZM 28.96 2C 28.96 2 2.9 2 2.9 2 2.9 2 2.9 40 2.9 40 2.9 40 28.96 40 28.96 40 28.96 40 28.96 2 28.96 2ZM 7.73 17.33C 9.24 17.33 10.46 18.56 10.46 20.08 10.46 21.59 9.24 22.83 7.73 22.83 6.23 22.83 5.01 21.59 5.01 20.08 5.01 18.56 6.23 17.33 7.73 17.33ZM 7.73 20.83C 8.14 20.83 8.48 20.49 8.48 20.08 8.48 19.66 8.14 19.33 7.73 19.33 7.33 19.33 6.99 19.66 6.99 20.08 6.99 20.49 7.33 20.83 7.73 20.83ZM 7.73 24.55C 9.24 24.55 10.46 25.79 10.46 27.3 10.46 28.82 9.24 30.05 7.73 30.05 6.23 30.05 5.01 28.82 5.01 27.3 5.01 25.79 6.23 24.55 7.73 24.55ZM 7.73 28.05C 8.14 28.05 8.48 27.72 8.48 27.3 8.48 26.89 8.14 26.55 7.73 26.55 7.33 26.55 6.99 26.89 6.99 27.3 6.99 27.72 7.33 28.05 7.73 28.05ZM 7.73 31.78C 9.24 31.78 10.46 33.01 10.46 34.53 10.46 36.05 9.24 37.28 7.73 37.28 6.23 37.28 5.01 36.05 5.01 34.53 5.01 33.01 6.23 31.78 7.73 31.78ZM 7.73 35.28C 8.14 35.28 8.48 34.95 8.48 34.53 8.48 34.12 8.14 33.78 7.73 33.78 7.33 33.78 6.99 34.12 6.99 34.53 6.99 34.95 7.33 35.28 7.73 35.28ZM 15.73 17.33C 17.23 17.33 18.45 18.56 18.45 20.08 18.45 21.59 17.23 22.83 15.73 22.83 14.23 22.83 13.01 21.59 13.01 20.08 13.01 18.56 14.23 17.33 15.73 17.33ZM 15.73 20.83C 16.14 20.83 16.47 20.49 16.47 20.08 16.47 19.66 16.14 19.33 15.73 19.33 15.32 19.33 14.99 19.66 14.99 20.08 14.99 20.49 15.32 20.83 15.73 20.83ZM 15.73 24.55C 17.23 24.55 18.45 25.79 18.45 27.3 18.45 28.82 17.23 30.05 15.73 30.05 14.23 30.05 13.01 28.82 13.01 27.3 13.01 25.79 14.23 24.55 15.73 24.55ZM 15.73 28.05C 16.14 28.05 16.47 27.72 16.47 27.3 16.47 26.89 16.14 26.55 15.73 26.55 15.32 26.55 14.99 26.89 14.99 27.3 14.99 27.72 15.32 28.05 15.73 28.05ZM 15.73 31.78C 17.23 31.78 18.45 33.01 18.45 34.53 18.45 36.05 17.23 37.28 15.73 37.28 14.23 37.28 13.01 36.05 13.01 34.53 13.01 33.01 14.23 31.78 15.73 31.78ZM 15.73 35.28C 16.14 35.28 16.47 34.95 16.47 34.53 16.47 34.12 16.14 33.78 15.73 33.78 15.32 33.78 14.99 34.12 14.99 34.53 14.99 34.95 15.32 35.28 15.73 35.28ZM 23.72 17.33C 25.23 17.33 26.45 18.56 26.45 20.08 26.45 21.59 25.23 22.83 23.72 22.83 22.22 22.83 21 21.59 21 20.08 21 18.56 22.22 17.33 23.72 17.33ZM 23.72 20.83C 24.13 20.83 24.47 20.49 24.47 20.08 24.47 19.66 24.13 19.33 23.72 19.33 23.32 19.33 22.98 19.66 22.98 20.08 22.98 20.49 23.32 20.83 23.72 20.83ZM 23.85 24.46C 25.35 24.46 26.57 25.69 26.57 27.21 26.57 27.21 26.57 34.83 26.57 34.83 26.57 36.35 25.35 37.58 23.85 37.58 22.35 37.58 21.13 36.35 21.13 34.83 21.13 34.83 21.13 27.21 21.13 27.21 21.13 25.69 22.35 24.46 23.85 24.46ZM 23.11 34.83C 23.11 35.25 23.44 35.58 23.85 35.58 24.26 35.58 24.59 35.25 24.59 34.83 24.59 34.83 24.59 27.21 24.59 27.21 24.59 26.8 24.26 26.46 23.85 26.46 23.44 26.46 23.11 26.8 23.11 27.21 23.11 27.21 23.11 34.83 23.11 34.83ZM 6.03 13.71C 6.03 13.71 5.04 12.71 5.04 12.71 5.04 12.71 5.04 5.37 5.04 5.37 5.04 5.37 6.03 4.37 6.03 4.37 6.03 4.37 25.21 4.37 25.21 4.37 25.21 4.37 26.2 5.37 26.2 5.37 26.2 5.37 26.2 12.71 26.2 12.71 26.2 12.71 25.21 13.71 25.21 13.71 25.21 13.71 6.03 13.71 6.03 13.71ZM 24.22 6.37C 24.22 6.37 7.02 6.37 7.02 6.37 7.02 6.37 7.02 11.71 7.02 11.71 7.02 11.71 24.22 11.71 24.22 11.71 24.22 11.71 24.22 6.37 24.22 6.37Z" fill="#F2F2F2"/></svg>