<svg xmlns="http://www.w3.org/2000/svg" width="18" height="21" viewBox="0 0 18 21"><path d="M 17.72 2.1C 17.72 2.1 16.11 2.1 16.11 2.1 16.11 2.1 15.97 0.87 15.97 0.87 15.97 0.87 14.99-0.01 14.99-0.01 14.99-0.01 2.54-0.01 2.54-0.01 2.54-0.01 1.57 0.88 1.57 0.88 1.57 0.88 1.43 2.1 1.43 2.1 1.43 2.1-0.33 2.1-0.33 2.1-0.33 2.1-0.33 6.26-0.33 6.26-0.33 6.26 0.97 6.26 0.97 6.26 0.97 6.26 0.46 10.91 0.46 10.91 0.46 10.91 0.45 17.91 0.45 17.91 0.45 17.91 0.88 18.34 0.88 18.34 0.88 18.34 0.88 21 0.88 21 0.88 21 2.84 21 2.84 21 2.84 21 2.84 18.9 2.84 18.9 2.84 18.9 14.75 18.9 14.75 18.9 14.75 18.9 14.75 21 14.75 21 14.75 21 16.7 21 16.7 21 16.7 21 16.7 18.29 16.7 18.29 16.7 18.29 17.08 17.91 17.08 17.91 17.08 17.91 17.08 10.46 17.08 10.46 17.08 10.46 16.59 6.26 16.59 6.26 16.59 6.26 17.72 6.26 17.72 6.26 17.72 6.26 17.72 2.1 17.72 2.1ZM 3.42 1.99C 3.42 1.99 14.12 1.99 14.12 1.99 14.12 1.99 15.07 10.02 15.07 10.02 15.07 10.02 2.53 10.02 2.53 10.02 2.53 10.02 3.42 1.99 3.42 1.99ZM 2.41 15.47C 2.41 15.47 4.93 15.47 4.93 15.47 4.93 15.47 4.93 13.47 4.93 13.47 4.93 13.47 2.41 13.47 2.41 13.47 2.41 13.47 2.41 12.02 2.41 12.02 2.41 12.02 15.12 12.02 15.12 12.02 15.12 12.02 15.12 13.47 15.12 13.47 15.12 13.47 12.51 13.47 12.51 13.47 12.51 13.47 12.51 15.47 12.51 15.47 12.51 15.47 15.12 15.47 15.12 15.47 15.12 15.47 15.12 16.91 15.12 16.91 15.12 16.91 2.41 16.91 2.41 16.91 2.41 16.91 2.41 15.47 2.41 15.47Z" fill="#AB3933"/></svg>