<svg xmlns="http://www.w3.org/2000/svg" width="20" height="19" viewBox="0 0 20 19"><path d="M 19.53 9.62C 19.53 9.62 16.61 9.62 16.61 9.62 16.61 9.62 16.61 12.56 16.61 12.56 16.61 12.78 16.43 12.96 16.21 12.96 16.21 12.96 15.38 12.96 15.38 12.96 15.15 12.96 14.97 12.78 14.97 12.56 14.97 12.56 14.97 9.62 14.97 9.62 14.97 9.62 12.06 9.62 12.06 9.62 11.84 9.62 11.66 9.44 11.66 9.21 11.66 9.21 11.66 8.37 11.66 8.37 11.66 8.15 11.84 7.97 12.06 7.97 12.06 7.97 14.97 7.97 14.97 7.97 14.97 7.97 14.97 5.03 14.97 5.03 14.97 4.8 15.15 4.62 15.38 4.62 15.38 4.62 16.21 4.62 16.21 4.62 16.43 4.62 16.61 4.8 16.61 5.03 16.61 5.03 16.61 7.97 16.61 7.97 16.61 7.97 19.53 7.97 19.53 7.97 19.75 7.97 19.93 8.15 19.93 8.37 19.93 8.37 19.93 9.21 19.93 9.21 19.93 9.44 19.75 9.62 19.53 9.62ZM 10.79 2.43C 10.72 2.48 10.64 2.51 10.55 2.51 10.55 2.51 10.14 2.51 10.14 2.51 10.67 3.15 10.98 4.06 10.98 5.09 10.98 6.22 10.41 7.29 9.38 8.11 8.58 8.74 8.55 8.91 8.55 9.27 8.56 9.46 9.11 10.11 9.73 10.54 11.16 11.56 11.69 12.56 11.69 14.24 11.69 15.98 10.38 17.49 8.34 18.08 7.69 18.27 6.99 18.37 6.25 18.37 5.42 18.37 4.63 18.27 3.89 18.08 2.46 17.72 1.4 17.03 0.91 16.14 0.7 15.76 0.59 15.35 0.59 14.92 0.59 14.49 0.69 14.05 0.9 13.61 1.68 11.92 3.75 10.79 6.03 10.79 6.06 10.79 6.08 10.79 6.1 10.79 5.91 10.46 5.82 10.12 5.82 9.76 5.82 9.58 5.85 9.4 5.89 9.22 3.49 9.16 1.7 7.39 1.7 5.06 1.7 3.41 3.01 1.8 4.88 1.15 5.44 0.96 6.01 0.86 6.57 0.86 6.57 0.86 11.7 0.86 11.7 0.86 11.87 0.86 12.03 0.97 12.08 1.14 12.14 1.31 12.08 1.49 11.93 1.59 11.93 1.59 10.79 2.43 10.79 2.43ZM 3.25 14.37C 3.25 15.69 4.56 16.73 6.24 16.73 8.44 16.73 9.57 15.96 9.57 14.45 9.57 14.3 9.55 14.15 9.51 14.01 9.36 13.42 8.83 13.05 8.02 12.5 7.91 12.42 7.79 12.34 7.67 12.26 7.32 12.15 6.95 12.09 6.57 12.09 6.57 12.09 6.53 12.09 6.53 12.09 4.78 12.09 3.25 13.15 3.25 14.37ZM 8.33 5.24C 8.13 3.71 7.05 2.44 5.92 2.4 5.92 2.4 5.87 2.4 5.87 2.4 5.47 2.4 5.11 2.57 4.84 2.88 4.42 3.37 4.24 4.14 4.35 4.99 4.55 6.52 5.65 7.84 6.77 7.88 6.77 7.88 6.78 7.88 6.78 7.88 6.78 7.88 6.78 7.88 6.78 7.88 7.2 7.88 7.56 7.71 7.83 7.4 8.26 6.91 8.44 6.1 8.33 5.24Z" fill="#EBEFF0"/></svg>