<svg xmlns="http://www.w3.org/2000/svg" width="16" height="19" viewBox="0 0 16 19"><path d="M 14.94 6.77C 14.94 6.77 8.84 6.77 8.84 6.77 8.84 6.77 8.84 8.81 8.84 8.81 8.84 8.81 13.95 8.81 13.95 8.81 13.95 8.81 13.95 13.35 13.95 13.35 13.95 13.35 12.36 15.93 12.36 15.93 12.36 15.93 7.2 15.93 7.2 15.93 7.2 15.93 5.51 14.4 5.51 14.4 5.51 14.4 4.85 14.14 4.85 14.14 4.85 14.14 1.89 14.14 1.89 14.14 1.89 14.14 1.89 8.81 1.89 8.81 1.89 8.81 4.31 8.81 4.31 8.81 4.31 8.81 4.95 8.56 4.95 8.56 4.95 8.56 8.4 5.52 8.4 5.52 8.4 5.52 8.67 5.15 8.67 5.15 8.67 5.15 10.57 0.53 10.57 0.53 10.57 0.53 8.75-0.27 8.75-0.27 8.75-0.27 6.94 4.13 6.94 4.13 6.94 4.13 3.95 6.77 3.95 6.77 3.95 6.77 0.9 6.77 0.9 6.77 0.9 6.77-0.09 7.79-0.09 7.79-0.09 7.79-0.09 18.69-0.09 18.69-0.09 18.69 1.89 18.69 1.89 18.69 1.89 18.69 1.89 16.18 1.89 16.18 1.89 16.18 4.48 16.18 4.48 16.18 4.48 16.18 6.17 17.72 6.17 17.72 6.17 17.72 6.82 17.97 6.82 17.97 6.82 17.97 12.9 17.97 12.9 17.97 12.9 17.97 13.73 17.5 13.73 17.5 13.73 17.5 15.78 14.2 15.78 14.2 15.78 14.2 15.93 13.65 15.93 13.65 15.93 13.65 15.93 7.79 15.93 7.79 15.93 7.79 14.94 6.77 14.94 6.77Z" fill="#AA3933"/></svg>