<svg xmlns="http://www.w3.org/2000/svg" width="51" height="51" viewBox="0 0 51 51"><clipPath id="clip0"><circle cx="25.5" cy="25.5" r="25.5"/></clipPath><circle cx="25.5" cy="25.5" r="25.5" fill="#E7EBEF"/><path d="M 44.16 51C 44.16 51 28.7 51 28.7 51 28.7 51 32.84 43.23 32.84 43.23 32.84 43.23 30.86 38.81 30.86 38.81 30.87 38.81 30.88 38.8 30.89 38.8 30.89 38.8 31.33 38.8 31.33 38.8 31.47 38.8 31.61 38.84 31.73 38.91 36.57 40.15 41.06 42.74 44.75 46.43 44.91 46.59 45 46.81 45 47.05 45 47.05 45 50.14 45 50.14 45 50.62 44.62 51 44.16 51ZM 34.45 25.56C 34.45 26.49 33.76 27.24 32.9 27.24 32.9 27.24 32.89 27.24 32.88 27.24 32.7 29.74 31.55 32.23 29.84 33.94 29.84 33.94 29.84 36.61 29.84 36.61 29.84 36.7 29.82 36.79 29.78 36.87 29.56 37.32 27.55 41.33 25.01 41.33 25 41.33 25 41.33 25 41.33 25 41.33 24.96 41.33 24.96 41.33 22.4 41.27 20.38 37.32 20.15 36.87 20.11 36.79 20.09 36.7 20.09 36.61 20.09 36.61 20.09 33.87 20.09 33.87 18.42 32.16 17.3 29.7 17.12 27.24 17.11 27.24 17.1 27.24 17.09 27.24 16.24 27.24 15.55 26.49 15.55 25.56 15.55 24.87 15.93 24.28 16.46 24.02 16.15 23.02 15.98 21.95 15.98 20.84 15.98 15.4 20.02 10.99 25 10.99 29.98 10.99 34.02 15.4 34.02 20.84 34.02 21.95 33.85 23.02 33.54 24.02 34.07 24.28 34.45 24.87 34.45 25.56ZM 18.79 38.8C 18.79 38.8 19.11 38.8 19.11 38.8 19.12 38.8 19.14 38.81 19.16 38.81 19.16 38.81 17.13 43.33 17.13 43.33 17.13 43.33 21.2 51 21.2 51 21.2 51 5.84 51 5.84 51 5.38 51 5 50.62 5 50.14 5 50.14 5 47.05 5 47.05 5 46.81 5.09 46.59 5.25 46.43 9.02 42.66 13.63 40.03 18.6 38.82 18.66 38.81 18.72 38.8 18.79 38.8ZM 23.47 43.21C 23.51 43.08 23.64 42.99 23.78 43.01 23.95 43.03 24.08 43.05 24.18 43.07 24.45 43.11 24.58 43.14 25 43.14 25.41 43.14 25.54 43.11 25.8 43.07 25.91 43.06 26.04 43.03 26.21 43.01 26.35 42.99 26.48 43.08 26.51 43.22 26.51 43.22 27.35 46.31 27.35 46.31 27.36 46.35 27.36 46.39 27.35 46.44 27.35 46.44 26.61 50.75 26.61 50.75 26.58 50.89 26.47 50.99 26.33 50.99 26.33 50.99 23.61 50.99 23.61 50.99 23.47 50.99 23.36 50.89 23.33 50.75 23.33 50.75 22.58 46.52 22.58 46.52 22.57 46.48 22.57 46.43 22.59 46.39 22.59 46.39 23.47 43.21 23.47 43.21Z" fill="#FFF" clip-path="url(#clip0)"/></svg>