<svg xmlns="http://www.w3.org/2000/svg" width="64" height="64" viewBox="0 0 32 32"><path d="M 16 32C 7.16 32-0 24.84-0 16-0 7.16 7.16-0 16-0 24.84-0 32 7.16 32 16 32 24.84 24.84 32 16 32ZM 21.06 8.82C 21.06 8.82 16.03 13.85 16.03 13.85 16.03 13.85 11.09 8.91 11.09 8.91 11.09 8.91 8.91 11.09 8.91 11.09 8.91 11.09 13.85 16.03 13.85 16.03 13.85 16.03 8.82 21.06 8.82 21.06 8.82 21.06 10.94 23.18 10.94 23.18 10.94 23.18 15.97 18.15 15.97 18.15 15.97 18.15 20.91 23.09 20.91 23.09 20.91 23.09 23.09 20.91 23.09 20.91 23.09 20.91 18.15 15.97 18.15 15.97 18.15 15.97 23.18 10.94 23.18 10.94 23.18 10.94 21.06 8.82 21.06 8.82Z" fill="#DBE3E7"/></svg>