<?xml version="1.0" encoding="UTF-8"?><!DOCTYPE svg PUBLIC "-//W3C//DTD SVG 1.1//EN" "http://www.w3.org/Graphics/SVG/1.1/DTD/svg11.dtd"><svg xmlns="http://www.w3.org/2000/svg" xmlns:xlink="http://www.w3.org/1999/xlink" height="2509" viewBox="0 0 394 2509" width="394"><svg height="482" viewBox="0 0 130 241" width="260" x="0" y="0"><path d="M 117.09 225.02C 117.09 225.02 124.63 232.52 124.63 232.52 125.57 233.46 126.09 234.71 126.09 236.03 126.09 237.36 125.57 238.61 124.63 239.55 123.66 240.51 122.38 241 121.1 241 119.82 241 118.55 240.51 117.58 239.55 117.58 239.55 109.16 231.16 109.16 231.16 102.68 235.06 95.09 237.31 86.98 237.31 78.88 237.31 71.31 235.04 64.83 231.14 64.83 231.14 56.39 239.55 56.39 239.55 55.42 240.51 54.14 241 52.87 241 51.59 241 50.31 240.51 49.34 239.55 47.4 237.61 47.4 234.46 49.34 232.52 49.34 232.52 56.89 225.01 56.89 225.01 54.53 222.7 52.43 220.14 50.65 217.35 50.65 217.35-0 217.35-0 217.35-0 217.35-0 213.63-0 213.63-0 213.63 48.53 213.63 48.53 213.63 45.62 207.86 43.97 201.36 43.97 194.48 43.97 175.36 56.62 159.14 74.01 153.65 74.58 146.72 80.41 141.26 87.51 141.26 94.74 141.26 100.64 146.91 101.03 154.01 117.87 159.82 130 175.76 130 194.48 130 206.43 125.05 217.25 117.09 225.02ZM 120.22 236.91C 120.69 237.38 121.51 237.38 121.98 236.91 122.22 236.68 122.35 236.37 122.35 236.03 122.35 235.7 122.22 235.39 121.98 235.16 121.98 235.16 114.32 227.52 114.32 227.52 113.67 228.05 113 228.56 112.33 229.05 112.33 229.05 120.22 236.91 120.22 236.91ZM 51.98 235.16C 51.75 235.39 51.62 235.7 51.62 236.03 51.62 236.37 51.75 236.68 51.98 236.91 52.45 237.38 53.28 237.38 53.75 236.91 53.75 236.91 61.65 229.05 61.65 229.05 60.97 228.56 60.31 228.04 59.66 227.51 59.66 227.51 51.98 235.16 51.98 235.16ZM 87.51 144.98C 82.84 144.98 78.93 148.25 77.94 152.61 80.86 151.99 83.88 151.65 86.98 151.65 90.48 151.65 93.88 152.08 97.14 152.87 96.26 148.38 92.28 144.98 87.51 144.98ZM 86.98 155.38C 83.78 155.38 80.68 155.77 77.7 156.49 77.7 156.49 77.7 156.62 77.7 156.62 77.7 156.62 77.14 156.62 77.14 156.62 60.23 160.98 47.71 176.3 47.71 194.48 47.71 216.04 65.33 233.58 86.98 233.58 108.64 233.58 126.26 216.04 126.26 194.48 126.26 172.92 108.64 155.38 86.98 155.38ZM 86.98 227.99C 68.42 227.99 53.32 212.96 53.32 194.48 53.32 176 68.42 160.96 86.98 160.96 105.55 160.96 120.65 176 120.65 194.48 120.65 212.96 105.55 227.99 86.98 227.99ZM 88.94 164.76C 88.94 164.76 88.94 172.73 88.94 172.73 88.94 172.73 85.2 172.73 85.2 172.73 85.2 172.73 85.2 164.74 85.2 164.74 70.37 165.62 58.42 177.29 57.18 191.96 57.18 191.96 65.89 191.96 65.89 191.96 65.89 191.96 65.89 195.68 65.89 195.68 65.89 195.68 57.09 195.68 57.09 195.68 57.71 210.96 69.93 223.31 85.2 224.21 85.2 224.21 85.2 214.91 85.2 214.91 85.2 214.91 88.94 214.91 88.94 214.91 88.94 214.91 88.94 224.2 88.94 224.2 104.13 223.22 116.27 210.9 116.88 195.68 116.88 195.68 108.25 195.68 108.25 195.68 108.25 195.68 108.25 191.96 108.25 191.96 108.25 191.96 116.79 191.96 116.79 191.96 115.56 177.35 103.69 165.71 88.94 164.76ZM 89.56 195.02C 89.56 195.02 86.43 197.05 86.43 197.05 86.43 197.05 73.5 177.25 73.5 177.25 73.5 177.25 76.63 175.22 76.63 175.22 76.63 175.22 87.5 191.87 87.5 191.87 87.5 191.87 96.33 185.86 96.33 185.86 96.33 185.86 98.44 188.94 98.44 188.94 98.44 188.94 89.54 194.99 89.54 194.99 89.54 194.99 89.56 195.02 89.56 195.02ZM 94.81 26.1C 94.81 26.1 85.45 26.1 85.45 26.1 85.45 26.1 85.45 136.57 85.45 136.57 85.45 136.57 81.71 136.57 81.71 136.57 81.71 136.57 81.71 26.1 81.71 26.1 81.71 26.1 81.09 26.1 81.09 26.1 81.09 26.1 52.72 26.1 52.72 26.1 52.72 26.1 52.72 22.38 52.72 22.38 52.72 22.38 81.09 22.38 81.09 22.38 81.09 22.38 83.58 22.38 83.58 22.38 83.58 22.38 96.68 22.38 96.68 22.38 96.68 22.38 98.55 24.24 98.55 24.24 98.55 24.24 98.55 137.81 98.55 137.81 98.55 137.81 94.81 137.81 94.81 137.81 94.81 137.81 94.81 26.1 94.81 26.1ZM 25.37 11.37C 25.37 13.5 23.62 15.24 21.47 15.24 19.32 15.24 17.58 13.5 17.58 11.37 17.58 9.23 19.32 7.49 21.47 7.49 23.62 7.49 25.37 9.23 25.37 11.37ZM 21.32 11.37C 21.32 11.54 21.63 11.54 21.63 11.37 21.63 11.28 21.56 11.21 21.47 11.21 21.38 11.21 21.32 11.28 21.32 11.37ZM 39.47 41.25C 39.47 41.25 3.47 41.25 3.47 41.25 2.25 41.25 1.08 41.01-0 40.59-0 40.59-0 36.36-0 36.36 0.97 37.08 2.17 37.52 3.47 37.52 3.47 37.52 39.47 37.52 39.47 37.52 42.69 37.52 45.31 34.91 45.31 31.7 45.31 28.5 42.69 25.89 39.47 25.89 39.47 25.89 31.92 25.89 31.92 25.89 31.92 25.89 30.05 24.02 30.05 24.02 30.05 24.02 30.05 12.26 30.05 12.26 30.05 7.55 26.2 3.72 21.47 3.72 16.74 3.72 12.9 7.55 12.9 12.26 12.9 12.26 12.9 24.02 12.9 24.02 12.9 24.02 11.03 25.89 11.03 25.89 11.03 25.89 3.47 25.89 3.47 25.89 2.17 25.89 0.97 26.33-0 27.05-0 27.05-0 22.82-0 22.82 1.08 22.4 2.25 22.16 3.47 22.16 3.47 22.16 9.15 22.16 9.15 22.16 9.15 22.16 9.15 12.26 9.15 12.26 9.15 5.5 14.68-0 21.47-0 28.26-0 33.79 5.5 33.79 12.26 33.79 12.26 33.79 22.16 33.79 22.16 33.79 22.16 39.47 22.16 39.47 22.16 44.76 22.16 49.05 26.44 49.05 31.7 49.05 36.97 44.76 41.25 39.47 41.25ZM-0 200.65C-0 200.65 39.94 200.65 39.94 200.65 39.94 200.65 39.94 204.37 39.94 204.37 39.94 204.37-0 204.37-0 204.37-0 204.37-0 200.65-0 200.65ZM-0 150.02C-0 150.02 58.82 150.02 58.82 150.02 58.82 150.02 58.82 153.74 58.82 153.74 58.82 153.74-0 153.74-0 153.74-0 153.74-0 150.02-0 150.02ZM 66.77 140.54C 66.77 140.54-0 140.54-0 140.54-0 140.54-0 136.82-0 136.82-0 136.82 66.77 136.82 66.77 136.82 66.77 136.82 66.77 140.54 66.77 140.54ZM 66.77 127.35C 66.77 127.35-0 127.35-0 127.35-0 127.35-0 123.63-0 123.63-0 123.63 66.77 123.63 66.77 123.63 66.77 123.63 66.77 127.35 66.77 127.35ZM 66.77 114.15C 66.77 114.15-0 114.15-0 114.15-0 114.15-0 110.43-0 110.43-0 110.43 66.77 110.43 66.77 110.43 66.77 110.43 66.77 114.15 66.77 114.15ZM 66.77 100.96C 66.77 100.96-0 100.96-0 100.96-0 100.96-0 97.23-0 97.23-0 97.23 66.77 97.23 66.77 97.23 66.77 97.23 66.77 100.96 66.77 100.96ZM 66.77 87.76C 66.77 87.76-0 87.76-0 87.76-0 87.76-0 84.04-0 84.04-0 84.04 66.77 84.04 66.77 84.04 66.77 84.04 66.77 87.76 66.77 87.76ZM 66.77 74.57C 66.77 74.57-0 74.57-0 74.57-0 74.57-0 70.84-0 70.84-0 70.84 66.77 70.84 66.77 70.84 66.77 70.84 66.77 74.57 66.77 74.57ZM 66.77 61.37C 66.77 61.37-0 61.37-0 61.37-0 61.37-0 57.65-0 57.65-0 57.65 66.77 57.65 66.77 57.65 66.77 57.65 66.77 61.37 66.77 61.37Z" fill="#AB3933"/></svg><svg height="388" viewBox="0 0 197 194" width="394" x="0" y="482"><path d="M 182.36 81.5C 173.15 90.29 161.27 94.65 149.42 94.65 136.89 94.65 124.38 89.78 115.04 80.1 106.24 70.97 101.53 58.99 101.8 46.35 101.87 42.93 102.32 39.58 103.09 36.34 93.37 31.66 82.51 29.42 71.65 29.89 35.49 31.46 7.35 61.98 8.93 97.93 9.41 108.76 12.6 119.37 18.18 128.6 18.18 128.6 18.82 129.66 18.82 129.66 18.82 129.66 16.68 130.94 16.68 130.94 16.68 130.94 16.05 129.88 16.05 129.88 10.26 120.29 6.94 109.27 6.45 98.03 5.66 79.96 11.99 62.66 24.29 49.33 36.58 35.99 53.36 28.21 71.54 27.42 82.67 26.96 93.76 29.2 103.74 33.92 106.05 26.1 110.37 18.97 116.45 13.18 125.63 4.42 137.67-0.28 150.4 0.02 163.12 0.28 174.97 5.45 183.77 14.58 201.95 33.41 201.31 63.44 182.36 81.5ZM 181.98 16.29C 173.64 7.64 162.4 2.74 150.35 2.48 150.03 2.48 149.7 2.47 149.38 2.47 137.69 2.47 126.64 6.89 118.17 14.96 109.47 23.25 104.54 34.42 104.29 46.4 104.03 58.38 108.49 69.74 116.83 78.39 134.06 96.25 162.68 96.84 180.64 79.72 189.35 71.42 194.28 60.26 194.53 48.28 194.78 36.3 190.32 24.93 181.98 16.29ZM 185.1 51.01C 185.1 51.01 179.73 51.01 179.73 51.01 179.73 51.01 179.73 51.53 179.73 51.53 179.73 51.53 178.49 52.76 178.49 52.76 178.49 52.76 170.65 52.76 170.65 52.76 170.65 52.76 169.69 53.71 169.69 53.71 169.69 53.71 160.74 53.71 160.74 53.71 160.74 53.71 160.05 53.02 160.05 53.02 160.05 53.02 159.87 53.2 159.87 53.2 159.87 53.2 159.2 52.54 159.2 52.54 159.2 52.54 141.12 52.54 141.12 52.54 141.12 52.54 140.46 53.2 140.46 53.2 140.46 53.2 140.28 53.02 140.28 53.02 140.28 53.02 139.58 53.71 139.58 53.71 139.58 53.71 130.18 53.71 130.18 53.71 130.18 53.71 129.22 52.76 129.22 52.76 129.22 52.76 121.42 52.76 121.42 52.76 121.42 52.76 120.18 51.53 120.18 51.53 120.18 51.53 120.18 51.01 120.18 51.01 120.18 51.01 114.38 51.01 114.38 51.01 114.38 51.01 113.14 49.78 113.14 49.78 113.14 49.78 113.14 48.43 113.14 48.43 113.14 48.43 114.38 47.19 114.38 47.19 114.38 47.19 120.18 47.19 120.18 47.19 120.18 47.19 120.18 46.68 120.18 46.68 120.18 46.68 121.42 45.45 121.42 45.45 121.42 45.45 129.22 45.45 129.22 45.45 129.22 45.45 130.18 44.5 130.18 44.5 130.18 44.5 130.78 44.5 130.78 44.5 130.78 44.5 128.54 39.47 128.54 39.47 128.54 39.47 129.14 37.85 129.14 37.85 129.14 37.85 130.45 37.24 130.45 37.24 130.45 37.24 128 32 128 32 128 32 128.6 30.37 128.6 30.37 128.6 30.37 129.64 29.88 129.64 29.88 129.64 29.88 131.29 30.47 131.29 30.47 131.29 30.47 133.74 35.71 133.74 35.71 133.74 35.71 135.04 35.1 135.04 35.1 135.04 35.1 136.7 35.71 136.7 35.71 136.7 35.71 140.68 44.5 140.68 44.5 140.68 44.5 169.69 44.5 169.69 44.5 169.69 44.5 170.65 45.45 170.65 45.45 170.65 45.45 178.49 45.45 178.49 45.45 178.49 45.45 179.73 46.68 179.73 46.68 179.73 46.68 179.73 47.19 179.73 47.19 179.73 47.19 185.1 47.19 185.1 47.19 185.1 47.19 186.34 48.43 186.34 48.43 186.34 48.43 186.34 49.78 186.34 49.78 186.34 49.78 185.1 51.01 185.1 51.01ZM 128.94 47.92C 128.94 47.92 122.67 47.92 122.67 47.92 122.67 47.92 122.67 48.43 122.67 48.43 122.67 48.43 122.67 49.78 122.67 49.78 122.67 49.78 122.67 50.29 122.67 50.29 122.67 50.29 128.94 50.29 128.94 50.29 128.94 50.29 128.94 47.92 128.94 47.92ZM 139.88 46.97C 139.88 46.97 138.74 46.24 138.74 46.24 138.74 46.24 134.95 37.87 134.95 37.87 134.95 37.87 133.57 38.51 133.57 38.51 133.57 38.51 132.62 38.96 132.62 38.96 132.62 38.96 132.62 38.96 132.62 38.96 132.62 38.96 131.3 39.57 131.3 39.57 131.3 39.57 133.82 45.23 133.82 45.23 133.82 45.23 132.69 46.97 132.69 46.97 132.69 46.97 131.42 46.97 131.42 46.97 131.42 46.97 131.42 51.24 131.42 51.24 131.42 51.24 138.91 51.24 138.91 51.24 138.91 51.24 139.73 50.43 139.73 50.43 139.73 50.43 140.6 50.07 140.6 50.07 140.6 50.07 148.16 50.07 148.16 50.07 148.16 50.07 148.16 46.97 148.16 46.97 148.16 46.97 139.88 46.97 139.88 46.97ZM 168.45 46.97C 168.45 46.97 150.65 46.97 150.65 46.97 150.65 46.97 150.65 50.07 150.65 50.07 150.65 50.07 159.72 50.07 159.72 50.07 159.72 50.07 160.6 50.43 160.6 50.43 160.6 50.43 161.41 51.24 161.41 51.24 161.41 51.24 168.45 51.24 168.45 51.24 168.45 51.24 168.45 46.97 168.45 46.97ZM 177.25 49.78C 177.25 49.78 177.25 48.43 177.25 48.43 177.25 48.43 177.25 47.92 177.25 47.92 177.25 47.92 170.98 47.92 170.98 47.92 170.98 47.92 170.98 50.29 170.98 50.29 170.98 50.29 177.25 50.29 177.25 50.29 177.25 50.29 177.25 49.78 177.25 49.78ZM 160.19 40.4C 160.19 40.4 160.28 37.93 160.28 37.93 160.28 37.93 169.1 38.24 169.1 38.24 169.1 38.24 169.02 40.7 169.02 40.7 169.02 40.7 160.19 40.4 160.19 40.4ZM 157.18 32.33C 157.18 32.33 163.7 26.5 163.7 26.5 163.7 26.5 165.36 28.33 165.36 28.33 165.36 28.33 158.85 34.17 158.85 34.17 158.85 34.17 157.18 32.33 157.18 32.33ZM 151.17 30.79C 151.17 30.79 151.48 22.01 151.48 22.01 151.48 22.01 153.96 22.1 153.96 22.1 153.96 22.1 153.66 30.87 153.66 30.87 153.66 30.87 151.17 30.79 151.17 30.79ZM 139.67 27.41C 139.67 27.41 141.49 25.73 141.49 25.73 141.49 25.73 146.19 30.74 146.19 30.74 146.19 30.74 144.37 32.42 144.37 32.42 144.37 32.42 139.67 27.41 139.67 27.41ZM 27.7 138.93C 42.97 138.93 55.39 151.28 55.39 166.46 55.39 181.64 42.97 194 27.7 194 12.42 194-0 181.64-0 166.46-0 151.28 12.42 138.93 27.7 138.93ZM 27.7 191.53C 41.6 191.53 52.91 180.28 52.91 166.46 52.91 152.64 41.6 141.4 27.7 141.4 13.79 141.4 2.48 152.64 2.48 166.46 2.48 180.28 13.79 191.53 27.7 191.53ZM 27.09 153.78C 27.09 153.78 27.09 151.87 27.09 151.87 27.09 151.87 27.39 151.15 27.39 151.15 27.39 151.15 25.37 151.15 25.37 151.15 25.37 151.15 25.37 148.68 25.37 148.68 25.37 148.68 29.49 148.68 29.49 148.68 29.49 148.68 30.73 149.91 30.73 149.91 30.73 149.91 30.73 150.72 30.73 150.72 30.73 150.72 30.37 151.6 30.37 151.6 30.37 151.6 29.58 152.39 29.58 152.39 29.58 152.39 29.58 153.93 29.58 153.93 29.58 153.93 29.44 153.93 29.44 153.93 35.33 154.88 39.85 159.95 39.85 166.06 39.85 172.85 34.3 178.37 27.47 178.37 20.65 178.37 15.1 172.85 15.1 166.06 15.1 159.41 20.45 153.98 27.09 153.78ZM 27.47 175.9C 32.92 175.9 37.36 171.49 37.36 166.06 37.36 160.64 32.92 156.23 27.47 156.23 22.02 156.23 17.58 160.64 17.58 166.06 17.58 171.49 22.02 175.9 27.47 175.9ZM 26.23 158.76C 26.23 158.76 28.71 158.76 28.71 158.76 28.71 158.76 28.71 167.7 28.71 167.7 28.71 167.7 28.04 167.7 28.04 167.7 28.04 167.7 23.35 171.28 23.35 171.28 23.35 171.28 21.83 169.33 21.83 169.33 21.83 169.33 26.23 165.96 26.23 165.96 26.23 165.96 26.23 158.76 26.23 158.76ZM 40.59 171C 40.59 171 40.99 169.83 40.99 169.83 40.99 169.83 43.34 170.62 43.34 170.62 43.34 170.62 42.95 171.79 42.95 171.79 41.33 176.58 37.48 180.4 32.66 182.01 32.66 182.01 31.49 182.4 31.49 182.4 31.49 182.4 30.7 180.06 30.7 180.06 30.7 180.06 31.87 179.66 31.87 179.66 35.96 178.3 39.22 175.06 40.59 171ZM 52.2 143.51C 52.2 143.51 52.2 141.04 52.2 141.04 52.2 141.04 75.89 141.04 75.89 141.04 75.89 141.04 75.89 143.51 75.89 143.51 75.89 143.51 52.2 143.51 52.2 143.51ZM 69.59 160.16C 72.16 160.35 74.78 160.39 77.37 160.28 95.86 159.47 112.28 151.22 123.69 138.42 123.69 138.42 30.51 138.42 30.51 138.42 30.51 138.42 30.51 135.95 30.51 135.95 30.51 135.95 40.08 135.95 40.08 135.95 40.08 135.95 40.03 101.86 40.03 101.86 40.03 101.86 33.11 101.86 33.11 101.86 33.11 101.86 31.87 100.62 31.87 100.62 31.87 100.62 31.87 98.22 31.87 98.22 31.87 98.22 33.11 96.99 33.11 96.99 33.11 96.99 51.33 96.99 51.33 96.99 51.33 96.99 51.33 87.92 51.33 87.92 51.33 87.92 46.53 87.92 46.53 87.92 46.53 87.92 46.53 85.45 46.53 85.45 46.53 85.45 52 85.45 52 85.45 52 85.45 51.46 85.06 51.46 85.06 49.78 83.56 49.65 81.12 51.09 79.54 51.09 79.54 59.3 69.38 59.3 69.38 59.3 69.38 59.9 68.97 59.9 68.97 61.58 68.45 63.73 67.83 64.42 67.83 64.42 67.83 65.32 67.83 65.32 67.83 65.32 67.83 65.32 67.7 65.32 67.7 65.32 66.93 65.78 66.34 66.49 65.9 65.57 65.07 64.97 63.89 64.97 62.56 64.97 62.56 64.97 59.83 64.97 59.83 64.12 58.89 63.59 57.67 63.59 56.32 63.59 53.42 65.96 51.06 68.88 51.06 68.88 51.06 70.12 51.06 70.12 51.06 70.12 51.06 70.12 51.06 70.12 51.06 70.12 51.06 74.9 51.06 74.9 51.06 74.9 51.06 74.9 51.06 74.9 51.06 74.9 51.06 77.39 51.06 77.39 51.06 77.39 51.06 77.39 56.5 77.39 56.5 77.39 57.53 76.87 58.44 76.08 59 76.08 59 76.08 63.38 76.08 63.38 76.08 64.37 75.74 65.36 75.13 66.05 75.7 66.47 76.06 67.02 76.06 67.7 76.06 67.7 76.06 67.83 76.06 67.83 76.06 67.83 76.88 67.83 76.88 67.83 78.36 67.83 81.07 68.98 81.59 69.21 81.59 69.21 82.03 69.53 82.03 69.53 82.03 69.53 89.98 78.62 89.98 78.62 90.66 79.39 91 80.39 90.92 81.42 90.85 82.4 90.42 83.31 89.69 83.98 89.69 83.98 88.49 85.45 88.49 85.45 88.49 85.45 100.26 85.45 100.26 85.45 100.26 85.45 100.26 87.92 100.26 87.92 100.26 87.92 94.51 87.92 94.51 87.92 94.51 87.92 94.51 96.99 94.51 96.99 94.51 96.99 102.72 96.99 102.72 96.99 102.72 96.99 103.96 98.22 103.96 98.22 103.96 98.22 103.96 100.62 103.96 100.62 103.96 100.62 102.72 101.86 102.72 101.86 102.72 101.86 102.04 101.86 102.04 101.86 102.04 101.86 102.04 135.58 102.04 135.58 102.04 135.58 101.66 135.95 101.66 135.95 101.66 135.95 125.79 135.95 125.79 135.95 134.06 125.69 139.27 112.86 140.06 98.76 140.06 98.76 140.13 97.53 140.13 97.53 140.13 97.53 142.61 97.66 142.61 97.66 142.61 97.66 142.54 98.89 142.54 98.89 140.6 133.77 112.63 161.22 77.48 162.74 76.48 162.79 75.47 162.81 74.46 162.81 72.77 162.81 71.08 162.75 69.41 162.62 69.41 162.62 68.17 162.53 68.17 162.53 68.17 162.53 68.35 160.07 68.35 160.07 68.35 160.07 69.59 160.16 69.59 160.16ZM 73.51 134.34C 73.51 134.34 79.09 134.34 79.09 134.34 79.09 134.34 79.09 133.96 79.09 133.96 78.89 133.79 78.7 133.66 78.5 133.52 78.24 133.34 77.95 133.13 77.61 132.84 77.61 132.84 74.99 132.84 74.99 132.84 74.65 133.13 74.36 133.34 74.1 133.52 73.9 133.66 73.71 133.79 73.51 133.96 73.51 133.96 73.51 134.34 73.51 134.34ZM 69.72 135.95C 69.72 135.95 71.41 135.95 71.41 135.95 71.41 135.95 71.03 135.58 71.03 135.58 71.03 135.58 71.03 133.42 71.03 133.42 71.03 133.42 71.39 132.55 71.39 132.55 71.53 132.41 71.65 132.29 71.78 132.19 71.78 132.19 71.21 131.63 71.21 131.63 71.21 131.63 70.66 110.17 70.66 110.17 70.66 110.17 70.12 131.63 70.12 131.63 70.12 131.63 69.45 132.28 69.45 132.28 69.54 132.36 69.63 132.45 69.73 132.55 69.73 132.55 70.1 133.42 70.1 133.42 70.1 133.42 70.1 135.58 70.1 135.58 70.1 135.58 69.72 135.95 69.72 135.95ZM 62.04 134.34C 62.04 134.34 67.61 134.34 67.61 134.34 67.61 134.34 67.61 133.96 67.61 133.96 67.41 133.79 67.23 133.66 67.02 133.52 66.76 133.34 66.47 133.13 66.13 132.84 66.13 132.84 63.51 132.84 63.51 132.84 63.18 133.13 62.89 133.34 62.62 133.52 62.42 133.66 62.24 133.79 62.04 133.96 62.04 133.96 62.04 134.34 62.04 134.34ZM 61.99 130.37C 61.99 130.37 63.02 130.37 63.02 130.37 63.02 130.37 66.62 130.37 66.62 130.37 66.62 130.37 67.66 130.37 67.66 130.37 67.66 130.37 68.21 108.77 68.21 108.77 68.21 106.09 69.92 105.79 70.66 105.79 71.4 105.79 73.11 106.09 73.11 108.8 73.11 108.8 73.66 130.37 73.66 130.37 73.66 130.37 74.5 130.37 74.5 130.37 74.5 130.37 78.1 130.37 78.1 130.37 78.1 130.37 78.85 130.37 78.85 130.37 78.85 130.37 78.85 96.94 78.85 96.94 78.85 96.94 61.99 96.94 61.99 96.94 61.99 96.94 61.99 130.37 61.99 130.37ZM 40.08 106.66C 40.08 106.66 40.08 101.86 40.08 101.86 40.08 101.86 40.04 101.86 40.04 101.86 40.04 101.86 40.08 106.66 40.08 106.66 40.08 106.66 40.08 135.95 40.08 135.95 40.08 135.95 40.32 135.95 40.32 135.95 40.32 135.95 40.08 106.66 40.08 106.66ZM 42.57 101.86C 42.57 101.86 42.57 135.95 42.57 135.95 42.57 135.95 59.93 135.95 59.93 135.95 59.93 135.95 59.55 135.58 59.55 135.58 59.55 135.58 59.55 133.42 59.55 133.42 59.55 133.42 59.92 132.55 59.92 132.55 60.01 132.45 60.1 132.37 60.19 132.29 60.19 132.29 59.5 131.6 59.5 131.6 59.5 131.6 59.5 101.86 59.5 101.86 59.5 101.86 42.57 101.86 42.57 101.86ZM 59.97 80.57C 59.97 80.57 58.12 82.49 58.12 82.49 58.12 82.49 59.77 83.73 59.77 83.73 59.77 83.73 59.97 80.57 59.97 80.57ZM 59.32 90.85C 59.32 90.85 55.35 87.92 55.35 87.92 55.35 87.92 53.81 87.92 53.81 87.92 53.81 87.92 53.81 96.99 53.81 96.99 53.81 96.99 59.5 96.99 59.5 96.99 59.5 96.99 59.5 96.86 59.5 96.86 59.5 96.86 58.95 96.83 58.95 96.83 58.95 96.83 59.32 90.85 59.32 90.85ZM 74.9 53.53C 74.9 53.53 68.87 53.53 68.87 53.53 68.87 53.53 68.87 53.53 68.87 53.53 67.33 53.53 66.07 54.78 66.07 56.32 66.07 57.19 66.48 57.96 67.12 58.47 67.12 58.47 67.45 58.47 67.45 58.47 67.45 58.47 67.45 58.7 67.45 58.7 67.87 58.95 68.35 59.1 68.88 59.1 68.88 59.1 70.12 59.1 70.12 59.1 70.12 59.1 70.12 61.57 70.12 61.57 70.12 61.57 68.88 61.57 68.88 61.57 68.38 61.57 67.91 61.48 67.45 61.35 67.45 61.35 67.45 62.56 67.45 62.56 67.45 63.67 68.37 64.58 69.49 64.58 69.49 64.58 70.73 64.58 70.73 64.58 70.73 64.58 70.73 64.96 70.73 64.96 71.16 64.96 71.58 64.99 71.99 65.03 71.99 65.03 71.99 64.49 71.99 64.49 71.99 64.49 73.23 64.49 73.23 64.49 73.35 64.43 73.6 63.94 73.6 63.38 73.6 63.38 73.6 59.57 73.6 59.57 73.6 59.57 73.06 59.57 73.06 59.57 73.06 59.57 73.06 57.1 73.06 57.1 73.06 57.1 74.3 57.1 74.3 57.1 74.63 57.1 74.9 56.83 74.9 56.5 74.9 56.5 74.9 53.53 74.9 53.53ZM 68.11 67.83C 68.11 67.83 73.28 67.83 73.28 67.83 72.8 67.64 71.95 67.43 70.69 67.43 69.43 67.43 68.58 67.64 68.11 67.83ZM 88.11 80.24C 88.11 80.24 80.35 71.36 80.35 71.36 79.22 70.89 77.54 70.3 76.88 70.3 76.88 70.3 64.42 70.3 64.42 70.3 64.09 70.33 62.45 70.78 61 71.22 61 71.22 52.98 81.14 52.98 81.14 52.42 81.76 52.46 82.64 53.03 83.15 53.03 83.15 56.17 85.45 56.17 85.45 56.17 85.45 56.17 85.45 56.17 85.45 56.17 85.45 56.17 85.46 56.17 85.46 56.17 85.46 59.51 87.91 59.51 87.91 59.51 87.91 59.59 86.69 59.59 86.69 59.59 86.69 55.51 83.62 55.51 83.62 55.51 83.62 55.36 81.78 55.36 81.78 55.36 81.78 60.53 76.43 60.53 76.43 60.53 76.43 62.66 77.36 62.66 77.36 62.66 77.36 61.59 94.47 61.59 94.47 61.59 94.47 79.69 94.47 79.69 94.47 79.69 94.47 78.35 77.53 78.35 77.53 78.35 77.53 80.46 76.56 80.46 76.56 80.46 76.56 85.3 81.33 85.3 81.33 85.3 81.33 85.66 82.21 85.66 82.21 85.66 82.21 85.23 83.2 85.23 83.2 85.23 83.2 81.54 86.38 81.54 86.38 81.54 86.38 81.81 89.77 81.81 89.77 81.81 89.77 87.97 82.19 87.97 82.19 88.25 81.95 88.42 81.61 88.44 81.24 88.47 80.87 88.35 80.52 88.11 80.24ZM 81.09 80.66C 81.09 80.66 81.3 83.32 81.3 83.32 81.3 83.32 82.63 82.18 82.63 82.18 82.63 82.18 81.09 80.66 81.09 80.66ZM 92.02 87.92C 92.02 87.92 86.49 87.92 86.49 87.92 86.49 87.92 82.09 93.35 82.09 93.35 82.09 93.35 82.37 96.8 82.37 96.8 82.37 96.8 81.34 96.88 81.34 96.88 81.34 96.88 81.34 96.99 81.34 96.99 81.34 96.99 92.02 96.99 92.02 96.99 92.02 96.99 92.02 87.92 92.02 87.92ZM 81.34 101.86C 81.34 101.86 81.34 131.6 81.34 131.6 81.34 131.6 80.79 132.15 80.79 132.15 80.92 132.27 81.06 132.4 81.21 132.55 81.21 132.55 81.57 133.42 81.57 133.42 81.57 133.42 81.57 135.58 81.57 135.58 81.57 135.58 81.19 135.95 81.19 135.95 81.19 135.95 99.27 135.95 99.27 135.95 99.27 135.95 99.5 101.86 99.5 101.86 99.5 101.86 81.34 101.86 81.34 101.86ZM 99.56 101.86C 99.56 101.86 99.51 101.86 99.51 101.86 99.51 101.86 99.56 135.95 99.56 135.95 99.56 135.95 99.56 135.95 99.56 135.95 99.56 135.95 99.56 101.86 99.56 101.86ZM 75.75 104.48C 75.75 104.48 74.36 104.47 74.36 104.47 74.36 104.47 72.41 103.14 72.41 103.14 72.41 103.14 71.87 102.12 71.87 102.12 71.87 102.12 71.87 98.04 71.87 98.04 71.87 98.04 74.36 98.04 74.36 98.04 74.36 98.04 74.36 101.47 74.36 101.47 74.36 101.47 75.08 101.96 75.08 101.96 75.08 101.96 75.84 101.46 75.84 101.46 75.84 101.46 75.84 98.04 75.84 98.04 75.84 98.04 78.32 98.04 78.32 98.04 78.32 98.04 78.32 102.13 78.32 102.13 78.32 102.13 77.77 103.16 77.77 103.16 77.77 103.16 75.75 104.48 75.75 104.48ZM 66.82 104.48C 66.82 104.48 65.43 104.47 65.43 104.47 65.43 104.47 63.48 103.14 63.48 103.14 63.48 103.14 62.94 102.12 62.94 102.12 62.94 102.12 62.94 98.04 62.94 98.04 62.94 98.04 65.42 98.04 65.42 98.04 65.42 98.04 65.42 101.47 65.42 101.47 65.42 101.47 66.15 101.96 66.15 101.96 66.15 101.96 66.91 101.46 66.91 101.46 66.91 101.46 66.91 98.04 66.91 98.04 66.91 98.04 69.39 98.04 69.39 98.04 69.39 98.04 69.39 102.13 69.39 102.13 69.39 102.13 68.83 103.16 68.83 103.16 68.83 103.16 66.82 104.48 66.82 104.48ZM 125.36 153.68C 125.36 153.68 127.54 153.68 127.54 153.68 127.54 153.68 131.56 160.99 131.56 160.99 131.56 160.99 138.92 164.99 138.92 164.99 138.92 164.99 138.92 167.16 138.92 167.16 138.92 167.16 131.56 171.15 131.56 171.15 131.56 171.15 127.54 178.46 127.54 178.46 127.54 178.46 125.36 178.46 125.36 178.46 125.36 178.46 121.34 171.15 121.34 171.15 121.34 171.15 113.99 167.16 113.99 167.16 113.99 167.16 113.99 164.99 113.99 164.99 113.99 164.99 121.34 160.99 121.34 160.99 121.34 160.99 125.36 153.68 125.36 153.68ZM 122.85 169.16C 122.85 169.16 123.35 169.65 123.35 169.65 123.35 169.65 126.45 175.3 126.45 175.3 126.45 175.3 129.56 169.65 129.56 169.65 129.56 169.65 130.05 169.16 130.05 169.16 130.05 169.16 135.73 166.07 135.73 166.07 135.73 166.07 130.05 162.99 130.05 162.99 130.05 162.99 129.56 162.49 129.56 162.49 129.56 162.49 126.45 156.85 126.45 156.85 126.45 156.85 123.35 162.49 123.35 162.49 123.35 162.49 122.85 162.99 122.85 162.99 122.85 162.99 117.17 166.07 117.17 166.07 117.17 166.07 122.85 169.16 122.85 169.16ZM 138.65 156.19C 138.65 156.19 143.38 151.49 143.38 151.49 143.38 151.49 145.13 151.49 145.13 151.49 145.13 151.49 149.86 156.19 149.86 156.19 149.86 156.19 149.86 157.93 149.86 157.93 149.86 157.93 145.13 162.63 145.13 162.63 145.13 162.63 143.38 162.63 143.38 162.63 143.38 162.63 138.65 157.93 138.65 157.93 138.65 157.93 138.65 156.19 138.65 156.19ZM 144.26 160.01C 144.26 160.01 147.23 157.06 147.23 157.06 147.23 157.06 144.26 154.11 144.26 154.11 144.26 154.11 141.29 157.06 141.29 157.06 141.29 157.06 144.26 160.01 144.26 160.01Z" fill="#FFF"/></svg><svg height="386" viewBox="0 0 183 193" width="366" x="0" y="870"><path d="M 174.78 14.26C 174.78 14.26 173.9 11.89 173.9 11.89 173.9 11.89 182.11 8.81 182.11 8.81 182.11 8.81 183 11.18 183 11.18 183 11.18 174.78 14.26 174.78 14.26ZM 168.9 8.29C 168.9 8.29 172.42 0.18 172.42 0.18 172.42 0.18 174.74 1.19 174.74 1.19 174.74 1.19 171.22 9.3 171.22 9.3 171.22 9.3 168.9 8.29 168.9 8.29ZM 159.5 0.92C 159.5 0.92 161.85-0 161.85-0 161.85-0 164.38 6.43 164.38 6.43 164.38 6.43 162.03 7.35 162.03 7.35 162.03 7.35 159.5 0.92 159.5 0.92ZM 173.62 44.12C 173.62 66.7 155.28 85.06 132.73 85.06 110.19 85.06 91.84 66.7 91.84 44.12 91.84 21.55 110.19 3.18 132.73 3.18 155.28 3.18 173.62 21.55 173.62 44.12ZM 132.73 5.71C 111.58 5.71 94.37 22.94 94.37 44.12 94.37 65.3 111.58 82.53 132.73 82.53 153.89 82.53 171.1 65.3 171.1 44.12 171.1 22.94 153.89 5.71 132.73 5.71ZM 165.97 48.66C 165.97 48.66 161.04 48.66 161.04 48.66 161.04 48.66 161.04 49.04 161.04 49.04 161.04 49.04 159.78 50.3 159.78 50.3 159.78 50.3 152.44 50.3 152.44 50.3 152.44 50.3 151.54 51.2 151.54 51.2 151.54 51.2 143.17 51.2 143.17 51.2 143.17 51.2 142.47 50.49 142.47 50.49 142.47 50.49 142.27 50.69 142.27 50.69 142.27 50.69 141.69 50.1 141.69 50.1 141.69 50.1 124.84 50.1 124.84 50.1 124.84 50.1 124.25 50.69 124.25 50.69 124.25 50.69 124.06 50.49 124.06 50.49 124.06 50.49 123.36 51.2 123.36 51.2 123.36 51.2 114.56 51.2 114.56 51.2 114.56 51.2 113.67 50.3 113.67 50.3 113.67 50.3 106.36 50.3 106.36 50.3 106.36 50.3 105.1 49.04 105.1 49.04 105.1 49.04 105.1 48.66 105.1 48.66 105.1 48.66 99.77 48.66 99.77 48.66 99.77 48.66 98.51 47.39 98.51 47.39 98.51 47.39 98.51 46.12 98.51 46.12 98.51 46.12 99.77 44.86 99.77 44.86 99.77 44.86 105.1 44.86 105.1 44.86 105.1 44.86 105.1 44.47 105.1 44.47 105.1 44.47 106.36 43.21 106.36 43.21 106.36 43.21 113.67 43.21 113.67 43.21 113.67 43.21 114.56 42.32 114.56 42.32 114.56 42.32 114.97 42.32 114.97 42.32 114.97 42.32 112.93 37.71 112.93 37.71 112.93 37.71 113.55 36.06 113.55 36.06 113.55 36.06 114.68 35.53 114.68 35.53 114.68 35.53 112.43 30.68 112.43 30.68 112.43 30.68 113.03 29 113.03 29 113.03 29 114.01 28.54 114.01 28.54 114.01 28.54 115.69 29.15 115.69 29.15 115.69 29.15 117.94 33.99 117.94 33.99 117.94 33.99 119.06 33.47 119.06 33.47 119.06 33.47 120.75 34.09 120.75 34.09 120.75 34.09 124.45 42.32 124.45 42.32 124.45 42.32 151.54 42.32 151.54 42.32 151.54 42.32 152.44 43.21 152.44 43.21 152.44 43.21 159.78 43.21 159.78 43.21 159.78 43.21 161.04 44.47 161.04 44.47 161.04 44.47 161.04 44.86 161.04 44.86 161.04 44.86 165.97 44.86 165.97 44.86 165.97 44.86 167.23 46.12 167.23 46.12 167.23 46.12 167.23 47.39 167.23 47.39 167.23 47.39 165.97 48.66 165.97 48.66ZM 113.3 45.74C 113.3 45.74 107.63 45.74 107.63 45.74 107.63 45.74 107.63 46.12 107.63 46.12 107.63 46.12 107.63 47.39 107.63 47.39 107.63 47.39 107.63 47.77 107.63 47.77 107.63 47.77 113.3 47.77 113.3 47.77 113.3 47.77 113.3 45.74 113.3 45.74ZM 131.29 44.84C 131.29 44.84 123.63 44.84 123.63 44.84 123.63 44.84 122.48 44.1 122.48 44.1 122.48 44.1 118.97 36.3 118.97 36.3 118.97 36.3 117.87 36.82 117.87 36.82 117.87 36.82 117.87 36.82 117.87 36.82 117.87 36.82 116.89 37.28 116.89 37.28 116.89 37.28 116.89 37.28 116.89 37.28 116.89 37.28 115.74 37.82 115.74 37.82 115.74 37.82 118.06 43.07 118.06 43.07 118.06 43.07 116.91 44.84 116.91 44.84 116.91 44.84 115.82 44.84 115.82 44.84 115.82 44.84 115.82 48.67 115.82 48.67 115.82 48.67 122.69 48.67 122.69 48.67 122.69 48.67 123.42 47.94 123.42 47.94 123.42 47.94 124.32 47.57 124.32 47.57 124.32 47.57 131.29 47.57 131.29 47.57 131.29 47.57 131.29 44.84 131.29 44.84ZM 150.28 44.84C 150.28 44.84 133.82 44.84 133.82 44.84 133.82 44.84 133.82 47.57 133.82 47.57 133.82 47.57 142.21 47.57 142.21 47.57 142.21 47.57 143.1 47.94 143.1 47.94 143.1 47.94 143.83 48.67 143.83 48.67 143.83 48.67 150.28 48.67 150.28 48.67 150.28 48.67 150.28 44.84 150.28 44.84ZM 158.52 47.39C 158.52 47.39 158.52 46.12 158.52 46.12 158.52 46.12 158.52 45.74 158.52 45.74 158.52 45.74 152.85 45.74 152.85 45.74 152.85 45.74 152.85 47.77 152.85 47.77 152.85 47.77 158.52 47.77 158.52 47.77 158.52 47.77 158.52 47.39 158.52 47.39ZM 14.14 75.16C 14.14 75.16 14.14 59.55 14.14 59.55 14.14 59.55 15.41 58.29 15.41 58.29 15.41 58.29 88.64 58.29 88.64 58.29 88.64 58.29 89.91 59.55 89.91 59.55 89.91 59.55 89.91 75.16 89.91 75.16 89.91 75.16 88.64 76.42 88.64 76.42 88.64 76.42 15.41 76.42 15.41 76.42 15.41 76.42 14.14 75.16 14.14 75.16ZM 16.67 73.89C 16.67 73.89 87.38 73.89 87.38 73.89 87.38 73.89 87.38 60.82 87.38 60.82 87.38 60.82 16.67 60.82 16.67 60.82 16.67 60.82 16.67 73.89 16.67 73.89ZM 60.06 72.61C 57.19 72.61 54.86 70.27 54.86 67.4 54.86 64.53 57.19 62.19 60.06 62.19 62.93 62.19 65.26 64.53 65.26 67.4 65.26 70.27 62.93 72.61 60.06 72.61ZM 60.06 64.72C 58.58 64.72 57.38 65.92 57.38 67.4 57.38 68.88 58.58 70.08 60.06 70.08 61.53 70.08 62.74 68.88 62.74 67.4 62.74 65.92 61.53 64.72 60.06 64.72ZM 51.37 72.36C 51.37 72.36 48.85 72.36 48.85 72.36 48.85 72.36 48.85 64.69 48.85 64.69 48.85 64.69 44.97 64.69 44.97 64.69 44.97 64.69 44.97 62.16 44.97 62.16 44.97 62.16 55.05 62.16 55.05 62.16 55.05 62.16 55.05 64.69 55.05 64.69 55.05 64.69 51.37 64.69 51.37 64.69 51.37 64.69 51.37 72.36 51.37 72.36ZM 45.66 66.05C 45.66 66.05 43.43 67.23 43.43 67.23 43.43 67.23 42.84 66.12 42.84 66.12 42.35 65.18 41.36 64.63 40.34 64.69 38.98 64.76 37.87 65.88 37.8 67.24 37.77 67.98 38.03 68.68 38.54 69.21 39.05 69.75 39.74 70.05 40.48 70.05 41.47 70.05 42.37 69.5 42.84 68.62 42.84 68.62 43.43 67.5 43.43 67.5 43.43 67.5 45.66 68.68 45.66 68.68 45.66 68.68 45.07 69.8 45.07 69.8 44.17 71.51 42.41 72.57 40.48 72.57 39.04 72.57 37.71 72 36.71 70.96 35.72 69.92 35.21 68.56 35.28 67.12 35.41 64.47 37.57 62.3 40.22 62.16 42.25 62.09 44.13 63.15 45.07 64.93 45.07 64.93 45.66 66.05 45.66 66.05ZM 91.27 30.81C 84.18 28.31 76.73 27.04 69.14 27.04 37.01 27.04 10.12 49.94 3.89 80.29 3.89 80.29 15.23 80.29 15.23 80.29 15.23 80.29 98.97 80.29 98.97 80.29 98.97 80.29 100.23 81.55 100.23 81.55 100.23 81.55 100.23 106.42 100.23 106.42 101.14 103.07 103.85 100.44 107.31 99.76 107.51 96.61 110.13 94.11 113.33 94.11 116.39 94.11 118.93 96.41 119.31 99.37 119.86 99.54 120.38 99.79 120.86 100.11 121.86 99.75 122.9 99.57 123.97 99.57 129.06 99.57 133.21 103.72 133.21 108.82 133.21 113.32 129.95 117.13 125.63 117.92 124.89 121.95 121.55 125.01 117.47 125.43 117.47 125.43 117.47 131.95 117.47 131.95 117.47 131.95 123.68 131.95 123.68 131.95 131.27 121.12 135.75 107.94 135.75 93.73 135.75 93.73 135.75 92.47 135.75 92.47 135.75 92.47 138.27 92.47 138.27 92.47 138.27 92.47 138.27 93.73 138.27 93.73 138.27 131.9 107.26 162.96 69.14 162.96 66.55 162.96 63.96 162.79 61.39 162.5 61.49 163.45 61.55 164.42 61.55 165.39 61.55 180.61 49.18 192.99 33.98 192.99 18.79 192.99 6.42 180.61 6.42 165.39 6.42 155.48 11.68 146.8 19.54 141.93 6.94 128.95 0 111.88 0 93.73 0 55.57 31.01 24.51 69.14 24.51 77.02 24.51 84.74 25.83 92.11 28.42 92.11 28.42 93.3 28.84 93.3 28.84 93.3 28.84 92.46 31.23 92.46 31.23 92.46 31.23 91.27 30.81 91.27 30.81ZM 97.7 82.82C 97.7 82.82 16.49 82.82 16.49 82.82 16.49 82.82 16.52 113.04 16.52 113.04 16.52 113.04 16.49 113.07 16.49 113.07 16.49 113.07 16.49 131.95 16.49 131.95 16.49 131.95 33.5 131.95 33.5 131.95 33.39 131.69 33.29 131.42 33.23 131.13 33.23 131.13 31.47 124.09 31.47 124.09 31.03 122.32 31.97 120.47 33.65 119.78 33.65 119.78 34.15 119.57 34.15 119.57 34.15 119.57 33.89 114.76 33.89 114.76 33.81 113.44 34.04 112.1 34.54 110.88 34.54 110.88 35.31 109.01 35.31 109.01 35.47 108.61 35.65 108.17 35.84 107.71 35.84 107.71 33.11 107.86 33.11 107.86 33.06 107.87 33 107.87 32.95 107.87 32.25 107.87 31.59 107.61 31.07 107.13 30.51 106.61 30.19 105.91 30.17 105.15 30.13 103.66 31.34 102.37 32.86 102.29 32.86 102.29 33.85 102.23 33.85 102.23 35.18 102.16 36.54 102.63 37.57 103.5 38.87 100.33 40.3 96.8 41.35 94.1 41.9 92.7 43.03 91.64 44.47 91.18 52.02 88.78 61.99 88.26 71.81 89.75 71.81 89.75 71.81 89.75 71.81 89.75 73.31 89.98 74.64 90.92 75.37 92.27 76.95 95.18 78.86 98.37 80.54 101.13 81.47 100.13 82.77 99.51 84.13 99.44 84.13 99.44 85.11 99.38 85.11 99.38 86.67 99.3 87.97 100.44 88.1 101.92 88.17 102.68 87.93 103.41 87.43 103.99 86.93 104.56 86.24 104.9 85.48 104.95 85.48 104.95 82.96 105.09 82.96 105.09 83.77 106.41 84.4 107.47 84.75 108.12 85.36 109.25 85.71 110.54 85.79 111.82 85.79 111.82 86.6 126.52 86.6 126.52 86.6 126.52 85.41 127.85 85.41 127.85 85.41 127.85 85.15 127.87 85.15 127.87 85.15 127.87 85.15 128.83 85.15 128.83 85.15 129.99 84.79 131.06 84.17 131.95 84.17 131.95 97.7 131.95 97.7 131.95 97.7 131.95 97.7 82.82 97.7 82.82ZM 33.92 123.47C 33.92 123.47 34.5 125.77 34.5 125.77 34.5 125.77 34.3 122.32 34.3 122.32 33.98 122.59 33.82 123.04 33.92 123.47ZM 43.74 127.57C 43.74 127.57 43.76 127.64 43.76 127.64 43.76 127.64 75.36 125.88 75.36 125.88 75.36 125.88 75.39 125.85 75.39 125.85 75.39 125.85 75.9 125.85 75.9 125.85 75.9 125.85 84.01 125.4 84.01 125.4 84.01 125.4 83.26 111.96 83.26 111.96 83.21 111.04 82.96 110.12 82.52 109.31 82.12 108.55 81.23 107.1 80.12 105.29 80.12 105.29 38.62 107.6 38.62 107.6 38.26 108.47 37.92 109.29 37.64 109.98 37.64 109.98 36.87 111.84 36.87 111.84 36.51 112.71 36.35 113.67 36.41 114.62 36.41 114.62 37.15 128.01 37.15 128.01 37.15 128.01 43.3 127.67 43.3 127.67 43.3 127.67 43.74 127.57 43.74 127.57ZM 43.49 131.95C 43.49 131.95 75.1 131.95 75.1 131.95 74.49 131.06 74.13 129.99 74.13 128.83 74.13 128.83 74.13 128.48 74.13 128.48 74.13 128.48 44.07 130.16 44.07 130.16 44 130.78 43.82 131.39 43.49 131.95ZM 76.65 128.38C 76.65 128.38 76.65 128.83 76.65 128.83 76.65 130.48 77.99 131.82 79.64 131.82 81.28 131.82 82.62 130.48 82.62 128.83 82.62 128.83 82.62 128.38 82.62 128.38 82.62 128.38 76.65 128.38 76.65 128.38ZM 78.63 102.84C 76.88 99.97 74.84 96.59 73.15 93.48 72.8 92.82 72.15 92.36 71.43 92.25 67.94 91.72 64.38 91.46 60.92 91.46 55.15 91.46 49.66 92.18 45.23 93.59 44.53 93.82 43.97 94.34 43.71 95.02 42.59 97.89 41.05 101.69 39.69 105.01 39.69 105.01 78.63 102.84 78.63 102.84ZM 36.03 130.6C 36.03 130.6 35.61 130.23 35.61 130.23 35.61 130.23 35.69 130.56 35.69 130.56 35.84 131.26 36.35 131.76 36.97 131.95 36.97 131.95 38.22 131.95 38.22 131.95 38.22 131.95 40.12 131.54 40.12 131.54 40.6 131.44 41.02 131.15 41.28 130.73 41.37 130.6 41.41 130.45 41.46 130.3 41.46 130.3 36.03 130.6 36.03 130.6ZM 35.64 105.19C 35.19 104.91 34.67 104.76 34.14 104.76 34.09 104.76 34.04 104.76 33.99 104.76 33.99 104.76 33.01 104.81 33.01 104.81 32.84 104.82 32.69 104.95 32.7 105.08 32.7 105.17 32.74 105.23 32.78 105.27 32.82 105.3 32.85 105.33 32.97 105.34 32.97 105.34 35.64 105.19 35.64 105.19ZM 82.67 102.57C 82.67 102.57 85.34 102.42 85.34 102.42 85.43 102.42 85.49 102.37 85.52 102.33 85.56 102.29 85.59 102.23 85.59 102.14 85.57 102.01 85.43 101.91 85.27 101.91 85.26 101.91 85.25 101.91 85.25 101.91 85.25 101.91 84.26 101.96 84.26 101.96 83.68 101.99 83.13 102.21 82.67 102.57ZM 100.23 111.31C 100.23 111.31 100.23 131.95 100.23 131.95 100.23 131.95 114.95 131.95 114.95 131.95 114.95 131.95 114.95 125.36 114.95 125.36 112.97 125.01 111.14 124.03 109.77 122.54 108.93 122.94 108.02 123.14 107.08 123.14 103.6 123.14 100.76 120.3 100.76 116.81 100.76 115.82 100.99 114.85 101.44 113.97 100.89 113.15 100.49 112.25 100.23 111.31ZM 123.23 116.7C 123.23 116.7 124.41 115.52 124.41 115.52 127.93 115.29 130.68 112.35 130.68 108.82 130.68 105.12 127.67 102.1 123.97 102.1 123 102.1 122.07 102.3 121.19 102.71 121.19 102.71 119.83 102.5 119.83 102.5 119.3 102.03 118.64 101.74 117.94 101.66 117.94 101.66 116.82 100.35 116.82 100.35 116.82 100.35 116.83 100.18 116.83 100.18 116.83 98.21 115.26 96.64 113.33 96.64 111.4 96.64 109.82 98.21 109.82 100.15 109.82 100.33 109.84 100.5 109.87 100.67 109.87 100.67 108.7 102.12 108.7 102.12 105.17 102.34 102.4 105.28 102.4 108.82 102.4 110.38 102.94 111.89 103.93 113.09 103.93 113.09 103.98 114.62 103.98 114.62 103.53 115.27 103.29 116.03 103.29 116.81 103.29 118.91 104.99 120.62 107.08 120.62 107.89 120.62 108.66 120.36 109.32 119.88 109.32 119.88 111.09 120.17 111.09 120.17 112.03 121.49 113.41 122.41 114.95 122.79 114.95 122.79 114.95 118.28 114.95 118.28 114.95 118.28 110.6 113.92 110.6 113.92 110.6 113.92 112.38 112.14 112.38 112.14 112.38 112.14 116.21 115.97 116.21 115.97 116.21 115.97 120.04 112.14 120.04 112.14 120.04 112.14 121.82 113.92 121.82 113.92 121.82 113.92 117.47 118.28 117.47 118.28 117.47 118.28 117.47 122.89 117.47 122.89 120.57 122.45 123.02 119.91 123.23 116.7ZM 8.95 165.39C 8.95 179.22 20.18 190.46 33.98 190.46 47.79 190.46 59.02 179.22 59.02 165.39 59.02 151.57 47.79 140.33 33.98 140.33 20.18 140.33 8.95 151.57 8.95 165.39ZM 21.82 140.67C 25.5 138.85 29.62 137.8 33.98 137.8 47.31 137.8 58.46 147.32 61 159.92 63.69 160.25 66.42 160.43 69.14 160.43 90.55 160.43 109.62 150.25 121.82 134.48 121.82 134.48 117.47 134.48 117.47 134.48 117.47 134.48 114.95 134.48 114.95 134.48 114.95 134.48 100.23 134.48 100.23 134.48 100.23 134.48 97.7 134.48 97.7 134.48 97.7 134.48 38.48 134.48 38.48 134.48 38.48 134.48 38.43 134.49 38.43 134.49 38.12 134.56 37.81 134.59 37.51 134.59 37.19 134.59 36.89 134.54 36.59 134.48 36.59 134.48 16.49 134.48 16.49 134.48 16.49 134.48 16.41 134.48 16.41 134.48 18.08 136.63 19.88 138.7 21.82 140.67ZM 13.96 131.12C 13.96 131.12 13.96 114.3 13.96 114.3 13.96 114.3 5.76 114.3 5.76 114.3 7.68 120.25 10.43 125.91 13.96 131.12ZM 2.53 93.73C 2.53 99.92 3.38 105.97 5 111.77 5 111.77 13.96 111.77 13.96 111.77 13.96 111.77 13.96 82.82 13.96 82.82 13.96 82.82 3.43 82.82 3.43 82.82 2.85 86.37 2.53 90.02 2.53 93.73ZM 106.61 147.02C 106.61 147.02 64.39 147.02 64.39 147.02 64.39 147.02 64.39 144.49 64.39 144.49 64.39 144.49 106.61 144.49 106.61 144.49 106.61 144.49 106.61 147.02 106.61 147.02ZM 29.13 151.4C 29.13 151.4 31.48 150.47 31.48 150.47 31.48 150.47 33.7 156.12 33.7 156.12 33.7 156.12 31.35 157.05 31.35 157.05 31.35 157.05 29.13 151.4 29.13 151.4ZM 28.64 159.49C 28.64 159.49 21.91 155.49 21.91 155.49 21.91 155.49 23.2 153.32 23.2 153.32 23.2 153.32 29.93 157.32 29.93 157.32 29.93 157.32 28.64 159.49 28.64 159.49ZM 25.95 164.87C 25.95 164.87 30.66 162.72 30.66 162.72 30.66 162.72 31.71 165.02 31.71 165.02 31.71 165.02 26.25 167.51 26.25 167.51 26.25 167.51 24.89 167.31 24.89 167.31 24.89 167.31 21.66 164.47 21.66 164.47 21.66 164.47 21.06 165.19 21.06 165.19 21.06 165.19 23.09 167 23.09 167 23.09 167 22.71 169.12 22.71 169.12 22.71 169.12 22.8 169.33 22.8 169.33 22.8 169.33 23.16 170.1 23.16 170.1 23.16 170.1 26 168.81 26 168.81 26 168.81 26.13 168.47 26.13 168.47 26.13 168.47 26.79 167.76 26.79 167.76 26.79 167.76 31.9 165.43 31.9 165.43 31.9 165.43 32.94 167.73 32.94 167.73 32.94 167.73 28.31 169.84 28.31 169.84 28.31 169.84 28.23 170.08 28.23 170.08 28.23 170.08 27.99 169.99 27.99 169.99 27.99 169.99 27.88 170.04 27.88 170.04 27.88 170.04 27.6 170.86 27.6 170.86 27.6 170.86 23.05 172.93 23.05 172.93 23.05 172.93 22.38 172.68 22.38 172.68 22.38 172.68 18.61 174.4 18.61 174.4 18.61 174.4 17.37 173.93 17.37 173.93 17.37 173.93 14.82 175.1 14.82 175.1 14.82 175.1 13.14 174.47 13.14 174.47 13.14 174.47 12.85 173.82 12.85 173.82 12.85 173.82 13.47 172.14 13.47 172.14 13.47 172.14 16.03 170.98 16.03 170.98 16.03 170.98 16.49 169.74 16.49 169.74 16.49 169.74 20.26 168.02 20.26 168.02 20.26 168.02 20.3 167.9 20.3 167.9 20.3 167.9 18.45 166.26 18.45 166.26 18.45 166.26 18.33 164.49 18.33 164.49 18.33 164.49 18.44 164.37 18.44 164.37 18.44 164.37 16.55 162.75 16.55 162.75 16.55 162.75 16.41 160.97 16.41 160.97 16.41 160.97 16.8 160.5 16.8 160.5 16.8 160.5 18.59 160.36 18.59 160.36 18.59 160.36 20.47 161.97 20.47 161.97 20.47 161.97 20.57 161.86 20.57 161.86 20.57 161.86 22.37 161.72 22.37 161.72 22.37 161.72 25.95 164.87 25.95 164.87ZM 20.64 170.68C 20.64 170.68 20.62 170.63 20.62 170.63 20.62 170.63 18.69 171.51 18.69 171.51 18.69 171.51 18.71 171.57 18.71 171.57 18.71 171.57 20.65 170.69 20.65 170.69 20.65 170.69 20.64 170.68 20.64 170.68ZM 39.43 167.26C 39.43 167.26 40.14 167.91 40.14 167.91 40.17 167.98 40.22 168.07 40.27 168.16 40.27 168.16 43.08 169.24 43.08 169.24 43.08 169.24 43.41 168.24 43.41 168.24 43.41 168.24 34.54 164.98 34.54 164.98 34.54 164.98 35.41 162.61 35.41 162.61 35.41 162.61 45.43 166.28 45.43 166.28 45.43 166.28 45.75 166.95 45.75 166.95 45.75 166.95 46.14 166.77 46.14 166.77 46.14 166.77 50.5 168.37 50.5 168.37 50.5 168.37 51.04 169.54 51.04 169.54 51.04 169.54 53.63 170.49 53.63 170.49 53.63 170.49 54.38 172.11 54.38 172.11 54.38 172.11 54.14 172.79 54.14 172.79 54.14 172.79 52.52 173.54 52.52 173.54 52.52 173.54 49.98 172.6 49.98 172.6 49.98 172.6 48.74 173.18 48.74 173.18 48.74 173.18 44.44 171.6 44.44 171.6 44.44 171.6 43.41 172.08 43.41 172.08 43.41 172.08 38.98 170.37 38.98 170.37 38.98 170.37 38.38 169.89 38.38 169.89 38.38 169.89 38.25 169.69 38.12 169.47 38.12 169.47 33.52 167.78 33.52 167.78 33.52 167.78 34.39 165.4 34.39 165.4 34.39 165.4 39.43 167.26 39.43 167.26ZM 48.43 170.37C 48.43 170.37 48.45 170.31 48.45 170.31 48.45 170.31 46.45 169.58 46.45 169.58 46.45 169.58 46.43 169.63 46.43 169.63 46.43 169.63 48.43 170.37 48.43 170.37ZM 37.2 157.64C 37.2 157.64 42.85 155.42 42.85 155.42 42.85 155.42 43.77 157.77 43.77 157.77 43.77 157.77 38.13 160 38.13 160 38.13 160 37.2 157.64 37.2 157.64ZM 34.35 156.06C 34.35 156.06 37.99 147.96 37.99 147.96 37.99 147.96 40.29 149 40.29 149 40.29 149 36.65 157.1 36.65 157.1 36.65 157.1 34.35 156.06 34.35 156.06ZM 39.37 119.9C 39.37 119.9 36.89 116.52 36.89 116.52 36.89 116.52 37.83 114.51 37.83 114.51 37.83 114.51 46.72 114.02 46.72 114.02 47.52 113.96 48.3 114.24 48.9 114.78 49.5 115.32 49.86 116.06 49.9 116.86 49.95 117.67 49.68 118.44 49.14 119.04 48.6 119.65 47.86 120 47.06 120.04 47.06 120.04 40.46 120.41 40.46 120.41 40.46 120.41 39.37 119.9 39.37 119.9ZM 46.92 117.52C 47.09 117.51 47.21 117.41 47.26 117.36 47.31 117.3 47.39 117.18 47.38 117 47.37 116.82 47.27 116.71 47.22 116.66 47.16 116.61 47.02 116.54 46.86 116.54 46.86 116.54 40.31 116.9 40.31 116.9 40.31 116.9 41 117.85 41 117.85 41 117.85 46.92 117.52 46.92 117.52ZM 55.89 118.07C 55.89 118.07 64.4 117.59 64.4 117.59 65.35 117.55 66.23 117.86 66.92 118.48 67.62 119.1 68.03 119.96 68.08 120.89 68.19 122.81 66.71 124.46 64.79 124.57 64.79 124.57 64.79 124.57 64.79 124.57 64.79 124.57 56.28 125.04 56.28 125.04 56.21 125.05 56.14 125.05 56.08 125.05 55.22 125.05 54.4 124.74 53.76 124.16 53.06 123.54 52.65 122.68 52.6 121.75 52.49 119.83 53.97 118.17 55.89 118.07ZM 55.44 122.27C 55.63 122.45 55.89 122.51 56.14 122.52 56.14 122.52 64.65 122.05 64.65 122.05 65.18 122.01 65.59 121.56 65.56 121.03 65.55 120.77 65.43 120.53 65.24 120.36 65.06 120.2 64.84 120.12 64.6 120.12 64.58 120.12 64.56 120.12 64.54 120.12 64.54 120.12 56.03 120.59 56.03 120.59 55.5 120.62 55.09 121.08 55.12 121.61 55.14 121.87 55.25 122.1 55.44 122.27ZM 73.07 112.55C 73.07 112.55 81.95 112.05 81.95 112.05 81.95 112.05 83.12 113.95 83.12 113.95 83.12 113.95 81.02 117.58 81.02 117.58 81.02 117.58 80 118.21 80 118.21 80 118.21 73.4 118.58 73.4 118.58 73.34 118.58 73.29 118.58 73.23 118.58 71.65 118.58 70.31 117.34 70.22 115.73 70.18 114.93 70.45 114.15 70.99 113.55 71.52 112.95 72.26 112.59 73.07 112.55ZM 72.91 115.93C 72.96 115.98 73.09 116.05 73.26 116.05 73.26 116.05 79.18 115.73 79.18 115.73 79.18 115.73 79.76 114.71 79.76 114.71 79.76 114.71 73.21 115.07 73.21 115.07 73.03 115.08 72.92 115.18 72.87 115.24 72.82 115.29 72.73 115.41 72.74 115.59 72.75 115.77 72.85 115.88 72.91 115.93ZM 59.47 183.97C 63.02 184.39 66.64 184.6 70.23 184.6 120.95 184.6 162.21 143.29 162.21 92.51 162.21 89.53 162.05 86.54 161.77 83.58 161.77 83.58 159.24 91.84 159.24 91.84 159.24 91.84 156.82 91.1 156.82 91.1 156.82 91.1 160.97 77.56 160.97 77.56 160.97 77.56 163.24 77.25 163.24 77.25 163.24 77.25 171.06 89.4 171.06 89.4 171.06 89.4 168.94 90.77 168.94 90.77 168.94 90.77 164.3 83.57 164.3 83.57 164.58 86.53 164.73 89.52 164.73 92.51 164.73 144.68 122.34 187.12 70.23 187.12 66.54 187.12 62.83 186.91 59.18 186.48 59.18 186.48 57.93 186.34 57.93 186.34 57.93 186.34 58.22 183.83 58.22 183.83 58.22 183.83 59.47 183.97 59.47 183.97ZM 182.83 21.74C 182.83 21.74 181.82 24.06 181.82 24.06 181.82 24.06 173.72 20.53 173.72 20.53 173.72 20.53 174.73 18.21 174.73 18.21 174.73 18.21 182.83 21.74 182.83 21.74Z" fill="#FFF"/></svg><svg height="104" viewBox="0 0 52 52" width="104" x="0" y="1256"><path d="M 26 52C 11.67 52 0.01 40.34 0.01 26 0.01 11.66 11.67 0 26 0 40.33 0 51.99 11.66 51.99 26 51.99 40.34 40.33 52 26 52ZM 30.72 18C 30.72 18 29.17 16.44 29.17 16.44 29.17 16.44 19.93 25.69 19.93 25.69 19.93 25.69 19.93 27.24 19.93 27.24 19.93 27.24 29.17 36.48 29.17 36.48 29.17 36.48 30.72 34.93 30.72 34.93 30.72 34.93 22.26 26.46 22.26 26.46 22.26 26.46 30.72 18 30.72 18Z" fill="#FFF"/></svg><svg height="104" viewBox="0 0 52 52" width="104" x="0" y="1360"><path d="M 26 52C 11.67 52 0.01 40.34 0.01 26 0.01 11.66 11.67-0 26-0 40.33-0 51.99 11.66 51.99 26 51.99 40.34 40.33 52 26 52ZM 26 2.2C 12.88 2.2 2.21 12.87 2.21 26 2.21 39.12 12.88 49.8 26 49.8 39.12 49.8 49.8 39.12 49.8 26 49.8 12.87 39.12 2.2 26 2.2ZM 23.28 34C 23.28 34 31.74 25.54 31.74 25.54 31.74 25.54 23.28 17.07 23.28 17.07 23.28 17.07 24.83 15.52 24.83 15.52 24.83 15.52 34.07 24.76 34.07 24.76 34.07 24.76 34.07 26.31 34.07 26.31 34.07 26.31 24.83 35.55 24.83 35.55 24.83 35.55 23.28 34 23.28 34Z" fill="#E7EBEF"/></svg><svg height="104" viewBox="0 0 52 52" width="104" x="0" y="1464"><path d="M 26 52C 11.67 52 0.01 40.34 0.01 26 0.01 11.66 11.67 0 26 0 40.33 0 51.99 11.66 51.99 26 51.99 40.34 40.33 52 26 52ZM 26 2.2C 12.88 2.2 2.2 12.88 2.2 26 2.2 39.13 12.88 49.8 26 49.8 39.12 49.8 49.79 39.13 49.79 26 49.79 12.88 39.12 2.2 26 2.2ZM 27.17 36.48C 27.17 36.48 17.93 27.24 17.93 27.24 17.93 27.24 17.93 25.68 17.93 25.68 17.93 25.68 27.17 16.45 27.17 16.45 27.17 16.45 28.72 18 28.72 18 28.72 18 20.26 26.46 20.26 26.46 20.26 26.46 28.72 34.93 28.72 34.93 28.72 34.93 27.17 36.48 27.17 36.48Z" fill="#E7EBEF"/></svg><svg height="104" viewBox="0 0 52 52" width="104" x="0" y="1568"><path d="M 26 52C 11.67 52 0.01 40.34 0.01 26 0.01 11.66 11.67-0 26-0 40.33-0 51.99 11.66 51.99 26 51.99 40.34 40.33 52 26 52ZM 32.07 24.76C 32.07 24.76 22.83 15.52 22.83 15.52 22.83 15.52 21.28 17.07 21.28 17.07 21.28 17.07 29.74 25.54 29.74 25.54 29.74 25.54 21.28 34 21.28 34 21.28 34 22.83 35.55 22.83 35.55 22.83 35.55 32.07 26.31 32.07 26.31 32.07 26.31 32.07 24.76 32.07 24.76Z" fill="#FFF"/></svg><svg height="84" viewBox="0 0 31 42" width="62" x="0" y="1672"><path d="M 29.95 42C 29.95 42 1.91 42 1.91 42 1.91 42 0.92 41 0.92 41 0.92 41 0.92 1 0.92 1 0.92 1 1.91-0 1.91-0 1.91-0 29.95-0 29.95-0 29.95-0 30.94 1 30.94 1 30.94 1 30.94 41 30.94 41 30.94 41 29.95 42 29.95 42ZM 28.96 2C 28.96 2 2.9 2 2.9 2 2.9 2 2.9 40 2.9 40 2.9 40 28.96 40 28.96 40 28.96 40 28.96 2 28.96 2ZM 7.73 17.33C 9.24 17.33 10.46 18.56 10.46 20.08 10.46 21.59 9.24 22.83 7.73 22.83 6.23 22.83 5.01 21.59 5.01 20.08 5.01 18.56 6.23 17.33 7.73 17.33ZM 7.73 20.83C 8.14 20.83 8.48 20.49 8.48 20.08 8.48 19.66 8.14 19.33 7.73 19.33 7.33 19.33 6.99 19.66 6.99 20.08 6.99 20.49 7.33 20.83 7.73 20.83ZM 7.73 24.55C 9.24 24.55 10.46 25.79 10.46 27.3 10.46 28.82 9.24 30.05 7.73 30.05 6.23 30.05 5.01 28.82 5.01 27.3 5.01 25.79 6.23 24.55 7.73 24.55ZM 7.73 28.05C 8.14 28.05 8.48 27.72 8.48 27.3 8.48 26.89 8.14 26.55 7.73 26.55 7.33 26.55 6.99 26.89 6.99 27.3 6.99 27.72 7.33 28.05 7.73 28.05ZM 7.73 31.78C 9.24 31.78 10.46 33.01 10.46 34.53 10.46 36.05 9.24 37.28 7.73 37.28 6.23 37.28 5.01 36.05 5.01 34.53 5.01 33.01 6.23 31.78 7.73 31.78ZM 7.73 35.28C 8.14 35.28 8.48 34.95 8.48 34.53 8.48 34.12 8.14 33.78 7.73 33.78 7.33 33.78 6.99 34.12 6.99 34.53 6.99 34.95 7.33 35.28 7.73 35.28ZM 15.73 17.33C 17.23 17.33 18.45 18.56 18.45 20.08 18.45 21.59 17.23 22.83 15.73 22.83 14.23 22.83 13.01 21.59 13.01 20.08 13.01 18.56 14.23 17.33 15.73 17.33ZM 15.73 20.83C 16.14 20.83 16.47 20.49 16.47 20.08 16.47 19.66 16.14 19.33 15.73 19.33 15.32 19.33 14.99 19.66 14.99 20.08 14.99 20.49 15.32 20.83 15.73 20.83ZM 15.73 24.55C 17.23 24.55 18.45 25.79 18.45 27.3 18.45 28.82 17.23 30.05 15.73 30.05 14.23 30.05 13.01 28.82 13.01 27.3 13.01 25.79 14.23 24.55 15.73 24.55ZM 15.73 28.05C 16.14 28.05 16.47 27.72 16.47 27.3 16.47 26.89 16.14 26.55 15.73 26.55 15.32 26.55 14.99 26.89 14.99 27.3 14.99 27.72 15.32 28.05 15.73 28.05ZM 15.73 31.78C 17.23 31.78 18.45 33.01 18.45 34.53 18.45 36.05 17.23 37.28 15.73 37.28 14.23 37.28 13.01 36.05 13.01 34.53 13.01 33.01 14.23 31.78 15.73 31.78ZM 15.73 35.28C 16.14 35.28 16.47 34.95 16.47 34.53 16.47 34.12 16.14 33.78 15.73 33.78 15.32 33.78 14.99 34.12 14.99 34.53 14.99 34.95 15.32 35.28 15.73 35.28ZM 23.72 17.33C 25.23 17.33 26.45 18.56 26.45 20.08 26.45 21.59 25.23 22.83 23.72 22.83 22.22 22.83 21 21.59 21 20.08 21 18.56 22.22 17.33 23.72 17.33ZM 23.72 20.83C 24.13 20.83 24.47 20.49 24.47 20.08 24.47 19.66 24.13 19.33 23.72 19.33 23.32 19.33 22.98 19.66 22.98 20.08 22.98 20.49 23.32 20.83 23.72 20.83ZM 23.85 24.46C 25.35 24.46 26.57 25.69 26.57 27.21 26.57 27.21 26.57 34.83 26.57 34.83 26.57 36.35 25.35 37.58 23.85 37.58 22.35 37.58 21.13 36.35 21.13 34.83 21.13 34.83 21.13 27.21 21.13 27.21 21.13 25.69 22.35 24.46 23.85 24.46ZM 23.11 34.83C 23.11 35.25 23.44 35.58 23.85 35.58 24.26 35.58 24.59 35.25 24.59 34.83 24.59 34.83 24.59 27.21 24.59 27.21 24.59 26.8 24.26 26.46 23.85 26.46 23.44 26.46 23.11 26.8 23.11 27.21 23.11 27.21 23.11 34.83 23.11 34.83ZM 6.03 13.71C 6.03 13.71 5.04 12.71 5.04 12.71 5.04 12.71 5.04 5.37 5.04 5.37 5.04 5.37 6.03 4.37 6.03 4.37 6.03 4.37 25.21 4.37 25.21 4.37 25.21 4.37 26.2 5.37 26.2 5.37 26.2 5.37 26.2 12.71 26.2 12.71 26.2 12.71 25.21 13.71 25.21 13.71 25.21 13.71 6.03 13.71 6.03 13.71ZM 24.22 6.37C 24.22 6.37 7.02 6.37 7.02 6.37 7.02 6.37 7.02 11.71 7.02 11.71 7.02 11.71 24.22 11.71 24.22 11.71 24.22 11.71 24.22 6.37 24.22 6.37Z" fill="#F2F2F2"/></svg><svg height="79" viewBox="0 0 55 79" width="55" x="0" y="1756"><path d="M 54.37 51.36C 54.31 51.44 54.28 51.55 54.29 51.66 55.6 59.61 54.8 64.46 54.28 66.89 54.14 67.56 53.97 68.77 53.97 68.77 53.89 69.99 53 70.75 51.67 71.05 51.25 71.22 49.42 71.45 47.93 71.64 43.05 76.36 35.89 79 28.18 79 19.72 79 12.21 76.45 7.57 71.34 6.2 70.94 4.82 70.3 4.46 69.23 3.24 65.62 2.56 58.68 2.19 54.69 2.17 54.52 2.04 54.39 1.86 54.37 1.19 54.27 0.56 54.01 0.01 53.6 0.01 53.6 0.12 53.45 0.12 53.45 0.12 53.43 0.11 53.41 0.11 53.4 0.06 41.33 1.89 35.92 3.27 34.84 8.05 32.34 12.64 31.35 16.98 28.37 17.52 28 17.85 27.39 17.87 26.73 17.92 23.88 17.9 21.5 17.93 20.8 17.95 20.32 17.52 20.66 17.13 20.46 17.08 20.44 17.03 20.39 17 20.34 16.83 20.07 16.81 19.78 16.78 19.33 16.78 19.27 16.76 19.21 16.72 19.16 16.45 18.74 15.18 16.7 15.27 14.73 15.48 13.78 16.21 13.55 16.39 13.6 16.39 13.6 16.93 13.73 16.93 13.73 16.93 13.73 16.26 10.31 16.68 5.96 16.75 4.77 18.11 0.78 25.93-0.01 25.96-0.01 25.99-0.01 26.02-0.01 32.17 0.74 34.42 4.38 34.98 5.1 35.32 5.68 35.52 9.3 35.06 14.21 35.05 14.33 35.1 14.45 35.2 14.53 35.79 15.04 36.03 15.67 35.99 16.32 35.98 16.38 35.97 16.44 35.96 16.5 35.96 16.5 35.48 18.24 35.48 18.24 35.47 18.27 35.46 18.31 35.45 18.35 35.45 18.35 35.22 19.69 35.22 19.69 35.16 19.84 35.32 19.94 35.15 20 35.03 20.05 34.62 20.16 34.59 20.29 34.14 22.47 32.85 24.06 32.43 26.17 32.42 26.23 32.42 26.29 32.44 26.34 32.44 26.34 33.24 29.65 33.24 29.65 33.57 31.08 47.91 33.07 48.69 34.35 52.14 37.21 53.21 41.91 54.11 46.52 54.18 46.87 54.67 49.45 54.87 50.37 54.89 50.41 54.91 50.46 54.92 50.5 54.92 50.5 54.99 50.59 54.37 51.36ZM 7.89 38.39C 7.65 38.31 7.58 38.55 7.67 38.78 8.24 40.2 9.23 41.53 8.23 43.74 8.55 45 10.25 43.83 10.25 44.89 10.25 45.95 7.44 46.18 7.79 48.56 12.28 47.82 13.91 48.74 14.55 49.54 14.11 47.69 14.76 48.01 14.44 47.1 14.15 46.25 13.22 45.36 12.9 44.19 11.99 40.82 10.26 39.2 7.89 38.39ZM 17.91 40.1C 17.02 37.46 15.77 34.94 14.19 32.65 14.09 32.51 13.91 32.46 13.75 32.52 13.36 32.67 12.67 32.94 11.99 33.2 11.77 33.28 11.69 33.55 11.82 33.75 13.23 35.94 14.33 38.28 15.13 40.74 15.19 40.92 15.37 41.02 15.55 40.99 16.11 40.88 16.96 40.71 17.62 40.58 17.84 40.54 17.98 40.31 17.91 40.1ZM 19.37 43.5C 19.37 43.5 15.58 44.21 15.58 44.21 15.58 44.21 16.33 45.98 16.33 45.98 16.33 45.98 17.43 45.99 17.43 45.99 17.43 45.99 17.9 46.77 17.9 46.77 17.9 46.77 19.14 46.47 19.14 46.47 19.14 46.47 19.03 45.63 19.03 45.63 19.03 45.63 19.84 45.29 19.84 45.29 19.84 45.29 19.37 43.5 19.37 43.5ZM 33.74 16.45C 33.76 15.7 33.59 14.52 33.55 14.27 33.55 14.24 33.55 14.21 33.55 14.18 33.58 13.88 33.78 12.14 33.68 11.47 33.67 11.39 33.64 11.33 33.61 11.27 33.59 10.87 33.57 10.58 33.57 10.45 33.57 10.41 33.56 10.37 33.54 10.33 33.01 9.16 32.94 8.42 32.86 7.79 32.84 7.62 32.81 7.48 32.78 7.38 32.77 7.35 32.75 7.32 32.73 7.29 31.26 5.25 28.79 6.79 27.19 6.85 25.27 6.92 23.9 5.88 22.77 5.96 18.15 6.28 20.44 11.21 20.39 11.24 20.39 11.24 20.47 12.53 20.47 12.53 20.47 12.9 20.43 13.25 20.39 13.57 20.55 13.15 20.86 12.75 21.21 12.57 22.33 11.98 24.09 11.51 26.08 11.78 26.4 11.82 26.85 11.85 27.01 12.43 27.6 15.74 26.94 16.86 27.75 18.05 28.04 18.47 28.42 18.26 28.54 18.47 28.63 18.93 27.4 18.6 27.34 19.12 27.27 19.7 26.21 19.48 25.94 19.43 25.94 19.43 24.87 18.77 24.87 18.77 24.87 18.77 24.83 18.43 24.83 18.43 24.8 18.11 25 17.96 25.28 17.79 25.5 17.65 25.84 17.27 25.89 16.93 25.89 16.93 26.07 14.4 25.82 14.59 25.56 14.78 25.24 15.2 24.91 15.16 23.41 14.97 21.85 15.02 21.55 15.03 21.8 14.71 21.15 14.11 20.32 14.01 20.15 14.9 19.91 15.46 19.91 15.46 19.93 15.51 20.81 16.67 20.81 17.29 20.81 17.37 20.79 17.44 20.76 17.5 20.76 17.5 20.38 18.14 20.38 18.14 20.34 18.22 20.32 18.3 20.33 18.39 20.33 18.39 20.57 20.04 20.57 20.04 20.58 20.07 20.58 20.1 20.59 20.12 21.69 23.21 22.18 22 25.55 26.15 25.58 26.19 25.62 26.23 25.67 26.26 26.85 26.87 28.96 26.4 29.35 26.3 29.4 26.29 29.44 26.28 29.47 26.25 30.1 25.81 30.75 25.39 31.04 24.1 31.05 24.09 31.05 24.07 31.06 24.05 32.99 19.69 33.81 16.64 33.74 16.45ZM 26.41 30.22C 26.41 30.22 25.95 33.24 25.76 33.51 25.52 33.87 23.4 33.52 23.09 33.46 23.06 33.46 23.03 33.46 23 33.46 21.59 33.49 20.45 34.64 20.42 35.98 20.42 36.11 20.5 36.24 20.62 36.3 22.56 37.37 24.75 37.97 26.98 37.93 30.8 37.87 30.16 36.85 31.85 35.34 32.25 34.98 32.29 33.7 32.15 33.18 31.65 31.3 30.87 27.77 30.32 27.98 28.46 28.96 25.97 27.82 26.1 29.08 26.1 29.08 26.1 29.09 26.1 29.09 26.3 29.51 26.49 29.77 26.41 30.22ZM 29.18 40.08C 29.18 40.08 23.18 44.36 22.7 44.71 22.7 44.71 25.59 52.41 25.59 52.41 25.59 52.41 32 55.8 32 55.8 32 55.8 36.17 52.11 36.17 52.11 36.17 52.11 37.95 44.01 37.93 43.97 37.93 43.97 29.18 40.08 29.18 40.08ZM 40.75 33.56C 40.68 33.41 40.61 33.3 40.56 33.22 39.85 33.11 38.98 33.01 38.52 32.96 38.24 32.94 38.04 33.15 38.14 33.41 38.55 34.47 39.2 35.62 39.53 36.7 39.73 37.28 39.95 37.92 40.16 38.65 40.21 38.82 40.37 38.93 40.55 38.92 40.93 38.89 41.33 38.88 41.69 38.88 41.92 38.88 42.1 38.67 42.05 38.44 41.72 36.78 41.29 35.15 40.75 33.56ZM 43.48 42.32C 43.39 41.97 43.06 41.75 42.7 41.8 42.7 41.8 40.81 42.1 40.81 42.1 40.49 42.14 40.27 42.44 40.31 42.76 40.31 42.76 40.47 43.92 40.47 43.92 40.47 43.92 41.39 43.76 41.39 43.76 41.39 43.76 41.92 44.71 41.92 44.71 41.92 44.71 43.06 44.42 43.06 44.42 43.06 44.42 42.93 43.82 42.93 43.82 42.93 43.82 43.7 43.24 43.7 43.24 43.7 43.24 43.48 42.32 43.48 42.32ZM 41.91 57.28C 41.91 57.28 33.39 59.82 26.41 60.38 20.15 60.87 20.12 61.18 18.72 61.46 15.49 62.09 11.35 64.74 11.74 63.72 11.44 63.91 11.72 62.53 12.66 61.35 13.52 60.28 14.72 55.45 13.97 52.51 13.94 52.37 13.79 52.23 13.66 52.19 12.39 51.86 12.05 51.68 10.7 51.68 8.93 51.68 7.91 51.77 6.28 52.34 5.43 54.95 7.1 63.42 8.03 66.93 8.43 67.83 10.33 69.18 10.32 69.16 12.61 69.11 15.42 69.73 18.11 69.59 25.37 69.19 29.32 66.5 33.77 64.76 34.44 64.5 34.69 64.85 34.2 65.34 33.19 66.35 32.79 67.41 30.42 68.36 29.25 68.83 29.77 69.66 30.63 69.23 35.51 66.8 39.61 63.44 42.88 62.41 43.82 62.11 44.33 60.66 44.37 60.38 44.62 58.34 42.8 57.12 41.91 57.28ZM 51.32 44.76C 51.31 44.72 49.65 39.24 49.64 39.21 47.83 36.25 45.95 35.61 44.36 35.21 43.72 35.05 45.49 38.39 45.98 40.72 46.42 39.99 46.95 39.57 47.52 39.76 47.54 40.27 47.32 41.34 47.01 42.51 46.95 42.74 47.23 42.91 47.4 42.74 48.08 42.07 48.7 41.82 48.96 42.41 48.86 42.83 48.39 43.68 47.9 44.53 47.58 45.08 47.78 45.64 48.22 45.53 48.7 45.4 49 45.33 49.28 45.3 49.42 46.07 49.21 46.81 48.81 47.44 48.66 47.69 48.91 47.97 49.16 47.84 50.65 47.07 51.68 45.86 51.32 44.76ZM 51.98 51.35C 51.95 51.22 51.86 51.11 51.74 51.06 50.53 50.6 48.39 50.38 44.93 51.35 44.67 51.42 44.57 51.74 44.74 51.94 45.8 53.27 47.42 60.66 48.94 61.11 49.93 61.69 49.41 62.16 48.66 62.38 46.56 62.99 38.73 66.4 35.38 68.72 35.13 68.89 35.18 69.27 35.47 69.37 35.64 69.44 35.84 69.49 36.04 69.55 38.17 69.04 47.04 67 51.42 64.3 51.9 64.01 51.95 64.36 51.91 65.5 51.88 66.05 50.97 67.11 50.2 67.46 49.14 67.94 47.97 68.49 46.51 68.97 45.17 69.41 44.98 69.8 46.52 69.52 49.28 69.03 51.52 68.33 52.2 68 52.31 67.95 52.39 67.85 52.41 67.73 52.6 66.55 53.34 59.22 51.98 51.35ZM 35.75 51.7C 35.75 51.7 32.85 51.91 32.85 51.91 32.85 51.91 32.58 48.19 32.26 47.93 32.19 47.88 30.5 48.03 30.45 48.09 30.17 48.39 30.62 52 30.62 52 30.62 52 27.65 52.43 27.65 52.43 27.55 52.44 27.48 52.34 27.5 52.24 27.5 52.24 28.56 45.85 28.56 45.85 28.56 45.85 27.89 45.34 27.89 45.34 27.89 45.34 28.41 43.5 28.41 43.5 28.41 43.5 32.02 43.31 32.02 43.31 32.02 43.31 35.86 51.25 35.86 51.25 35.9 51.35 35.84 51.69 35.75 51.7ZM 28.74 14.67C 27.8 14.06 28.19 12.54 28.28 12.29 28.3 12.26 28.31 12.23 28.33 12.2 28.93 11.37 31.46 11.81 32.81 12.16 33.07 12.23 33.18 12.57 32.99 12.76 32.83 12.93 32.34 14.51 32.04 14.64 30.88 15.15 29.37 15.08 28.74 14.67ZM 30.15 20.52C 30.16 20.49 30.2 20.48 30.23 20.48 30.36 20.46 30.51 20.44 30.62 20.51 30.82 20.64 30.79 20.94 30.72 21.17 30.69 21.26 30.6 21.59 30.51 21.54 30.48 21.85 29.14 22.52 27.74 22.64 27.85 23.45 27.96 24.51 27.75 24.51 26.49 23.73 25.61 23.55 25.44 23.38 25.44 22.95 25.38 22.26 23.83 21.34 23.67 21.28 23.51 21.22 23.35 21.17 22.73 20.97 26.71 19.56 26.74 20.2 26.77 21.1 27.1 21.12 27.96 21.12 28.79 21.12 30.19 20.64 30.13 20.6 30.16 20.59 30.14 20.55 30.15 20.52Z" fill="#29353E"/></svg><svg height="68" viewBox="0 0 34 34" width="68" x="0" y="1835"><path d="M 33.53 9.4C 33.53 9.4 17.57 0 17.57 0 17.57 0 16.53-0 16.53-0 16.53-0 0.48 9.26 0.48 9.26 0.48 9.26-0 10.63-0 10.63-0 10.63 5.78 25.98 5.78 25.98 5.78 25.98 6.15 26.47 6.15 26.47 6.15 26.47 16.27 33.99 16.27 33.99 16.27 33.99 17.5 34 17.5 34 17.5 34 27.7 26.57 27.7 26.57 27.7 26.57 28.07 26.08 28.07 26.08 28.07 26.08 34 10.78 34 10.78 34 10.78 33.53 9.4 33.53 9.4ZM 16.9 31.73C 16.9 31.73 8.73 25.66 8.73 25.66 8.73 25.66 15.45 25.66 15.45 25.66 15.45 25.66 15.46 22.27 15.46 22.27 15.46 21.48 15.14 20.74 14.61 20.19 14 19.56 13.62 18.69 13.62 17.73 13.62 16.67 14.08 15.72 14.81 15.08 14.96 14.95 15.18 15.07 15.18 15.26 15.18 15.26 15.17 17.38 15.17 17.38 15.16 17.68 15.33 17.94 15.58 18.07 15.58 18.07 16.64 18.59 16.64 18.59 16.84 18.69 17.07 18.69 17.27 18.6 17.27 18.6 18.31 18.08 18.31 18.08 18.57 17.96 18.73 17.69 18.74 17.4 18.74 17.4 18.75 15.28 18.75 15.28 18.75 15.08 18.97 14.97 19.11 15.1 19.83 15.74 20.29 16.69 20.28 17.75 20.28 18.72 19.89 19.59 19.27 20.21 18.73 20.77 18.4 21.51 18.39 22.3 18.39 22.3 18.39 25.66 18.39 25.66 18.39 25.66 25.23 25.66 25.23 25.66 25.23 25.66 16.9 31.73 16.9 31.73ZM 26.56 24.03C 26.56 24.03 21.02 6.6 21.02 6.6 20.53 6.25 20.18 6 19.69 5.65 19.69 5.65 13.08 5.65 13.08 5.65 12.61 5.97 12.26 6.2 11.78 6.52 11.78 6.52 10.51 9.72 10.51 9.72 10.51 9.72 14.03 9.72 14.03 9.72 14.03 9.72 11.97 10.97 11.97 10.97 11.97 10.97 7.33 24.01 7.33 24.01 7.33 24.01 2.33 10.73 2.33 10.73 2.33 10.73 17.04 2.24 17.04 2.24 17.04 2.24 31.67 10.86 31.67 10.86 31.67 10.86 26.56 24.03 26.56 24.03Z" fill="#1D323C"/></svg><svg height="64" viewBox="0 0 32 32" width="64" x="0" y="1903"><path d="M 16 32C 7.16 32-0 24.84-0 16-0 7.16 7.16-0 16-0 24.84-0 32 7.16 32 16 32 24.84 24.84 32 16 32ZM 21.06 8.82C 21.06 8.82 16.03 13.85 16.03 13.85 16.03 13.85 11.09 8.91 11.09 8.91 11.09 8.91 8.91 11.09 8.91 11.09 8.91 11.09 13.85 16.03 13.85 16.03 13.85 16.03 8.82 21.06 8.82 21.06 8.82 21.06 10.94 23.18 10.94 23.18 10.94 23.18 15.97 18.15 15.97 18.15 15.97 18.15 20.91 23.09 20.91 23.09 20.91 23.09 23.09 20.91 23.09 20.91 23.09 20.91 18.15 15.97 18.15 15.97 18.15 15.97 23.18 10.94 23.18 10.94 23.18 10.94 21.06 8.82 21.06 8.82Z" fill="#DBE3E7"/></svg><svg height="55" viewBox="0 0 59 55" width="59" x="0" y="1967"><path d="M 48.65 55C 48.65 55 9.86 55 9.86 55 9.86 55 8.69 54.1 8.69 54.1 8.69 54.1 2.26 30.62 2.26 30.62 2.26 30.62-0 30.62-0 30.62-0 30.62-0 27.25-0 27.25-0 27.25 59 27.25 59 27.25 59 27.25 59 30.62 59 30.62 59 30.62 56.06 30.62 56.06 30.62 56.06 30.62 49.82 54.09 49.82 54.09 49.82 54.09 48.65 55 48.65 55ZM 11.47 51.63C 11.47 51.63 47.03 51.63 47.03 51.63 47.03 51.63 52.6 30.62 52.6 30.62 52.6 30.62 47.65 30.62 47.65 30.62 47.65 30.62 43.16 47.81 43.16 47.81 43.16 47.81 39.93 46.95 39.93 46.95 39.93 46.95 44.2 30.62 44.2 30.62 44.2 30.62 36.68 30.62 36.68 30.62 36.68 30.62 35.2 47.58 35.2 47.58 35.2 47.58 31.88 47.28 31.88 47.28 31.88 47.28 33.33 30.62 33.33 30.62 33.33 30.62 25.75 30.62 25.75 30.62 25.75 30.62 27.2 47.28 27.2 47.28 27.2 47.28 23.88 47.58 23.88 47.58 23.88 47.58 22.41 30.62 22.41 30.62 22.41 30.62 14.88 30.62 14.88 30.62 14.88 30.62 19.15 46.95 19.15 46.95 19.15 46.95 15.92 47.81 15.92 47.81 15.92 47.81 11.43 30.62 11.43 30.62 11.43 30.62 5.72 30.62 5.72 30.62 5.72 30.62 11.47 51.63 11.47 51.63ZM 59 24.57C 59 24.57-0 24.57-0 24.57-0 24.57-0 21.2-0 21.2-0 21.2 59 21.2 59 21.2 59 21.2 59 24.57 59 24.57ZM 14.83 21.02C 14.83 21.02 12.47 18.63 12.47 18.63 12.47 18.63 24.24 6.73 24.24 6.73 24.11 6.26 24.04 5.77 24.04 5.27 24.04 2.37 26.38-0 29.26-0 32.13-0 34.47 2.37 34.47 5.27 34.47 5.77 34.4 6.26 34.27 6.73 34.27 6.73 46.04 18.63 46.04 18.63 46.04 18.63 43.69 21.02 43.69 21.02 43.69 21.02 32.32 9.53 32.32 9.53 31.44 10.19 30.36 10.55 29.26 10.55 28.15 10.55 27.08 10.19 26.19 9.53 26.19 9.53 14.83 21.02 14.83 21.02ZM 29.26 3.37C 28.22 3.37 27.37 4.22 27.37 5.27 27.37 6.32 28.22 7.18 29.26 7.18 30.29 7.18 31.14 6.32 31.14 5.27 31.14 4.22 30.29 3.37 29.26 3.37Z" fill="#C5372F"/></svg><svg height="52" viewBox="0 0 52 52" width="52" x="0" y="2022"><path d="M 26.04 52C 11.72 52 0.08 40.34 0.08 26 0.08 11.66 11.72-0 26.04-0 40.35-0 51.99 11.66 51.99 26 51.99 40.34 40.35 52 26.04 52ZM 26.04 2.2C 12.93 2.2 2.28 12.87 2.28 26 2.28 39.12 12.93 49.8 26.04 49.8 39.14 49.8 49.8 39.12 49.8 26 49.8 12.87 39.14 2.2 26.04 2.2ZM 23.32 34C 23.32 34 31.76 25.54 31.76 25.54 31.76 25.54 23.32 17.08 23.32 17.08 23.32 17.08 24.87 15.52 24.87 15.52 24.87 15.52 34.09 24.76 34.09 24.76 34.09 24.76 34.09 26.32 34.09 26.32 34.09 26.32 24.87 35.56 24.87 35.56 24.87 35.56 23.32 34 23.32 34Z" fill="#83939C"/></svg><svg height="52" viewBox="0 0 52 52" width="52" x="0" y="2074"><path d="M 26.01 52C 11.67 52 0.01 40.34 0.01 26 0.01 11.66 11.67 0 26.01 0 40.35 0 52.01 11.66 52.01 26 52.01 40.34 40.35 52 26.01 52ZM 26.01 2.2C 12.88 2.2 2.2 12.88 2.2 26 2.2 39.13 12.88 49.8 26.01 49.8 39.14 49.8 49.81 39.13 49.81 26 49.81 12.88 39.14 2.2 26.01 2.2ZM 27.18 36.48C 27.18 36.48 17.94 27.24 17.94 27.24 17.94 27.24 17.94 25.68 17.94 25.68 17.94 25.68 27.18 16.44 27.18 16.44 27.18 16.44 28.74 18 28.74 18 28.74 18 20.27 26.46 20.27 26.46 20.27 26.46 28.74 34.92 28.74 34.92 28.74 34.92 27.18 36.48 27.18 36.48Z" fill="#83939C"/></svg><svg height="51" viewBox="0 0 51 51" width="51" x="0" y="2126"><clipPath id="clip0"><circle cx="25.5" cy="25.5" r="25.5"/></clipPath><circle cx="25.5" cy="25.5" r="25.5" fill="#E7EBEF"/><path d="M 44.16 51C 44.16 51 28.7 51 28.7 51 28.7 51 32.84 43.23 32.84 43.23 32.84 43.23 30.86 38.81 30.86 38.81 30.87 38.81 30.88 38.8 30.89 38.8 30.89 38.8 31.33 38.8 31.33 38.8 31.47 38.8 31.61 38.84 31.73 38.91 36.57 40.15 41.06 42.74 44.75 46.43 44.91 46.59 45 46.81 45 47.05 45 47.05 45 50.14 45 50.14 45 50.62 44.62 51 44.16 51ZM 34.45 25.56C 34.45 26.49 33.76 27.24 32.9 27.24 32.9 27.24 32.89 27.24 32.88 27.24 32.7 29.74 31.55 32.23 29.84 33.94 29.84 33.94 29.84 36.61 29.84 36.61 29.84 36.7 29.82 36.79 29.78 36.87 29.56 37.32 27.55 41.33 25.01 41.33 25 41.33 25 41.33 25 41.33 25 41.33 24.96 41.33 24.96 41.33 22.4 41.27 20.38 37.32 20.15 36.87 20.11 36.79 20.09 36.7 20.09 36.61 20.09 36.61 20.09 33.87 20.09 33.87 18.42 32.16 17.3 29.7 17.12 27.24 17.11 27.24 17.1 27.24 17.09 27.24 16.24 27.24 15.55 26.49 15.55 25.56 15.55 24.87 15.93 24.28 16.46 24.02 16.15 23.02 15.98 21.95 15.98 20.84 15.98 15.4 20.02 10.99 25 10.99 29.98 10.99 34.02 15.4 34.02 20.84 34.02 21.95 33.85 23.02 33.54 24.02 34.07 24.28 34.45 24.87 34.45 25.56ZM 18.79 38.8C 18.79 38.8 19.11 38.8 19.11 38.8 19.12 38.8 19.14 38.81 19.16 38.81 19.16 38.81 17.13 43.33 17.13 43.33 17.13 43.33 21.2 51 21.2 51 21.2 51 5.84 51 5.84 51 5.38 51 5 50.62 5 50.14 5 50.14 5 47.05 5 47.05 5 46.81 5.09 46.59 5.25 46.43 9.02 42.66 13.63 40.03 18.6 38.82 18.66 38.81 18.72 38.8 18.79 38.8ZM 23.47 43.21C 23.51 43.08 23.64 42.99 23.78 43.01 23.95 43.03 24.08 43.05 24.18 43.07 24.45 43.11 24.58 43.14 25 43.14 25.41 43.14 25.54 43.11 25.8 43.07 25.91 43.06 26.04 43.03 26.21 43.01 26.35 42.99 26.48 43.08 26.51 43.22 26.51 43.22 27.35 46.31 27.35 46.31 27.36 46.35 27.36 46.39 27.35 46.44 27.35 46.44 26.61 50.75 26.61 50.75 26.58 50.89 26.47 50.99 26.33 50.99 26.33 50.99 23.61 50.99 23.61 50.99 23.47 50.99 23.36 50.89 23.33 50.75 23.33 50.75 22.58 46.52 22.58 46.52 22.57 46.48 22.57 46.43 22.59 46.39 22.59 46.39 23.47 43.21 23.47 43.21Z" fill="#FFF" clip-path="url(#clip0)"/></svg><svg height="50" viewBox="0 0 25 25" width="50" x="0" y="2177"><path d="M 21.59 24.25C 21.59 24.25 20.6 25.01 20.6 25.01 20.6 25.01 4.39 25.01 4.39 25.01 4.39 25.01 3.4 24.25 3.4 24.25 3.4 24.25-0 11.48-0 11.48-0 11.48 0.99 10.19 0.99 10.19 0.99 10.19 24.01 10.19 24.01 10.19 24.01 10.19 25 11.48 25 11.48 25 11.48 21.59 24.25 21.59 24.25ZM 2.32 12.23C 2.32 12.23 5.18 22.97 5.18 22.97 5.18 22.97 19.82 22.97 19.82 22.97 19.82 22.97 22.68 12.23 22.68 12.23 22.68 12.23 2.32 12.23 2.32 12.23ZM 15.98 19.95C 15.98 19.95 8.9 19.95 8.9 19.95 8.9 19.95 7.9 19.13 7.9 19.13 7.9 19.13 6.75 13.62 6.75 13.62 6.75 13.62 8.75 13.2 8.75 13.2 8.75 13.2 9.73 17.91 9.73 17.91 9.73 17.91 15.15 17.91 15.15 17.91 15.15 17.91 16.13 13.2 16.13 13.2 16.13 13.2 18.14 13.62 18.14 13.62 18.14 13.62 16.98 19.13 16.98 19.13 16.98 19.13 15.98 19.95 15.98 19.95ZM 11.77 8.47C 11.77 8.47 8.03 4.74 8.03 4.74 8.03 4.74 9.48 3.3 9.48 3.3 9.48 3.3 11.47 5.28 11.47 5.28 11.47 5.28 11.47 0 11.47 0 11.47 0 13.52 0 13.52 0 13.52 0 13.52 5.28 13.52 5.28 13.52 5.28 15.52 3.3 15.52 3.3 15.52 3.3 16.96 4.74 16.96 4.74 16.96 4.74 13.22 8.47 13.22 8.47 13.22 8.47 11.77 8.47 11.77 8.47Z" fill="#C63730"/></svg><svg height="30" viewBox="0 0 24 15" width="48" x="0" y="2227"><path d="M 2.05-0C 2.05-0 11.61 12 11.61 12 11.61 12 21.95 0.79 21.95 0.79 21.95 0.79 24.01 2.24 24.01 2.24 24.01 2.24 12.64 15.01 12.64 15.01 12.64 15.01 10.59 15.01 10.59 15.01 10.59 15.01-0.01 1.45-0.01 1.45-0.01 1.45 2.05-0 2.05-0Z" fill="#FFF"/></svg><svg height="31" viewBox="0 0 34 31" width="34" x="0" y="2257"><path d="M 32.45 13.51C 32.45 13.51 21.28 13.51 21.28 13.51 21.28 13.51 21.28 10.47 21.28 10.47 21.28 10.47 28.69 10.47 28.69 10.47 26.67 6.05 22.12 3.04 17.01 3.04 12.17 3.04 7.8 5.66 5.6 9.88 5.6 9.88 2.83 8.5 2.83 8.5 5.56 3.25 10.99-0.01 17.01-0.01 22.86-0.01 28.13 3.18 30.89 7.98 30.89 7.98 30.89 1.08 30.89 1.08 30.89 1.08 34 1.08 34 1.08 34 1.08 34 11.99 34 11.99 34 11.99 32.45 13.51 32.45 13.51ZM 12.73 20.52C 12.73 20.52 5.32 20.52 5.32 20.52 7.34 24.94 11.89 27.95 17 27.95 21.84 27.95 26.21 25.33 28.41 21.11 28.41 21.11 31.18 22.49 31.18 22.49 28.45 27.74 23.02 31 17 31 11.15 31 5.88 27.81 3.12 23.01 3.12 23.01 3.12 29.91 3.12 29.91 3.12 29.91 0.01 29.91 0.01 29.91 0.01 29.91 0.01 19 0.01 19 0.01 19 1.57 17.47 1.57 17.47 1.57 17.47 12.73 17.47 12.73 17.47 12.73 17.47 12.73 20.52 12.73 20.52Z" fill="#FFF"/></svg><svg height="32" viewBox="0 0 32 32" width="32" x="0" y="2288"><path d="M 16 32C 7.16 32-0 24.84-0 16-0 7.16 7.16-0 16-0 24.84-0 32 7.16 32 16 32 24.84 24.84 32 16 32ZM 21.06 8.82C 21.06 8.82 16.03 13.85 16.03 13.85 16.03 13.85 11.09 8.91 11.09 8.91 11.09 8.91 8.91 11.09 8.91 11.09 8.91 11.09 13.85 16.03 13.85 16.03 13.85 16.03 8.82 21.06 8.82 21.06 8.82 21.06 10.94 23.18 10.94 23.18 10.94 23.18 15.97 18.15 15.97 18.15 15.97 18.15 20.91 23.09 20.91 23.09 20.91 23.09 23.09 20.91 23.09 20.91 23.09 20.91 18.15 15.97 18.15 15.97 18.15 15.97 23.18 10.94 23.18 10.94 23.18 10.94 21.06 8.82 21.06 8.82Z" fill="#DBE3E7"/></svg><svg height="24" viewBox="0 0 12 12" width="24" x="0" y="2320"><path d="M 11.97 10.56C 11.97 10.56 10.55 11.98 10.55 11.98 10.55 11.98 5.97 7.41 5.97 7.41 5.97 7.41 1.4 11.98 1.4 11.98 1.4 11.98-0.02 10.56-0.02 10.56-0.02 10.56 4.55 5.99 4.55 5.99 4.55 5.99-0.02 1.42-0.02 1.42-0.02 1.42 1.4-0.01 1.4-0.01 1.4-0.01 5.97 4.57 5.97 4.57 5.97 4.57 10.55-0.01 10.55-0.01 10.55-0.01 11.97 1.42 11.97 1.42 11.97 1.42 7.4 5.99 7.4 5.99 7.4 5.99 11.97 10.56 11.97 10.56Z" fill="#AB3A33"/></svg><svg height="22" viewBox="0 0 24 22" width="24" x="0" y="2344"><path d="M 20.53 21.24C 20.53 21.24 19.58 21.98 19.58 21.98 19.58 21.98 3.99 21.98 3.99 21.98 3.99 21.98 3.04 21.24 3.04 21.24 3.04 21.24-0.23 8.79-0.23 8.79-0.23 8.79 0.72 7.54 0.72 7.54 0.72 7.54 22.86 7.54 22.86 7.54 22.86 7.54 23.81 8.79 23.81 8.79 23.81 8.79 20.53 21.24 20.53 21.24ZM 1.99 9.52C 1.99 9.52 4.74 19.99 4.74 19.99 4.74 19.99 18.83 19.99 18.83 19.99 18.83 19.99 21.58 9.52 21.58 9.52 21.58 9.52 1.99 9.52 1.99 9.52ZM 16.04 18.14C 16.04 18.14 17.71 11.25 17.71 11.25 17.71 11.25 19.61 11.25 19.61 11.25 19.61 11.25 17.94 18.14 17.94 18.14 17.94 18.14 16.04 18.14 16.04 18.14ZM 12.62 18.14C 12.62 18.14 13.18 11.25 13.18 11.25 13.18 11.25 15.24 11.25 15.24 11.25 15.24 11.25 14.58 18.14 14.58 18.14 14.58 18.14 12.62 18.14 12.62 18.14ZM 8.51 11.25C 8.51 11.25 10.63 11.25 10.63 11.25 10.63 11.25 11.18 18.14 11.18 18.14 11.18 18.14 9.23 18.14 9.23 18.14 9.23 18.14 8.51 11.25 8.51 11.25ZM 4.2 11.25C 4.2 11.25 6.1 11.25 6.1 11.25 6.1 11.25 7.76 18.14 7.76 18.14 7.76 18.14 5.87 18.14 5.87 18.14 5.87 18.14 4.2 11.25 4.2 11.25ZM 11.76 2.03C 11.76 2.03 6.53 6.66 6.53 6.66 6.53 6.66 5.23 5.17 5.23 5.17 5.23 5.17 11.11-0.04 11.11-0.04 11.11-0.04 12.4-0.04 12.4-0.04 12.4-0.04 18.33 5.17 18.33 5.17 18.33 5.17 17.05 6.67 17.05 6.67 17.05 6.67 11.76 2.03 11.76 2.03Z" fill="#FFF"/></svg><svg height="22" viewBox="0 0 11 22" width="11" x="0" y="2366"><path d="M 2.34 22C 2.34 20.68 2.34 15.66 2.34 11.39 2.34 11.39 0.19 11.39 0.19 11.39 0.19 11.39 0.19 7.52 0.19 7.52 0.19 7.52 2.34 7.52 2.34 7.52 2.34 7.52 2.34 5.02 2.34 5.02 2.34 3.23 3.19 0.43 6.9 0.43 6.9 0.43 10.24 0.44 10.24 0.44 10.24 0.44 10.24 4.19 10.24 4.19 10.24 4.19 8.21 4.19 7.81 4.19 7.42 4.19 6.86 4.39 6.86 5.25 6.86 5.25 6.86 7.52 6.86 7.52 6.86 7.52 10.3 7.52 10.3 7.52 10.3 7.52 9.9 11.39 9.9 11.39 9.9 11.39 6.86 11.39 6.86 11.39 6.86 15.61 6.86 20.67 6.86 22" fill="#EBEFF0"/></svg><svg height="21" viewBox="0 0 18 21" width="18" x="0" y="2388"><path d="M 17.72 2.1C 17.72 2.1 16.11 2.1 16.11 2.1 16.11 2.1 15.97 0.87 15.97 0.87 15.97 0.87 14.99-0.01 14.99-0.01 14.99-0.01 2.54-0.01 2.54-0.01 2.54-0.01 1.57 0.88 1.57 0.88 1.57 0.88 1.43 2.1 1.43 2.1 1.43 2.1-0.33 2.1-0.33 2.1-0.33 2.1-0.33 6.26-0.33 6.26-0.33 6.26 0.97 6.26 0.97 6.26 0.97 6.26 0.46 10.91 0.46 10.91 0.46 10.91 0.45 17.91 0.45 17.91 0.45 17.91 0.88 18.34 0.88 18.34 0.88 18.34 0.88 21 0.88 21 0.88 21 2.84 21 2.84 21 2.84 21 2.84 18.9 2.84 18.9 2.84 18.9 14.75 18.9 14.75 18.9 14.75 18.9 14.75 21 14.75 21 14.75 21 16.7 21 16.7 21 16.7 21 16.7 18.29 16.7 18.29 16.7 18.29 17.08 17.91 17.08 17.91 17.08 17.91 17.08 10.46 17.08 10.46 17.08 10.46 16.59 6.26 16.59 6.26 16.59 6.26 17.72 6.26 17.72 6.26 17.72 6.26 17.72 2.1 17.72 2.1ZM 3.42 1.99C 3.42 1.99 14.12 1.99 14.12 1.99 14.12 1.99 15.07 10.02 15.07 10.02 15.07 10.02 2.53 10.02 2.53 10.02 2.53 10.02 3.42 1.99 3.42 1.99ZM 2.41 15.47C 2.41 15.47 4.93 15.47 4.93 15.47 4.93 15.47 4.93 13.47 4.93 13.47 4.93 13.47 2.41 13.47 2.41 13.47 2.41 13.47 2.41 12.02 2.41 12.02 2.41 12.02 15.12 12.02 15.12 12.02 15.12 12.02 15.12 13.47 15.12 13.47 15.12 13.47 12.51 13.47 12.51 13.47 12.51 13.47 12.51 15.47 12.51 15.47 12.51 15.47 15.12 15.47 15.12 15.47 15.12 15.47 15.12 16.91 15.12 16.91 15.12 16.91 2.41 16.91 2.41 16.91 2.41 16.91 2.41 15.47 2.41 15.47Z" fill="#AB3933"/></svg><svg height="19" viewBox="0 0 20 19" width="20" x="0" y="2409"><path d="M 19.53 9.62C 19.53 9.62 16.61 9.62 16.61 9.62 16.61 9.62 16.61 12.56 16.61 12.56 16.61 12.78 16.43 12.96 16.21 12.96 16.21 12.96 15.38 12.96 15.38 12.96 15.15 12.96 14.97 12.78 14.97 12.56 14.97 12.56 14.97 9.62 14.97 9.62 14.97 9.62 12.06 9.62 12.06 9.62 11.84 9.62 11.66 9.44 11.66 9.21 11.66 9.21 11.66 8.37 11.66 8.37 11.66 8.15 11.84 7.97 12.06 7.97 12.06 7.97 14.97 7.97 14.97 7.97 14.97 7.97 14.97 5.03 14.97 5.03 14.97 4.8 15.15 4.62 15.38 4.62 15.38 4.62 16.21 4.62 16.21 4.62 16.43 4.62 16.61 4.8 16.61 5.03 16.61 5.03 16.61 7.97 16.61 7.97 16.61 7.97 19.53 7.97 19.53 7.97 19.75 7.97 19.93 8.15 19.93 8.37 19.93 8.37 19.93 9.21 19.93 9.21 19.93 9.44 19.75 9.62 19.53 9.62ZM 10.79 2.43C 10.72 2.48 10.64 2.51 10.55 2.51 10.55 2.51 10.14 2.51 10.14 2.51 10.67 3.15 10.98 4.06 10.98 5.09 10.98 6.22 10.41 7.29 9.38 8.11 8.58 8.74 8.55 8.91 8.55 9.27 8.56 9.46 9.11 10.11 9.73 10.54 11.16 11.56 11.69 12.56 11.69 14.24 11.69 15.98 10.38 17.49 8.34 18.08 7.69 18.27 6.99 18.37 6.25 18.37 5.42 18.37 4.63 18.27 3.89 18.08 2.46 17.72 1.4 17.03 0.91 16.14 0.7 15.76 0.59 15.35 0.59 14.92 0.59 14.49 0.69 14.05 0.9 13.61 1.68 11.92 3.75 10.79 6.03 10.79 6.06 10.79 6.08 10.79 6.1 10.79 5.91 10.46 5.82 10.12 5.82 9.76 5.82 9.58 5.85 9.4 5.89 9.22 3.49 9.16 1.7 7.39 1.7 5.06 1.7 3.41 3.01 1.8 4.88 1.15 5.44 0.96 6.01 0.86 6.57 0.86 6.57 0.86 11.7 0.86 11.7 0.86 11.87 0.86 12.03 0.97 12.08 1.14 12.14 1.31 12.08 1.49 11.93 1.59 11.93 1.59 10.79 2.43 10.79 2.43ZM 3.25 14.37C 3.25 15.69 4.56 16.73 6.24 16.73 8.44 16.73 9.57 15.96 9.57 14.45 9.57 14.3 9.55 14.15 9.51 14.01 9.36 13.42 8.83 13.05 8.02 12.5 7.91 12.42 7.79 12.34 7.67 12.26 7.32 12.15 6.95 12.09 6.57 12.09 6.57 12.09 6.53 12.09 6.53 12.09 4.78 12.09 3.25 13.15 3.25 14.37ZM 8.33 5.24C 8.13 3.71 7.05 2.44 5.92 2.4 5.92 2.4 5.87 2.4 5.87 2.4 5.47 2.4 5.11 2.57 4.84 2.88 4.42 3.37 4.24 4.14 4.35 4.99 4.55 6.52 5.65 7.84 6.77 7.88 6.77 7.88 6.78 7.88 6.78 7.88 6.78 7.88 6.78 7.88 6.78 7.88 7.2 7.88 7.56 7.71 7.83 7.4 8.26 6.91 8.44 6.1 8.33 5.24Z" fill="#EBEFF0"/></svg><svg height="19" viewBox="0 0 16 19" width="16" x="0" y="2428"><path d="M 14.94 6.77C 14.94 6.77 8.84 6.77 8.84 6.77 8.84 6.77 8.84 8.81 8.84 8.81 8.84 8.81 13.95 8.81 13.95 8.81 13.95 8.81 13.95 13.35 13.95 13.35 13.95 13.35 12.36 15.93 12.36 15.93 12.36 15.93 7.2 15.93 7.2 15.93 7.2 15.93 5.51 14.4 5.51 14.4 5.51 14.4 4.85 14.14 4.85 14.14 4.85 14.14 1.89 14.14 1.89 14.14 1.89 14.14 1.89 8.81 1.89 8.81 1.89 8.81 4.31 8.81 4.31 8.81 4.31 8.81 4.95 8.56 4.95 8.56 4.95 8.56 8.4 5.52 8.4 5.52 8.4 5.52 8.67 5.15 8.67 5.15 8.67 5.15 10.57 0.53 10.57 0.53 10.57 0.53 8.75-0.27 8.75-0.27 8.75-0.27 6.94 4.13 6.94 4.13 6.94 4.13 3.95 6.77 3.95 6.77 3.95 6.77 0.9 6.77 0.9 6.77 0.9 6.77-0.09 7.79-0.09 7.79-0.09 7.79-0.09 18.69-0.09 18.69-0.09 18.69 1.89 18.69 1.89 18.69 1.89 18.69 1.89 16.18 1.89 16.18 1.89 16.18 4.48 16.18 4.48 16.18 4.48 16.18 6.17 17.72 6.17 17.72 6.17 17.72 6.82 17.97 6.82 17.97 6.82 17.97 12.9 17.97 12.9 17.97 12.9 17.97 13.73 17.5 13.73 17.5 13.73 17.5 15.78 14.2 15.78 14.2 15.78 14.2 15.93 13.65 15.93 13.65 15.93 13.65 15.93 7.79 15.93 7.79 15.93 7.79 14.94 6.77 14.94 6.77Z" fill="#AA3933"/></svg><svg height="14" viewBox="0 0 19 14" width="19" x="0" y="2447"><path d="M 17.99-0.18C 17.99-0.18 0.97-0.18 0.97-0.18 0.97-0.18-0.02 0.81-0.02 0.81-0.02 0.81-0.02 12.87-0.02 12.87-0.02 12.87 0.97 13.85 0.97 13.85 0.97 13.85 17.99 13.85 17.99 13.85 17.99 13.85 18.99 12.87 18.99 12.87 18.99 12.87 18.99 6.1 18.99 6.1 18.99 6.1 18.99 4.13 18.99 4.13 18.99 4.13 18.99 0.81 18.99 0.81 18.99 0.81 17.99-0.18 17.99-0.18ZM 17 11.89C 17 11.89 1.97 11.89 1.97 11.89 1.97 11.89 1.97 6.1 1.97 6.1 1.97 6.1 17 6.1 17 6.1 17 6.1 17 11.89 17 11.89ZM 1.97 4.13C 1.97 4.13 1.97 1.79 1.97 1.79 1.97 1.79 17 1.79 17 1.79 17 1.79 17 4.13 17 4.13 17 4.13 1.97 4.13 1.97 4.13Z" fill="#AA3933"/></svg><svg height="14" viewBox="0 0 18 14" width="18" x="0" y="2461"><path d="M 15.73 3.57C 15.73 3.72 15.74 3.86 15.74 4.01 15.74 8.57 12.3 13.82 6 13.82 4.07 13.82 2.27 13.25 0.76 12.27 1.03 12.31 1.3 12.32 1.58 12.32 3.18 12.32 4.65 11.77 5.82 10.85 4.33 10.82 3.06 9.82 2.63 8.45 2.84 8.49 3.05 8.51 3.27 8.51 3.58 8.51 3.89 8.47 4.17 8.39 2.61 8.08 1.43 6.68 1.43 5.01 1.43 5 1.43 4.98 1.43 4.97 1.89 5.23 2.42 5.38 2.98 5.4 2.06 4.78 1.46 3.73 1.46 2.53 1.46 1.9 1.63 1.31 1.92 0.8 3.61 2.88 6.13 4.26 8.97 4.4 8.91 4.15 8.88 3.88 8.88 3.61 8.88 1.71 10.41 0.17 12.3 0.17 13.29 0.17 14.18 0.59 14.8 1.26 15.58 1.1 16.31 0.81 16.97 0.42 16.72 1.22 16.18 1.9 15.47 2.33 16.16 2.24 16.82 2.06 17.43 1.78 16.97 2.47 16.4 3.08 15.73 3.57Z" fill="#EBEFF0"/></svg><svg height="12" viewBox="0 0 16 12" width="16" x="0" y="2475"><path d="M-0 6.43C-0 6.43 1.97 4.49 1.97 4.49 1.97 4.49 5.71 8.13 5.71 8.13 5.71 8.13 14.03 0.01 14.03 0.01 14.03 0.01 16 1.95 16 1.95 16 1.95 5.71 12 5.71 12 5.71 12-0 6.43-0 6.43Z" fill="#FDFDFD"/></svg><svg height="8" viewBox="0 0 5 8" width="5" x="0" y="2487"><path d="M 5.01 4.67C 5.01 4.67 1.45 7.99 1.45 7.99 1.45 7.99-0.01 6.64-0.01 6.64-0.01 6.64 2.82 3.99 2.82 3.99 2.82 3.99-0.01 1.36-0.01 1.36-0.01 1.36 1.45-0 1.45-0 1.45-0 5.01 3.31 5.01 3.31 5.01 3.31 5.01 4.67 5.01 4.67Z" fill="#AB3933"/></svg><svg height="5" viewBox="0 0 8 5" width="8" x="0" y="2495"><path fill="#FFF" d="M3.32,5.01L0,1.45l1.36-1.46L4,2.82l2.641-2.83L8,1.45L4.68,5.01H3.32z"/></svg><svg height="5" viewBox="0 0 8 5" width="8" x="0" y="2500"><path d="M 3.32 5.01C 3.32 5.01 0 1.45 0 1.45 0 1.45 1.36-0.01 1.36-0.01 1.36-0.01 4 2.82 4 2.82 4 2.82 6.64-0.01 6.64-0.01 6.64-0.01 8 1.45 8 1.45 8 1.45 4.68 5.01 4.68 5.01 4.68 5.01 3.32 5.01 3.32 5.01Z" fill="#545454"/></svg><svg height="4" viewBox="0 0 7 4" width="7" x="0" y="2505"><path d="M 7-0C 7-0 3.5 4 3.5 4 3.5 4-0-0-0-0-0-0 7-0 7-0Z" fill="#4F4F4F"/></svg></svg>